<?xml version="1.0" encoding="us-ascii" standalone="no"?><svg xmlns="http://www.w3.org/2000/svg" xmlns:xlink="http://www.w3.org/1999/xlink" contentStyleType="text/css" height="1256px" preserveAspectRatio="none" style="width:2508px;height:1256px;background:#FFFFFF;" version="1.1" viewBox="0 0 2508 1256" width="2508px" zoomAndPan="magnify"><defs/><g><text fill="#000000" font-family="sans-serif" font-size="14" font-weight="bold" lengthAdjust="spacing" textLength="179" x="1157.5" y="24.5332">Bullet Kingdom Alchemist</text><!--class Personaje--><g id="elem_Personaje"><rect codeLine="4" fill="#F1F1F1" height="206.4844" id="Personaje" rx="2.5" ry="2.5" style="stroke:#181818;stroke-width:0.5;" width="250" x="174" y="367.6094"/><ellipse cx="262.75" cy="383.6094" fill="#ADD1B2" rx="11" ry="11" style="stroke:#181818;stroke-width:1.0;"/><path d="M265.5156,379.4844 Q265.6719,379.2656 265.8594,379.1563 Q266.0469,379.0469 266.2656,379.0469 Q266.6406,379.0469 266.875,379.3125 Q267.1094,379.5625 267.1094,380.1719 L267.1094,381.625 Q267.1094,382.2344 266.875,382.5 Q266.6406,382.7656 266.2656,382.7656 Q265.9219,382.7656 265.7188,382.5625 Q265.5156,382.375 265.4063,381.8594 Q265.3594,381.5 265.1719,381.3125 Q264.8438,380.9375 264.2344,380.7188 Q263.625,380.5 263,380.5 Q262.2344,380.5 261.5938,380.8281 Q260.9688,381.1563 260.4688,381.9063 Q259.9844,382.6563 259.9844,383.6875 L259.9844,384.7813 Q259.9844,386.0156 260.875,386.8438 Q261.7656,387.6563 263.3594,387.6563 Q264.2969,387.6563 264.9531,387.4063 Q265.3438,387.25 265.7656,386.8125 Q266.0313,386.5469 266.1719,386.4688 Q266.3281,386.3906 266.5313,386.3906 Q266.8594,386.3906 267.1094,386.6563 Q267.375,386.9063 267.375,387.25 Q267.375,387.5938 267.0313,388 Q266.5313,388.5781 265.7344,388.9063 Q264.6563,389.3594 263.3594,389.3594 Q261.8438,389.3594 260.6406,388.7344 Q259.6563,388.2344 258.9688,387.1719 Q258.2813,386.0938 258.2813,384.8125 L258.2813,383.6563 Q258.2813,382.3281 258.8906,381.1875 Q259.5156,380.0313 260.6094,379.4219 Q261.7031,378.7969 262.9375,378.7969 Q263.6719,378.7969 264.3125,378.9688 Q264.9688,379.125 265.5156,379.4844 Z " fill="#000000"/><text fill="#000000" font-family="sans-serif" font-size="14" lengthAdjust="spacing" textLength="64" x="283.25" y="389.3379">Personaje</text><line style="stroke:#181818;stroke-width:0.5;" x1="175" x2="423" y1="399.6094" y2="399.6094"/><rect fill="none" height="6" style="stroke:#C82930;stroke-width:1.0;" width="6" x="182" y="410.9141"/><text fill="#000000" font-family="sans-serif" font-size="14" lengthAdjust="spacing" textLength="93" x="194" y="418.1426">nombre: String</text><rect fill="none" height="6" style="stroke:#C82930;stroke-width:1.0;" width="6" x="182" y="428.5234"/><text fill="#000000" font-family="sans-serif" font-size="14" lengthAdjust="spacing" textLength="49" x="194" y="435.752">vida: int</text><rect fill="none" height="6" style="stroke:#C82930;stroke-width:1.0;" width="6" x="182" y="446.1328"/><text fill="#000000" font-family="sans-serif" font-size="14" lengthAdjust="spacing" textLength="156" x="194" y="453.3613">arma_equipada: Arma[2]</text><rect fill="none" height="6" style="stroke:#C82930;stroke-width:1.0;" width="6" x="182" y="463.7422"/><text fill="#000000" font-family="sans-serif" font-size="14" lengthAdjust="spacing" textLength="214" x="194" y="470.9707">armadura_equipada: Armadura[3]</text><rect fill="none" height="6" style="stroke:#C82930;stroke-width:1.0;" width="6" x="182" y="481.3516"/><text fill="#000000" font-family="sans-serif" font-size="14" lengthAdjust="spacing" textLength="112" x="194" y="488.5801">ultima_arma: bool</text><rect fill="none" height="6" style="stroke:#C82930;stroke-width:1.0;" width="6" x="182" y="498.9609"/><text fill="#000000" font-family="sans-serif" font-size="14" lengthAdjust="spacing" textLength="150" x="194" y="506.1895">movimiento: Movimiento</text><line style="stroke:#181818;stroke-width:0.5;" x1="175" x2="423" y1="513.2656" y2="513.2656"/><ellipse cx="185" cy="527.5703" fill="#84BE84" rx="3" ry="3" style="stroke:#038048;stroke-width:1.0;"/><text fill="#000000" font-family="sans-serif" font-size="14" lengthAdjust="spacing" textLength="84" x="194" y="531.7988">atacar(): void</text><ellipse cx="185" cy="545.1797" fill="#84BE84" rx="3" ry="3" style="stroke:#038048;stroke-width:1.0;"/><text fill="#000000" font-family="sans-serif" font-size="14" lengthAdjust="spacing" textLength="200" x="194" y="549.4082">recibir_da&#241;o(cantidad: int): void</text><ellipse cx="185" cy="562.7891" fill="#84BE84" rx="3" ry="3" style="stroke:#038048;stroke-width:1.0;"/><text fill="#000000" font-family="sans-serif" font-size="14" lengthAdjust="spacing" textLength="224" x="194" y="567.0176">equipar(e: Equipable, slot: int): void</text></g><!--class Movimiento--><g id="elem_Movimiento"><rect codeLine="16" fill="#F1F1F1" height="100.8281" id="Movimiento" rx="2.5" ry="2.5" style="stroke:#181818;stroke-width:0.5;" width="132" x="7" y="739.1094"/><ellipse cx="35.05" cy="755.1094" fill="#ADD1B2" rx="11" ry="11" style="stroke:#181818;stroke-width:1.0;"/><path d="M37.8156,750.9844 Q37.9719,750.7656 38.1594,750.6563 Q38.3469,750.5469 38.5656,750.5469 Q38.9406,750.5469 39.175,750.8125 Q39.4094,751.0625 39.4094,751.6719 L39.4094,753.125 Q39.4094,753.7344 39.175,754 Q38.9406,754.2656 38.5656,754.2656 Q38.2219,754.2656 38.0188,754.0625 Q37.8156,753.875 37.7063,753.3594 Q37.6594,753 37.4719,752.8125 Q37.1438,752.4375 36.5344,752.2188 Q35.925,752 35.3,752 Q34.5344,752 33.8938,752.3281 Q33.2688,752.6563 32.7688,753.4063 Q32.2844,754.1563 32.2844,755.1875 L32.2844,756.2813 Q32.2844,757.5156 33.175,758.3438 Q34.0656,759.1563 35.6594,759.1563 Q36.5969,759.1563 37.2531,758.9063 Q37.6438,758.75 38.0656,758.3125 Q38.3313,758.0469 38.4719,757.9688 Q38.6281,757.8906 38.8313,757.8906 Q39.1594,757.8906 39.4094,758.1563 Q39.675,758.4063 39.675,758.75 Q39.675,759.0938 39.3313,759.5 Q38.8313,760.0781 38.0344,760.4063 Q36.9563,760.8594 35.6594,760.8594 Q34.1438,760.8594 32.9406,760.2344 Q31.9562,759.7344 31.2687,758.6719 Q30.5812,757.5938 30.5812,756.3125 L30.5812,755.1563 Q30.5812,753.8281 31.1906,752.6875 Q31.8156,751.5313 32.9094,750.9219 Q34.0031,750.2969 35.2375,750.2969 Q35.9719,750.2969 36.6125,750.4688 Q37.2688,750.625 37.8156,750.9844 Z " fill="#000000"/><text fill="#000000" font-family="sans-serif" font-size="14" lengthAdjust="spacing" textLength="71" x="51.95" y="760.8379">Movimiento</text><line style="stroke:#181818;stroke-width:0.5;" x1="8" x2="138" y1="771.1094" y2="771.1094"/><rect fill="none" height="6" style="stroke:#C82930;stroke-width:1.0;" width="6" x="15" y="782.4141"/><text fill="#000000" font-family="sans-serif" font-size="14" lengthAdjust="spacing" textLength="106" x="27" y="789.6426">destino: Objetivo</text><rect fill="none" height="6" style="stroke:#C82930;stroke-width:1.0;" width="6" x="15" y="800.0234"/><text fill="#000000" font-family="sans-serif" font-size="14" lengthAdjust="spacing" textLength="98" x="27" y="807.252">teclas: String[4]</text><line style="stroke:#181818;stroke-width:0.5;" x1="8" x2="138" y1="814.3281" y2="814.3281"/><ellipse cx="18" cy="828.6328" fill="#84BE84" rx="3" ry="3" style="stroke:#038048;stroke-width:1.0;"/><text fill="#000000" font-family="sans-serif" font-size="14" lengthAdjust="spacing" textLength="83" x="27" y="832.8613">mover(): void</text></g><!--class Heroe--><g id="elem_Heroe"><rect codeLine="22" fill="#F1F1F1" height="100.8281" id="Heroe" rx="2.5" ry="2.5" style="stroke:#181818;stroke-width:0.5;" width="250" x="174" y="739.1094"/><ellipse cx="275.75" cy="755.1094" fill="#ADD1B2" rx="11" ry="11" style="stroke:#181818;stroke-width:1.0;"/><path d="M278.5156,750.9844 Q278.6719,750.7656 278.8594,750.6563 Q279.0469,750.5469 279.2656,750.5469 Q279.6406,750.5469 279.875,750.8125 Q280.1094,751.0625 280.1094,751.6719 L280.1094,753.125 Q280.1094,753.7344 279.875,754 Q279.6406,754.2656 279.2656,754.2656 Q278.9219,754.2656 278.7188,754.0625 Q278.5156,753.875 278.4063,753.3594 Q278.3594,753 278.1719,752.8125 Q277.8438,752.4375 277.2344,752.2188 Q276.625,752 276,752 Q275.2344,752 274.5938,752.3281 Q273.9688,752.6563 273.4688,753.4063 Q272.9844,754.1563 272.9844,755.1875 L272.9844,756.2813 Q272.9844,757.5156 273.875,758.3438 Q274.7656,759.1563 276.3594,759.1563 Q277.2969,759.1563 277.9531,758.9063 Q278.3438,758.75 278.7656,758.3125 Q279.0313,758.0469 279.1719,757.9688 Q279.3281,757.8906 279.5313,757.8906 Q279.8594,757.8906 280.1094,758.1563 Q280.375,758.4063 280.375,758.75 Q280.375,759.0938 280.0313,759.5 Q279.5313,760.0781 278.7344,760.4063 Q277.6563,760.8594 276.3594,760.8594 Q274.8438,760.8594 273.6406,760.2344 Q272.6563,759.7344 271.9688,758.6719 Q271.2813,757.5938 271.2813,756.3125 L271.2813,755.1563 Q271.2813,753.8281 271.8906,752.6875 Q272.5156,751.5313 273.6094,750.9219 Q274.7031,750.2969 275.9375,750.2969 Q276.6719,750.2969 277.3125,750.4688 Q277.9688,750.625 278.5156,750.9844 Z " fill="#000000"/><text fill="#000000" font-family="sans-serif" font-size="14" lengthAdjust="spacing" textLength="38" x="296.25" y="760.8379">Heroe</text><line style="stroke:#181818;stroke-width:0.5;" x1="175" x2="423" y1="771.1094" y2="771.1094"/><rect fill="none" height="6" style="stroke:#C82930;stroke-width:1.0;" width="6" x="182" y="782.4141"/><text fill="#000000" font-family="sans-serif" font-size="14" lengthAdjust="spacing" textLength="155" x="194" y="789.6426">habilidadEspecial: String</text><line style="stroke:#181818;stroke-width:0.5;" x1="175" x2="423" y1="796.7188" y2="796.7188"/><ellipse cx="185" cy="811.0234" fill="#84BE84" rx="3" ry="3" style="stroke:#038048;stroke-width:1.0;"/><text fill="#000000" font-family="sans-serif" font-size="14" lengthAdjust="spacing" textLength="130" x="194" y="815.252">usarHabilidad(): void</text><ellipse cx="185" cy="828.6328" fill="#84BE84" rx="3" ry="3" style="stroke:#038048;stroke-width:1.0;"/><text fill="#000000" font-family="sans-serif" font-size="14" lengthAdjust="spacing" textLength="224" x="194" y="832.8613">equipar(e: Equipable, slot: int): void</text></g><!--class Enemigo--><g id="elem_Enemigo"><rect codeLine="28" fill="#F1F1F1" height="100.8281" id="Enemigo" rx="2.5" ry="2.5" style="stroke:#181818;stroke-width:0.5;" width="250" x="459" y="739.1094"/><ellipse cx="552.25" cy="755.1094" fill="#ADD1B2" rx="11" ry="11" style="stroke:#181818;stroke-width:1.0;"/><path d="M555.0156,750.9844 Q555.1719,750.7656 555.3594,750.6563 Q555.5469,750.5469 555.7656,750.5469 Q556.1406,750.5469 556.375,750.8125 Q556.6094,751.0625 556.6094,751.6719 L556.6094,753.125 Q556.6094,753.7344 556.375,754 Q556.1406,754.2656 555.7656,754.2656 Q555.4219,754.2656 555.2188,754.0625 Q555.0156,753.875 554.9063,753.3594 Q554.8594,753 554.6719,752.8125 Q554.3438,752.4375 553.7344,752.2188 Q553.125,752 552.5,752 Q551.7344,752 551.0938,752.3281 Q550.4688,752.6563 549.9688,753.4063 Q549.4844,754.1563 549.4844,755.1875 L549.4844,756.2813 Q549.4844,757.5156 550.375,758.3438 Q551.2656,759.1563 552.8594,759.1563 Q553.7969,759.1563 554.4531,758.9063 Q554.8438,758.75 555.2656,758.3125 Q555.5313,758.0469 555.6719,757.9688 Q555.8281,757.8906 556.0313,757.8906 Q556.3594,757.8906 556.6094,758.1563 Q556.875,758.4063 556.875,758.75 Q556.875,759.0938 556.5313,759.5 Q556.0313,760.0781 555.2344,760.4063 Q554.1563,760.8594 552.8594,760.8594 Q551.3438,760.8594 550.1406,760.2344 Q549.1563,759.7344 548.4688,758.6719 Q547.7813,757.5938 547.7813,756.3125 L547.7813,755.1563 Q547.7813,753.8281 548.3906,752.6875 Q549.0156,751.5313 550.1094,750.9219 Q551.2031,750.2969 552.4375,750.2969 Q553.1719,750.2969 553.8125,750.4688 Q554.4688,750.625 555.0156,750.9844 Z " fill="#000000"/><text fill="#000000" font-family="sans-serif" font-size="14" lengthAdjust="spacing" textLength="55" x="572.75" y="760.8379">Enemigo</text><line style="stroke:#181818;stroke-width:0.5;" x1="460" x2="708" y1="771.1094" y2="771.1094"/><rect fill="none" height="6" style="stroke:#C82930;stroke-width:1.0;" width="6" x="467" y="782.4141"/><text fill="#000000" font-family="sans-serif" font-size="14" lengthAdjust="spacing" textLength="68" x="479" y="789.6426">tipo: String</text><line style="stroke:#181818;stroke-width:0.5;" x1="460" x2="708" y1="796.7188" y2="796.7188"/><ellipse cx="470" cy="811.0234" fill="#84BE84" rx="3" ry="3" style="stroke:#038048;stroke-width:1.0;"/><text fill="#000000" font-family="sans-serif" font-size="14" lengthAdjust="spacing" textLength="117" x="479" y="815.252">hacerRuido(): void</text><ellipse cx="470" cy="828.6328" fill="#84BE84" rx="3" ry="3" style="stroke:#038048;stroke-width:1.0;"/><text fill="#000000" font-family="sans-serif" font-size="14" lengthAdjust="spacing" textLength="224" x="479" y="832.8613">equipar(e: Equipable, slot: int): void</text></g><!--class Item--><g id="elem_Item"><rect codeLine="34" fill="#F1F1F1" height="118.4375" id="Item" rx="2.5" ry="2.5" style="stroke:#181818;stroke-width:0.5;" width="231" x="1062.5" y="411.6094"/><ellipse cx="1160.75" cy="427.6094" fill="#ADD1B2" rx="11" ry="11" style="stroke:#181818;stroke-width:1.0;"/><path d="M1163.5156,423.4844 Q1163.6719,423.2656 1163.8594,423.1563 Q1164.0469,423.0469 1164.2656,423.0469 Q1164.6406,423.0469 1164.875,423.3125 Q1165.1094,423.5625 1165.1094,424.1719 L1165.1094,425.625 Q1165.1094,426.2344 1164.875,426.5 Q1164.6406,426.7656 1164.2656,426.7656 Q1163.9219,426.7656 1163.7188,426.5625 Q1163.5156,426.375 1163.4063,425.8594 Q1163.3594,425.5 1163.1719,425.3125 Q1162.8438,424.9375 1162.2344,424.7188 Q1161.625,424.5 1161,424.5 Q1160.2344,424.5 1159.5938,424.8281 Q1158.9688,425.1563 1158.4688,425.9063 Q1157.9844,426.6563 1157.9844,427.6875 L1157.9844,428.7813 Q1157.9844,430.0156 1158.875,430.8438 Q1159.7656,431.6563 1161.3594,431.6563 Q1162.2969,431.6563 1162.9531,431.4063 Q1163.3438,431.25 1163.7656,430.8125 Q1164.0313,430.5469 1164.1719,430.4688 Q1164.3281,430.3906 1164.5313,430.3906 Q1164.8594,430.3906 1165.1094,430.6563 Q1165.375,430.9063 1165.375,431.25 Q1165.375,431.5938 1165.0313,432 Q1164.5313,432.5781 1163.7344,432.9063 Q1162.6563,433.3594 1161.3594,433.3594 Q1159.8438,433.3594 1158.6406,432.7344 Q1157.6563,432.2344 1156.9688,431.1719 Q1156.2813,430.0938 1156.2813,428.8125 L1156.2813,427.6563 Q1156.2813,426.3281 1156.8906,425.1875 Q1157.5156,424.0313 1158.6094,423.4219 Q1159.7031,422.7969 1160.9375,422.7969 Q1161.6719,422.7969 1162.3125,422.9688 Q1162.9688,423.125 1163.5156,423.4844 Z " fill="#000000"/><text fill="#000000" font-family="sans-serif" font-size="14" lengthAdjust="spacing" textLength="26" x="1181.25" y="433.3379">Item</text><line style="stroke:#181818;stroke-width:0.5;" x1="1063.5" x2="1292.5" y1="443.6094" y2="443.6094"/><rect fill="none" height="6" style="stroke:#C82930;stroke-width:1.0;" width="6" x="1070.5" y="454.9141"/><text fill="#000000" font-family="sans-serif" font-size="14" lengthAdjust="spacing" textLength="93" x="1082.5" y="462.1426">nombre: String</text><rect fill="none" height="6" style="stroke:#C82930;stroke-width:1.0;" width="6" x="1070.5" y="472.5234"/><text fill="#000000" font-family="sans-serif" font-size="14" lengthAdjust="spacing" textLength="66" x="1082.5" y="479.752">peso: float</text><rect fill="none" height="6" style="stroke:#C82930;stroke-width:1.0;" width="6" x="1070.5" y="490.1328"/><text fill="#000000" font-family="sans-serif" font-size="14" lengthAdjust="spacing" textLength="93" x="1082.5" y="497.3613">rareza: Rareza</text><rect fill="none" height="6" style="stroke:#C82930;stroke-width:1.0;" width="6" x="1070.5" y="507.7422"/><text fill="#000000" font-family="sans-serif" font-size="14" lengthAdjust="spacing" textLength="205" x="1082.5" y="514.9707">tipos_validos: TipoItem[] &#171;static&#187;</text><line style="stroke:#181818;stroke-width:0.5;" x1="1063.5" x2="1292.5" y1="522.0469" y2="522.0469"/></g><!--class Equipable--><g id="elem_Equipable"><rect codeLine="41" fill="#F1F1F1" height="241.7031" id="Equipable" rx="2.5" ry="2.5" style="stroke:#181818;stroke-width:0.5;" width="187" x="914.5" y="668.6094"/><ellipse cx="972.25" cy="684.6094" fill="#ADD1B2" rx="11" ry="11" style="stroke:#181818;stroke-width:1.0;"/><path d="M975.0156,680.4844 Q975.1719,680.2656 975.3594,680.1563 Q975.5469,680.0469 975.7656,680.0469 Q976.1406,680.0469 976.375,680.3125 Q976.6094,680.5625 976.6094,681.1719 L976.6094,682.625 Q976.6094,683.2344 976.375,683.5 Q976.1406,683.7656 975.7656,683.7656 Q975.4219,683.7656 975.2188,683.5625 Q975.0156,683.375 974.9063,682.8594 Q974.8594,682.5 974.6719,682.3125 Q974.3438,681.9375 973.7344,681.7188 Q973.125,681.5 972.5,681.5 Q971.7344,681.5 971.0938,681.8281 Q970.4688,682.1563 969.9688,682.9063 Q969.4844,683.6563 969.4844,684.6875 L969.4844,685.7813 Q969.4844,687.0156 970.375,687.8438 Q971.2656,688.6563 972.8594,688.6563 Q973.7969,688.6563 974.4531,688.4063 Q974.8438,688.25 975.2656,687.8125 Q975.5313,687.5469 975.6719,687.4688 Q975.8281,687.3906 976.0313,687.3906 Q976.3594,687.3906 976.6094,687.6563 Q976.875,687.9063 976.875,688.25 Q976.875,688.5938 976.5313,689 Q976.0313,689.5781 975.2344,689.9063 Q974.1563,690.3594 972.8594,690.3594 Q971.3438,690.3594 970.1406,689.7344 Q969.1563,689.2344 968.4688,688.1719 Q967.7813,687.0938 967.7813,685.8125 L967.7813,684.6563 Q967.7813,683.3281 968.3906,682.1875 Q969.0156,681.0313 970.1094,680.4219 Q971.2031,679.7969 972.4375,679.7969 Q973.1719,679.7969 973.8125,679.9688 Q974.4688,680.125 975.0156,680.4844 Z " fill="#000000"/><text fill="#000000" font-family="sans-serif" font-size="14" lengthAdjust="spacing" textLength="63" x="992.75" y="690.3379">Equipable</text><line style="stroke:#181818;stroke-width:0.5;" x1="915.5" x2="1100.5" y1="700.6094" y2="700.6094"/><rect fill="none" height="6" style="stroke:#C82930;stroke-width:1.0;" width="6" x="922.5" y="711.9141"/><text fill="#000000" font-family="sans-serif" font-size="14" lengthAdjust="spacing" textLength="55" x="934.5" y="719.1426">da&#241;o: int</text><rect fill="none" height="6" style="stroke:#C82930;stroke-width:1.0;" width="6" x="922.5" y="729.5234"/><text fill="#000000" font-family="sans-serif" font-size="14" lengthAdjust="spacing" textLength="142" x="934.5" y="736.752">da&#241;o_porcentual: float</text><rect fill="none" height="6" style="stroke:#C82930;stroke-width:1.0;" width="6" x="922.5" y="747.1328"/><text fill="#000000" font-family="sans-serif" font-size="14" lengthAdjust="spacing" textLength="74" x="934.5" y="754.3613">defensa: int</text><rect fill="none" height="6" style="stroke:#C82930;stroke-width:1.0;" width="6" x="922.5" y="764.7422"/><text fill="#000000" font-family="sans-serif" font-size="14" lengthAdjust="spacing" textLength="161" x="934.5" y="771.9707">defensa_porcentual: float</text><rect fill="none" height="6" style="stroke:#C82930;stroke-width:1.0;" width="6" x="922.5" y="782.3516"/><text fill="#000000" font-family="sans-serif" font-size="14" lengthAdjust="spacing" textLength="95" x="934.5" y="789.5801">velocidad: float</text><rect fill="none" height="6" style="stroke:#C82930;stroke-width:1.0;" width="6" x="922.5" y="799.9609"/><text fill="#000000" font-family="sans-serif" font-size="14" lengthAdjust="spacing" textLength="147" x="934.5" y="807.1895">velocidad_ataque: float</text><rect fill="none" height="6" style="stroke:#C82930;stroke-width:1.0;" width="6" x="922.5" y="817.5703"/><text fill="#000000" font-family="sans-serif" font-size="14" lengthAdjust="spacing" textLength="72" x="934.5" y="824.7988">critico: float</text><rect fill="none" height="6" style="stroke:#C82930;stroke-width:1.0;" width="6" x="922.5" y="835.1797"/><text fill="#000000" font-family="sans-serif" font-size="14" lengthAdjust="spacing" textLength="119" x="934.5" y="842.4082">critico_bonus: float</text><rect fill="none" height="6" style="stroke:#C82930;stroke-width:1.0;" width="6" x="922.5" y="852.7891"/><text fill="#000000" font-family="sans-serif" font-size="14" lengthAdjust="spacing" textLength="84" x="934.5" y="860.0176">evasion: float</text><rect fill="none" height="6" style="stroke:#C82930;stroke-width:1.0;" width="6" x="922.5" y="870.3984"/><text fill="#000000" font-family="sans-serif" font-size="14" lengthAdjust="spacing" textLength="157" x="934.5" y="877.627">resistencia_empuje: float</text><rect fill="none" height="6" style="stroke:#C82930;stroke-width:1.0;" width="6" x="922.5" y="888.0078"/><text fill="#000000" font-family="sans-serif" font-size="14" lengthAdjust="spacing" textLength="111" x="934.5" y="895.2363">alcance_extra: int</text><line style="stroke:#181818;stroke-width:0.5;" x1="915.5" x2="1100.5" y1="902.3125" y2="902.3125"/></g><!--class Arma--><g id="elem_Arma"><rect codeLine="55" fill="#F1F1F1" height="136.0469" id="Arma" rx="2.5" ry="2.5" style="stroke:#181818;stroke-width:0.5;" width="131" x="864.5" y="1005.6094"/><ellipse cx="909.25" cy="1021.6094" fill="#ADD1B2" rx="11" ry="11" style="stroke:#181818;stroke-width:1.0;"/><path d="M912.0156,1017.4844 Q912.1719,1017.2656 912.3594,1017.1563 Q912.5469,1017.0469 912.7656,1017.0469 Q913.1406,1017.0469 913.375,1017.3125 Q913.6094,1017.5625 913.6094,1018.1719 L913.6094,1019.625 Q913.6094,1020.2344 913.375,1020.5 Q913.1406,1020.7656 912.7656,1020.7656 Q912.4219,1020.7656 912.2188,1020.5625 Q912.0156,1020.375 911.9063,1019.8594 Q911.8594,1019.5 911.6719,1019.3125 Q911.3438,1018.9375 910.7344,1018.7188 Q910.125,1018.5 909.5,1018.5 Q908.7344,1018.5 908.0938,1018.8281 Q907.4688,1019.1563 906.9688,1019.9063 Q906.4844,1020.6563 906.4844,1021.6875 L906.4844,1022.7813 Q906.4844,1024.0156 907.375,1024.8438 Q908.2656,1025.6563 909.8594,1025.6563 Q910.7969,1025.6563 911.4531,1025.4063 Q911.8438,1025.25 912.2656,1024.8125 Q912.5313,1024.5469 912.6719,1024.4688 Q912.8281,1024.3906 913.0313,1024.3906 Q913.3594,1024.3906 913.6094,1024.6563 Q913.875,1024.9063 913.875,1025.25 Q913.875,1025.5938 913.5313,1026 Q913.0313,1026.5781 912.2344,1026.9063 Q911.1563,1027.3594 909.8594,1027.3594 Q908.3438,1027.3594 907.1406,1026.7344 Q906.1563,1026.2344 905.4688,1025.1719 Q904.7813,1024.0938 904.7813,1022.8125 L904.7813,1021.6563 Q904.7813,1020.3281 905.3906,1019.1875 Q906.0156,1018.0313 907.1094,1017.4219 Q908.2031,1016.7969 909.4375,1016.7969 Q910.1719,1016.7969 910.8125,1016.9688 Q911.4688,1017.125 912.0156,1017.4844 Z " fill="#000000"/><text fill="#000000" font-family="sans-serif" font-size="14" lengthAdjust="spacing" textLength="33" x="929.75" y="1027.3379">Arma</text><line style="stroke:#181818;stroke-width:0.5;" x1="865.5" x2="994.5" y1="1037.6094" y2="1037.6094"/><rect fill="none" height="6" style="stroke:#C82930;stroke-width:1.0;" width="6" x="872.5" y="1048.9141"/><text fill="#000000" font-family="sans-serif" font-size="14" lengthAdjust="spacing" textLength="94" x="884.5" y="1056.1426">da&#241;o_base: int</text><rect fill="none" height="6" style="stroke:#C82930;stroke-width:1.0;" width="6" x="872.5" y="1066.5234"/><text fill="#000000" font-family="sans-serif" font-size="14" lengthAdjust="spacing" textLength="94" x="884.5" y="1073.752">cooldown: float</text><rect fill="none" height="6" style="stroke:#C82930;stroke-width:1.0;" width="6" x="872.5" y="1084.1328"/><text fill="#000000" font-family="sans-serif" font-size="14" lengthAdjust="spacing" textLength="79" x="884.5" y="1091.3613">espera: float</text><line style="stroke:#181818;stroke-width:0.5;" x1="865.5" x2="994.5" y1="1098.4375" y2="1098.4375"/><ellipse cx="875.5" cy="1112.7422" fill="#84BE84" rx="3" ry="3" style="stroke:#038048;stroke-width:1.0;"/><text fill="#000000" font-family="sans-serif" font-size="14" lengthAdjust="spacing" textLength="72" x="884.5" y="1116.9707">usar(): void</text><ellipse cx="875.5" cy="1130.3516" fill="#84BE84" rx="3" ry="3" style="stroke:#038048;stroke-width:1.0;"/><text fill="#000000" font-family="sans-serif" font-size="14" lengthAdjust="spacing" textLength="105" x="884.5" y="1134.5801">esta_listo(): bool</text></g><!--class Armadura--><g id="elem_Armadura"><rect codeLine="63" fill="#F1F1F1" height="65.6094" id="Armadura" rx="2.5" ry="2.5" style="stroke:#181818;stroke-width:0.5;" width="110" x="1031" y="1040.6094"/><ellipse cx="1053.2" cy="1056.6094" fill="#ADD1B2" rx="11" ry="11" style="stroke:#181818;stroke-width:1.0;"/><path d="M1055.9656,1052.4844 Q1056.1219,1052.2656 1056.3094,1052.1563 Q1056.4969,1052.0469 1056.7156,1052.0469 Q1057.0906,1052.0469 1057.325,1052.3125 Q1057.5594,1052.5625 1057.5594,1053.1719 L1057.5594,1054.625 Q1057.5594,1055.2344 1057.325,1055.5 Q1057.0906,1055.7656 1056.7156,1055.7656 Q1056.3719,1055.7656 1056.1688,1055.5625 Q1055.9656,1055.375 1055.8563,1054.8594 Q1055.8094,1054.5 1055.6219,1054.3125 Q1055.2938,1053.9375 1054.6844,1053.7188 Q1054.075,1053.5 1053.45,1053.5 Q1052.6844,1053.5 1052.0438,1053.8281 Q1051.4188,1054.1563 1050.9188,1054.9063 Q1050.4344,1055.6563 1050.4344,1056.6875 L1050.4344,1057.7813 Q1050.4344,1059.0156 1051.325,1059.8438 Q1052.2156,1060.6563 1053.8094,1060.6563 Q1054.7469,1060.6563 1055.4031,1060.4063 Q1055.7938,1060.25 1056.2156,1059.8125 Q1056.4813,1059.5469 1056.6219,1059.4688 Q1056.7781,1059.3906 1056.9813,1059.3906 Q1057.3094,1059.3906 1057.5594,1059.6563 Q1057.825,1059.9063 1057.825,1060.25 Q1057.825,1060.5938 1057.4813,1061 Q1056.9813,1061.5781 1056.1844,1061.9063 Q1055.1063,1062.3594 1053.8094,1062.3594 Q1052.2938,1062.3594 1051.0906,1061.7344 Q1050.1063,1061.2344 1049.4188,1060.1719 Q1048.7313,1059.0938 1048.7313,1057.8125 L1048.7313,1056.6563 Q1048.7313,1055.3281 1049.3406,1054.1875 Q1049.9656,1053.0313 1051.0594,1052.4219 Q1052.1531,1051.7969 1053.3875,1051.7969 Q1054.1219,1051.7969 1054.7625,1051.9688 Q1055.4188,1052.125 1055.9656,1052.4844 Z " fill="#000000"/><text fill="#000000" font-family="sans-serif" font-size="14" lengthAdjust="spacing" textLength="62" x="1068.8" y="1062.3379">Armadura</text><line style="stroke:#181818;stroke-width:0.5;" x1="1032" x2="1140" y1="1072.6094" y2="1072.6094"/><rect fill="none" height="6" style="stroke:#C82930;stroke-width:1.0;" width="6" x="1039" y="1083.9141"/><text fill="#000000" font-family="sans-serif" font-size="14" lengthAdjust="spacing" textLength="84" x="1051" y="1091.1426">slot: TipoItem</text><line style="stroke:#181818;stroke-width:0.5;" x1="1032" x2="1140" y1="1098.2188" y2="1098.2188"/></g><!--class Hechizo--><g id="elem_Hechizo"><rect codeLine="67" fill="#F1F1F1" height="83.2188" id="Hechizo" rx="2.5" ry="2.5" style="stroke:#181818;stroke-width:0.5;" width="135" x="744.5" y="748.1094"/><ellipse cx="783.8" cy="764.1094" fill="#ADD1B2" rx="11" ry="11" style="stroke:#181818;stroke-width:1.0;"/><path d="M786.5656,759.9844 Q786.7219,759.7656 786.9094,759.6563 Q787.0969,759.5469 787.3156,759.5469 Q787.6906,759.5469 787.925,759.8125 Q788.1594,760.0625 788.1594,760.6719 L788.1594,762.125 Q788.1594,762.7344 787.925,763 Q787.6906,763.2656 787.3156,763.2656 Q786.9719,763.2656 786.7688,763.0625 Q786.5656,762.875 786.4563,762.3594 Q786.4094,762 786.2219,761.8125 Q785.8938,761.4375 785.2844,761.2188 Q784.675,761 784.05,761 Q783.2844,761 782.6438,761.3281 Q782.0188,761.6563 781.5188,762.4063 Q781.0344,763.1563 781.0344,764.1875 L781.0344,765.2813 Q781.0344,766.5156 781.925,767.3438 Q782.8156,768.1563 784.4094,768.1563 Q785.3469,768.1563 786.0031,767.9063 Q786.3938,767.75 786.8156,767.3125 Q787.0813,767.0469 787.2219,766.9688 Q787.3781,766.8906 787.5813,766.8906 Q787.9094,766.8906 788.1594,767.1563 Q788.425,767.4063 788.425,767.75 Q788.425,768.0938 788.0813,768.5 Q787.5813,769.0781 786.7844,769.4063 Q785.7063,769.8594 784.4094,769.8594 Q782.8938,769.8594 781.6906,769.2344 Q780.7063,768.7344 780.0188,767.6719 Q779.3313,766.5938 779.3313,765.3125 L779.3313,764.1563 Q779.3313,762.8281 779.9406,761.6875 Q780.5656,760.5313 781.6594,759.9219 Q782.7531,759.2969 783.9875,759.2969 Q784.7219,759.2969 785.3625,759.4688 Q786.0188,759.625 786.5656,759.9844 Z " fill="#000000"/><text fill="#000000" font-family="sans-serif" font-size="14" lengthAdjust="spacing" textLength="49" x="803.2" y="769.8379">Hechizo</text><line style="stroke:#181818;stroke-width:0.5;" x1="745.5" x2="878.5" y1="780.1094" y2="780.1094"/><rect fill="none" height="6" style="stroke:#C82930;stroke-width:1.0;" width="6" x="752.5" y="791.4141"/><text fill="#000000" font-family="sans-serif" font-size="14" lengthAdjust="spacing" textLength="109" x="764.5" y="798.6426">objetivo: Objetivo</text><line style="stroke:#181818;stroke-width:0.5;" x1="745.5" x2="878.5" y1="805.7188" y2="805.7188"/><ellipse cx="755.5" cy="820.0234" fill="#84BE84" rx="3" ry="3" style="stroke:#038048;stroke-width:1.0;"/><text fill="#000000" font-family="sans-serif" font-size="14" lengthAdjust="spacing" textLength="72" x="764.5" y="824.252">usar(): void</text></g><!--class Objetivo--><g id="elem_Objetivo"><rect codeLine="72" fill="#F1F1F1" height="118.4375" id="Objetivo" rx="2.5" ry="2.5" style="stroke:#181818;stroke-width:0.5;" width="271" x="287.5" y="1014.6094"/><ellipse cx="392.75" cy="1030.6094" fill="#ADD1B2" rx="11" ry="11" style="stroke:#181818;stroke-width:1.0;"/><path d="M395.5156,1026.4844 Q395.6719,1026.2656 395.8594,1026.1563 Q396.0469,1026.0469 396.2656,1026.0469 Q396.6406,1026.0469 396.875,1026.3125 Q397.1094,1026.5625 397.1094,1027.1719 L397.1094,1028.625 Q397.1094,1029.2344 396.875,1029.5 Q396.6406,1029.7656 396.2656,1029.7656 Q395.9219,1029.7656 395.7188,1029.5625 Q395.5156,1029.375 395.4063,1028.8594 Q395.3594,1028.5 395.1719,1028.3125 Q394.8438,1027.9375 394.2344,1027.7188 Q393.625,1027.5 393,1027.5 Q392.2344,1027.5 391.5938,1027.8281 Q390.9688,1028.1563 390.4688,1028.9063 Q389.9844,1029.6563 389.9844,1030.6875 L389.9844,1031.7813 Q389.9844,1033.0156 390.875,1033.8438 Q391.7656,1034.6563 393.3594,1034.6563 Q394.2969,1034.6563 394.9531,1034.4063 Q395.3438,1034.25 395.7656,1033.8125 Q396.0313,1033.5469 396.1719,1033.4688 Q396.3281,1033.3906 396.5313,1033.3906 Q396.8594,1033.3906 397.1094,1033.6563 Q397.375,1033.9063 397.375,1034.25 Q397.375,1034.5938 397.0313,1035 Q396.5313,1035.5781 395.7344,1035.9063 Q394.6563,1036.3594 393.3594,1036.3594 Q391.8438,1036.3594 390.6406,1035.7344 Q389.6563,1035.2344 388.9688,1034.1719 Q388.2813,1033.0938 388.2813,1031.8125 L388.2813,1030.6563 Q388.2813,1029.3281 388.8906,1028.1875 Q389.5156,1027.0313 390.6094,1026.4219 Q391.7031,1025.7969 392.9375,1025.7969 Q393.6719,1025.7969 394.3125,1025.9688 Q394.9688,1026.125 395.5156,1026.4844 Z " fill="#000000"/><text fill="#000000" font-family="sans-serif" font-size="14" lengthAdjust="spacing" textLength="52" x="413.25" y="1036.3379">Objetivo</text><line style="stroke:#181818;stroke-width:0.5;" x1="288.5" x2="557.5" y1="1046.6094" y2="1046.6094"/><line style="stroke:#181818;stroke-width:0.5;" x1="288.5" x2="557.5" y1="1054.6094" y2="1054.6094"/><ellipse cx="298.5" cy="1068.9141" fill="#84BE84" rx="3" ry="3" style="stroke:#038048;stroke-width:1.0;"/><text fill="#000000" font-family="sans-serif" font-size="14" lengthAdjust="spacing" textLength="245" x="307.5" y="1073.1426">agregar_personaje(p: Personaje): void</text><ellipse cx="298.5" cy="1086.5234" fill="#84BE84" rx="3" ry="3" style="stroke:#038048;stroke-width:1.0;"/><text fill="#000000" font-family="sans-serif" font-size="14" lengthAdjust="spacing" textLength="243" x="307.5" y="1090.752">agregar_obstaculo(o: Obstaculo): void</text><ellipse cx="298.5" cy="1104.1328" fill="#84BE84" rx="3" ry="3" style="stroke:#038048;stroke-width:1.0;"/><text fill="#000000" font-family="sans-serif" font-size="14" lengthAdjust="spacing" textLength="245" x="307.5" y="1108.3613">agregar_posicion(x: float, y: float): void</text><ellipse cx="298.5" cy="1121.7422" fill="#84BE84" rx="3" ry="3" style="stroke:#038048;stroke-width:1.0;"/><text fill="#000000" font-family="sans-serif" font-size="14" lengthAdjust="spacing" textLength="199" x="307.5" y="1125.9707">obtener_posicion(): (float, float)</text></g><!--class Mele--><g id="elem_Mele"><rect codeLine="79" fill="#F1F1F1" height="48" id="Mele" rx="2.5" ry="2.5" style="stroke:#181818;stroke-width:0.5;" width="62" x="796" y="1201.6094"/><ellipse cx="811" cy="1217.6094" fill="#ADD1B2" rx="11" ry="11" style="stroke:#181818;stroke-width:1.0;"/><path d="M813.7656,1213.4844 Q813.9219,1213.2656 814.1094,1213.1563 Q814.2969,1213.0469 814.5156,1213.0469 Q814.8906,1213.0469 815.125,1213.3125 Q815.3594,1213.5625 815.3594,1214.1719 L815.3594,1215.625 Q815.3594,1216.2344 815.125,1216.5 Q814.8906,1216.7656 814.5156,1216.7656 Q814.1719,1216.7656 813.9688,1216.5625 Q813.7656,1216.375 813.6563,1215.8594 Q813.6094,1215.5 813.4219,1215.3125 Q813.0938,1214.9375 812.4844,1214.7188 Q811.875,1214.5 811.25,1214.5 Q810.4844,1214.5 809.8438,1214.8281 Q809.2188,1215.1563 808.7188,1215.9063 Q808.2344,1216.6563 808.2344,1217.6875 L808.2344,1218.7813 Q808.2344,1220.0156 809.125,1220.8438 Q810.0156,1221.6563 811.6094,1221.6563 Q812.5469,1221.6563 813.2031,1221.4063 Q813.5938,1221.25 814.0156,1220.8125 Q814.2813,1220.5469 814.4219,1220.4688 Q814.5781,1220.3906 814.7813,1220.3906 Q815.1094,1220.3906 815.3594,1220.6563 Q815.625,1220.9063 815.625,1221.25 Q815.625,1221.5938 815.2813,1222 Q814.7813,1222.5781 813.9844,1222.9063 Q812.9063,1223.3594 811.6094,1223.3594 Q810.0938,1223.3594 808.8906,1222.7344 Q807.9063,1222.2344 807.2188,1221.1719 Q806.5313,1220.0938 806.5313,1218.8125 L806.5313,1217.6563 Q806.5313,1216.3281 807.1406,1215.1875 Q807.7656,1214.0313 808.8594,1213.4219 Q809.9531,1212.7969 811.1875,1212.7969 Q811.9219,1212.7969 812.5625,1212.9688 Q813.2188,1213.125 813.7656,1213.4844 Z " fill="#000000"/><text fill="#000000" font-family="sans-serif" font-size="14" lengthAdjust="spacing" textLength="30" x="825" y="1223.3379">Mele</text><line style="stroke:#181818;stroke-width:0.5;" x1="797" x2="857" y1="1233.6094" y2="1233.6094"/><line style="stroke:#181818;stroke-width:0.5;" x1="797" x2="857" y1="1241.6094" y2="1241.6094"/></g><!--class Rango--><g id="elem_Rango"><rect codeLine="80" fill="#F1F1F1" height="48" id="Rango" rx="2.5" ry="2.5" style="stroke:#181818;stroke-width:0.5;" width="74" x="893" y="1201.6094"/><ellipse cx="908" cy="1217.6094" fill="#ADD1B2" rx="11" ry="11" style="stroke:#181818;stroke-width:1.0;"/><path d="M910.7656,1213.4844 Q910.9219,1213.2656 911.1094,1213.1563 Q911.2969,1213.0469 911.5156,1213.0469 Q911.8906,1213.0469 912.125,1213.3125 Q912.3594,1213.5625 912.3594,1214.1719 L912.3594,1215.625 Q912.3594,1216.2344 912.125,1216.5 Q911.8906,1216.7656 911.5156,1216.7656 Q911.1719,1216.7656 910.9688,1216.5625 Q910.7656,1216.375 910.6563,1215.8594 Q910.6094,1215.5 910.4219,1215.3125 Q910.0938,1214.9375 909.4844,1214.7188 Q908.875,1214.5 908.25,1214.5 Q907.4844,1214.5 906.8438,1214.8281 Q906.2188,1215.1563 905.7188,1215.9063 Q905.2344,1216.6563 905.2344,1217.6875 L905.2344,1218.7813 Q905.2344,1220.0156 906.125,1220.8438 Q907.0156,1221.6563 908.6094,1221.6563 Q909.5469,1221.6563 910.2031,1221.4063 Q910.5938,1221.25 911.0156,1220.8125 Q911.2813,1220.5469 911.4219,1220.4688 Q911.5781,1220.3906 911.7813,1220.3906 Q912.1094,1220.3906 912.3594,1220.6563 Q912.625,1220.9063 912.625,1221.25 Q912.625,1221.5938 912.2813,1222 Q911.7813,1222.5781 910.9844,1222.9063 Q909.9063,1223.3594 908.6094,1223.3594 Q907.0938,1223.3594 905.8906,1222.7344 Q904.9063,1222.2344 904.2188,1221.1719 Q903.5313,1220.0938 903.5313,1218.8125 L903.5313,1217.6563 Q903.5313,1216.3281 904.1406,1215.1875 Q904.7656,1214.0313 905.8594,1213.4219 Q906.9531,1212.7969 908.1875,1212.7969 Q908.9219,1212.7969 909.5625,1212.9688 Q910.2188,1213.125 910.7656,1213.4844 Z " fill="#000000"/><text fill="#000000" font-family="sans-serif" font-size="14" lengthAdjust="spacing" textLength="42" x="922" y="1223.3379">Rango</text><line style="stroke:#181818;stroke-width:0.5;" x1="894" x2="966" y1="1233.6094" y2="1233.6094"/><line style="stroke:#181818;stroke-width:0.5;" x1="894" x2="966" y1="1241.6094" y2="1241.6094"/></g><!--class Area--><g id="elem_Area"><rect codeLine="81" fill="#F1F1F1" height="48" id="Area" rx="2.5" ry="2.5" style="stroke:#181818;stroke-width:0.5;" width="62" x="1002" y="1201.6094"/><ellipse cx="1017" cy="1217.6094" fill="#ADD1B2" rx="11" ry="11" style="stroke:#181818;stroke-width:1.0;"/><path d="M1019.7656,1213.4844 Q1019.9219,1213.2656 1020.1094,1213.1563 Q1020.2969,1213.0469 1020.5156,1213.0469 Q1020.8906,1213.0469 1021.125,1213.3125 Q1021.3594,1213.5625 1021.3594,1214.1719 L1021.3594,1215.625 Q1021.3594,1216.2344 1021.125,1216.5 Q1020.8906,1216.7656 1020.5156,1216.7656 Q1020.1719,1216.7656 1019.9688,1216.5625 Q1019.7656,1216.375 1019.6563,1215.8594 Q1019.6094,1215.5 1019.4219,1215.3125 Q1019.0938,1214.9375 1018.4844,1214.7188 Q1017.875,1214.5 1017.25,1214.5 Q1016.4844,1214.5 1015.8438,1214.8281 Q1015.2188,1215.1563 1014.7188,1215.9063 Q1014.2344,1216.6563 1014.2344,1217.6875 L1014.2344,1218.7813 Q1014.2344,1220.0156 1015.125,1220.8438 Q1016.0156,1221.6563 1017.6094,1221.6563 Q1018.5469,1221.6563 1019.2031,1221.4063 Q1019.5938,1221.25 1020.0156,1220.8125 Q1020.2813,1220.5469 1020.4219,1220.4688 Q1020.5781,1220.3906 1020.7813,1220.3906 Q1021.1094,1220.3906 1021.3594,1220.6563 Q1021.625,1220.9063 1021.625,1221.25 Q1021.625,1221.5938 1021.2813,1222 Q1020.7813,1222.5781 1019.9844,1222.9063 Q1018.9063,1223.3594 1017.6094,1223.3594 Q1016.0938,1223.3594 1014.8906,1222.7344 Q1013.9063,1222.2344 1013.2188,1221.1719 Q1012.5313,1220.0938 1012.5313,1218.8125 L1012.5313,1217.6563 Q1012.5313,1216.3281 1013.1406,1215.1875 Q1013.7656,1214.0313 1014.8594,1213.4219 Q1015.9531,1212.7969 1017.1875,1212.7969 Q1017.9219,1212.7969 1018.5625,1212.9688 Q1019.2188,1213.125 1019.7656,1213.4844 Z " fill="#000000"/><text fill="#000000" font-family="sans-serif" font-size="14" lengthAdjust="spacing" textLength="30" x="1031" y="1223.3379">Area</text><line style="stroke:#181818;stroke-width:0.5;" x1="1003" x2="1063" y1="1233.6094" y2="1233.6094"/><line style="stroke:#181818;stroke-width:0.5;" x1="1003" x2="1063" y1="1241.6094" y2="1241.6094"/></g><!--class Material--><g id="elem_Material"><rect codeLine="83" fill="#F1F1F1" height="48" id="Material" rx="2.5" ry="2.5" style="stroke:#181818;stroke-width:0.5;" width="82" x="1137" y="765.6094"/><ellipse cx="1152" cy="781.6094" fill="#ADD1B2" rx="11" ry="11" style="stroke:#181818;stroke-width:1.0;"/><path d="M1154.7656,777.4844 Q1154.9219,777.2656 1155.1094,777.1563 Q1155.2969,777.0469 1155.5156,777.0469 Q1155.8906,777.0469 1156.125,777.3125 Q1156.3594,777.5625 1156.3594,778.1719 L1156.3594,779.625 Q1156.3594,780.2344 1156.125,780.5 Q1155.8906,780.7656 1155.5156,780.7656 Q1155.1719,780.7656 1154.9688,780.5625 Q1154.7656,780.375 1154.6563,779.8594 Q1154.6094,779.5 1154.4219,779.3125 Q1154.0938,778.9375 1153.4844,778.7188 Q1152.875,778.5 1152.25,778.5 Q1151.4844,778.5 1150.8438,778.8281 Q1150.2188,779.1563 1149.7188,779.9063 Q1149.2344,780.6563 1149.2344,781.6875 L1149.2344,782.7813 Q1149.2344,784.0156 1150.125,784.8438 Q1151.0156,785.6563 1152.6094,785.6563 Q1153.5469,785.6563 1154.2031,785.4063 Q1154.5938,785.25 1155.0156,784.8125 Q1155.2813,784.5469 1155.4219,784.4688 Q1155.5781,784.3906 1155.7813,784.3906 Q1156.1094,784.3906 1156.3594,784.6563 Q1156.625,784.9063 1156.625,785.25 Q1156.625,785.5938 1156.2813,786 Q1155.7813,786.5781 1154.9844,786.9063 Q1153.9063,787.3594 1152.6094,787.3594 Q1151.0938,787.3594 1149.8906,786.7344 Q1148.9063,786.2344 1148.2188,785.1719 Q1147.5313,784.0938 1147.5313,782.8125 L1147.5313,781.6563 Q1147.5313,780.3281 1148.1406,779.1875 Q1148.7656,778.0313 1149.8594,777.4219 Q1150.9531,776.7969 1152.1875,776.7969 Q1152.9219,776.7969 1153.5625,776.9688 Q1154.2188,777.125 1154.7656,777.4844 Z " fill="#000000"/><text fill="#000000" font-family="sans-serif" font-size="14" lengthAdjust="spacing" textLength="50" x="1166" y="787.3379">Material</text><line style="stroke:#181818;stroke-width:0.5;" x1="1138" x2="1218" y1="797.6094" y2="797.6094"/><line style="stroke:#181818;stroke-width:0.5;" x1="1138" x2="1218" y1="805.6094" y2="805.6094"/></g><!--class Contenedor--><g id="elem_Contenedor"><rect codeLine="86" fill="#F1F1F1" height="100.8281" id="Contenedor" rx="2.5" ry="2.5" style="stroke:#181818;stroke-width:0.5;" width="313" x="1488.5" y="206.6094"/><ellipse cx="1603.25" cy="222.6094" fill="#ADD1B2" rx="11" ry="11" style="stroke:#181818;stroke-width:1.0;"/><path d="M1606.0156,218.4844 Q1606.1719,218.2656 1606.3594,218.1563 Q1606.5469,218.0469 1606.7656,218.0469 Q1607.1406,218.0469 1607.375,218.3125 Q1607.6094,218.5625 1607.6094,219.1719 L1607.6094,220.625 Q1607.6094,221.2344 1607.375,221.5 Q1607.1406,221.7656 1606.7656,221.7656 Q1606.4219,221.7656 1606.2188,221.5625 Q1606.0156,221.375 1605.9063,220.8594 Q1605.8594,220.5 1605.6719,220.3125 Q1605.3438,219.9375 1604.7344,219.7188 Q1604.125,219.5 1603.5,219.5 Q1602.7344,219.5 1602.0938,219.8281 Q1601.4688,220.1563 1600.9688,220.9063 Q1600.4844,221.6563 1600.4844,222.6875 L1600.4844,223.7813 Q1600.4844,225.0156 1601.375,225.8438 Q1602.2656,226.6563 1603.8594,226.6563 Q1604.7969,226.6563 1605.4531,226.4063 Q1605.8438,226.25 1606.2656,225.8125 Q1606.5313,225.5469 1606.6719,225.4688 Q1606.8281,225.3906 1607.0313,225.3906 Q1607.3594,225.3906 1607.6094,225.6563 Q1607.875,225.9063 1607.875,226.25 Q1607.875,226.5938 1607.5313,227 Q1607.0313,227.5781 1606.2344,227.9063 Q1605.1563,228.3594 1603.8594,228.3594 Q1602.3438,228.3594 1601.1406,227.7344 Q1600.1563,227.2344 1599.4688,226.1719 Q1598.7813,225.0938 1598.7813,223.8125 L1598.7813,222.6563 Q1598.7813,221.3281 1599.3906,220.1875 Q1600.0156,219.0313 1601.1094,218.4219 Q1602.2031,217.7969 1603.4375,217.7969 Q1604.1719,217.7969 1604.8125,217.9688 Q1605.4688,218.125 1606.0156,218.4844 Z " fill="#000000"/><text fill="#000000" font-family="sans-serif" font-size="14" lengthAdjust="spacing" textLength="75" x="1623.75" y="228.3379">Contenedor</text><line style="stroke:#181818;stroke-width:0.5;" x1="1489.5" x2="1800.5" y1="238.6094" y2="238.6094"/><rect fill="none" height="6" style="stroke:#C82930;stroke-width:1.0;" width="6" x="1496.5" y="249.9141"/><text fill="#000000" font-family="sans-serif" font-size="14" lengthAdjust="spacing" textLength="75" x="1508.5" y="257.1426">items: Item[]</text><line style="stroke:#181818;stroke-width:0.5;" x1="1489.5" x2="1800.5" y1="264.2188" y2="264.2188"/><ellipse cx="1499.5" cy="278.5234" fill="#84BE84" rx="3" ry="3" style="stroke:#038048;stroke-width:1.0;"/><text fill="#000000" font-family="sans-serif" font-size="14" lengthAdjust="spacing" textLength="287" x="1508.5" y="282.752">agregar(item: Item, fila: int, columna: int): void</text><ellipse cx="1499.5" cy="296.1328" fill="#84BE84" rx="3" ry="3" style="stroke:#038048;stroke-width:1.0;"/><text fill="#000000" font-family="sans-serif" font-size="14" lengthAdjust="spacing" textLength="205" x="1508.5" y="300.3613">quitar(fila: int, columna: int): Item</text></g><!--class Inventario--><g id="elem_Inventario"><rect codeLine="92" fill="#F1F1F1" height="65.6094" id="Inventario" rx="2.5" ry="2.5" style="stroke:#181818;stroke-width:0.5;" width="125" x="1328.5" y="437.6094"/><ellipse cx="1357.45" cy="453.6094" fill="#ADD1B2" rx="11" ry="11" style="stroke:#181818;stroke-width:1.0;"/><path d="M1360.2156,449.4844 Q1360.3719,449.2656 1360.5594,449.1563 Q1360.7469,449.0469 1360.9656,449.0469 Q1361.3406,449.0469 1361.575,449.3125 Q1361.8094,449.5625 1361.8094,450.1719 L1361.8094,451.625 Q1361.8094,452.2344 1361.575,452.5 Q1361.3406,452.7656 1360.9656,452.7656 Q1360.6219,452.7656 1360.4188,452.5625 Q1360.2156,452.375 1360.1063,451.8594 Q1360.0594,451.5 1359.8719,451.3125 Q1359.5438,450.9375 1358.9344,450.7188 Q1358.325,450.5 1357.7,450.5 Q1356.9344,450.5 1356.2938,450.8281 Q1355.6688,451.1563 1355.1688,451.9063 Q1354.6844,452.6563 1354.6844,453.6875 L1354.6844,454.7813 Q1354.6844,456.0156 1355.575,456.8438 Q1356.4656,457.6563 1358.0594,457.6563 Q1358.9969,457.6563 1359.6531,457.4063 Q1360.0438,457.25 1360.4656,456.8125 Q1360.7313,456.5469 1360.8719,456.4688 Q1361.0281,456.3906 1361.2313,456.3906 Q1361.5594,456.3906 1361.8094,456.6563 Q1362.075,456.9063 1362.075,457.25 Q1362.075,457.5938 1361.7313,458 Q1361.2313,458.5781 1360.4344,458.9063 Q1359.3563,459.3594 1358.0594,459.3594 Q1356.5438,459.3594 1355.3406,458.7344 Q1354.3563,458.2344 1353.6688,457.1719 Q1352.9813,456.0938 1352.9813,454.8125 L1352.9813,453.6563 Q1352.9813,452.3281 1353.5906,451.1875 Q1354.2156,450.0313 1355.3094,449.4219 Q1356.4031,448.7969 1357.6375,448.7969 Q1358.3719,448.7969 1359.0125,448.9688 Q1359.6688,449.125 1360.2156,449.4844 Z " fill="#000000"/><text fill="#000000" font-family="sans-serif" font-size="14" lengthAdjust="spacing" textLength="62" x="1374.55" y="459.3379">Inventario</text><line style="stroke:#181818;stroke-width:0.5;" x1="1329.5" x2="1452.5" y1="469.6094" y2="469.6094"/><rect fill="none" height="6" style="stroke:#C82930;stroke-width:1.0;" width="6" x="1336.5" y="480.9141"/><text fill="#000000" font-family="sans-serif" font-size="14" lengthAdjust="spacing" textLength="99" x="1348.5" y="488.1426">items: Item[5][5]</text><line style="stroke:#181818;stroke-width:0.5;" x1="1329.5" x2="1452.5" y1="495.2188" y2="495.2188"/></g><!--class Forja--><g id="elem_Forja"><rect codeLine="96" fill="#F1F1F1" height="118.4375" id="Forja" rx="2.5" ry="2.5" style="stroke:#181818;stroke-width:0.5;" width="313" x="1488.5" y="411.6094"/><ellipse cx="1624.25" cy="427.6094" fill="#ADD1B2" rx="11" ry="11" style="stroke:#181818;stroke-width:1.0;"/><path d="M1627.0156,423.4844 Q1627.1719,423.2656 1627.3594,423.1563 Q1627.5469,423.0469 1627.7656,423.0469 Q1628.1406,423.0469 1628.375,423.3125 Q1628.6094,423.5625 1628.6094,424.1719 L1628.6094,425.625 Q1628.6094,426.2344 1628.375,426.5 Q1628.1406,426.7656 1627.7656,426.7656 Q1627.4219,426.7656 1627.2188,426.5625 Q1627.0156,426.375 1626.9063,425.8594 Q1626.8594,425.5 1626.6719,425.3125 Q1626.3438,424.9375 1625.7344,424.7188 Q1625.125,424.5 1624.5,424.5 Q1623.7344,424.5 1623.0938,424.8281 Q1622.4688,425.1563 1621.9688,425.9063 Q1621.4844,426.6563 1621.4844,427.6875 L1621.4844,428.7813 Q1621.4844,430.0156 1622.375,430.8438 Q1623.2656,431.6563 1624.8594,431.6563 Q1625.7969,431.6563 1626.4531,431.4063 Q1626.8438,431.25 1627.2656,430.8125 Q1627.5313,430.5469 1627.6719,430.4688 Q1627.8281,430.3906 1628.0313,430.3906 Q1628.3594,430.3906 1628.6094,430.6563 Q1628.875,430.9063 1628.875,431.25 Q1628.875,431.5938 1628.5313,432 Q1628.0313,432.5781 1627.2344,432.9063 Q1626.1563,433.3594 1624.8594,433.3594 Q1623.3438,433.3594 1622.1406,432.7344 Q1621.1563,432.2344 1620.4688,431.1719 Q1619.7813,430.0938 1619.7813,428.8125 L1619.7813,427.6563 Q1619.7813,426.3281 1620.3906,425.1875 Q1621.0156,424.0313 1622.1094,423.4219 Q1623.2031,422.7969 1624.4375,422.7969 Q1625.1719,422.7969 1625.8125,422.9688 Q1626.4688,423.125 1627.0156,423.4844 Z " fill="#000000"/><text fill="#000000" font-family="sans-serif" font-size="14" lengthAdjust="spacing" textLength="33" x="1644.75" y="433.3379">Forja</text><line style="stroke:#181818;stroke-width:0.5;" x1="1489.5" x2="1800.5" y1="443.6094" y2="443.6094"/><rect fill="none" height="6" style="stroke:#C82930;stroke-width:1.0;" width="6" x="1496.5" y="454.9141"/><text fill="#000000" font-family="sans-serif" font-size="14" lengthAdjust="spacing" textLength="99" x="1508.5" y="462.1426">items: Item[1][3]</text><rect fill="none" height="6" style="stroke:#C82930;stroke-width:1.0;" width="6" x="1496.5" y="472.5234"/><text fill="#000000" font-family="sans-serif" font-size="14" lengthAdjust="spacing" textLength="108" x="1508.5" y="479.752">recetas: Receta[]</text><line style="stroke:#181818;stroke-width:0.5;" x1="1489.5" x2="1800.5" y1="486.8281" y2="486.8281"/><ellipse cx="1499.5" cy="501.1328" fill="#84BE84" rx="3" ry="3" style="stroke:#038048;stroke-width:1.0;"/><text fill="#000000" font-family="sans-serif" font-size="14" lengthAdjust="spacing" textLength="287" x="1508.5" y="505.3613">agregar(item: Item, fila: int, columna: int): void</text><ellipse cx="1499.5" cy="518.7422" fill="#84BE84" rx="3" ry="3" style="stroke:#038048;stroke-width:1.0;"/><text fill="#000000" font-family="sans-serif" font-size="14" lengthAdjust="spacing" textLength="205" x="1508.5" y="522.9707">quitar(fila: int, columna: int): Item</text></g><!--class Contenedor_Cofre--><g id="elem_Contenedor_Cofre"><rect codeLine="103" fill="#F1F1F1" height="65.6094" id="Contenedor_Cofre" rx="2.5" ry="2.5" style="stroke:#181818;stroke-width:0.5;" width="150" x="2185" y="437.6094"/><ellipse cx="2200" cy="453.6094" fill="#ADD1B2" rx="11" ry="11" style="stroke:#181818;stroke-width:1.0;"/><path d="M2202.7656,449.4844 Q2202.9219,449.2656 2203.1094,449.1563 Q2203.2969,449.0469 2203.5156,449.0469 Q2203.8906,449.0469 2204.125,449.3125 Q2204.3594,449.5625 2204.3594,450.1719 L2204.3594,451.625 Q2204.3594,452.2344 2204.125,452.5 Q2203.8906,452.7656 2203.5156,452.7656 Q2203.1719,452.7656 2202.9688,452.5625 Q2202.7656,452.375 2202.6563,451.8594 Q2202.6094,451.5 2202.4219,451.3125 Q2202.0938,450.9375 2201.4844,450.7188 Q2200.875,450.5 2200.25,450.5 Q2199.4844,450.5 2198.8438,450.8281 Q2198.2188,451.1563 2197.7188,451.9063 Q2197.2344,452.6563 2197.2344,453.6875 L2197.2344,454.7813 Q2197.2344,456.0156 2198.125,456.8438 Q2199.0156,457.6563 2200.6094,457.6563 Q2201.5469,457.6563 2202.2031,457.4063 Q2202.5938,457.25 2203.0156,456.8125 Q2203.2813,456.5469 2203.4219,456.4688 Q2203.5781,456.3906 2203.7813,456.3906 Q2204.1094,456.3906 2204.3594,456.6563 Q2204.625,456.9063 2204.625,457.25 Q2204.625,457.5938 2204.2813,458 Q2203.7813,458.5781 2202.9844,458.9063 Q2201.9063,459.3594 2200.6094,459.3594 Q2199.0938,459.3594 2197.8906,458.7344 Q2196.9063,458.2344 2196.2188,457.1719 Q2195.5313,456.0938 2195.5313,454.8125 L2195.5313,453.6563 Q2195.5313,452.3281 2196.1406,451.1875 Q2196.7656,450.0313 2197.8594,449.4219 Q2198.9531,448.7969 2200.1875,448.7969 Q2200.9219,448.7969 2201.5625,448.9688 Q2202.2188,449.125 2202.7656,449.4844 Z " fill="#000000"/><text fill="#000000" font-family="sans-serif" font-size="14" lengthAdjust="spacing" textLength="118" x="2214" y="459.3379">Contenedor_Cofre</text><line style="stroke:#181818;stroke-width:0.5;" x1="2186" x2="2334" y1="469.6094" y2="469.6094"/><rect fill="none" height="6" style="stroke:#C82930;stroke-width:1.0;" width="6" x="2193" y="480.9141"/><text fill="#000000" font-family="sans-serif" font-size="14" lengthAdjust="spacing" textLength="99" x="2205" y="488.1426">items: Item[1][5]</text><line style="stroke:#181818;stroke-width:0.5;" x1="2186" x2="2334" y1="495.2188" y2="495.2188"/></g><!--class Basurero--><g id="elem_Basurero"><rect codeLine="107" fill="#F1F1F1" height="83.2188" id="Basurero" rx="2.5" ry="2.5" style="stroke:#181818;stroke-width:0.5;" width="313" x="1836.5" y="429.1094"/><ellipse cx="1959.75" cy="445.1094" fill="#ADD1B2" rx="11" ry="11" style="stroke:#181818;stroke-width:1.0;"/><path d="M1962.5156,440.9844 Q1962.6719,440.7656 1962.8594,440.6563 Q1963.0469,440.5469 1963.2656,440.5469 Q1963.6406,440.5469 1963.875,440.8125 Q1964.1094,441.0625 1964.1094,441.6719 L1964.1094,443.125 Q1964.1094,443.7344 1963.875,444 Q1963.6406,444.2656 1963.2656,444.2656 Q1962.9219,444.2656 1962.7188,444.0625 Q1962.5156,443.875 1962.4063,443.3594 Q1962.3594,443 1962.1719,442.8125 Q1961.8438,442.4375 1961.2344,442.2188 Q1960.625,442 1960,442 Q1959.2344,442 1958.5938,442.3281 Q1957.9688,442.6563 1957.4688,443.4063 Q1956.9844,444.1563 1956.9844,445.1875 L1956.9844,446.2813 Q1956.9844,447.5156 1957.875,448.3438 Q1958.7656,449.1563 1960.3594,449.1563 Q1961.2969,449.1563 1961.9531,448.9063 Q1962.3438,448.75 1962.7656,448.3125 Q1963.0313,448.0469 1963.1719,447.9688 Q1963.3281,447.8906 1963.5313,447.8906 Q1963.8594,447.8906 1964.1094,448.1563 Q1964.375,448.4063 1964.375,448.75 Q1964.375,449.0938 1964.0313,449.5 Q1963.5313,450.0781 1962.7344,450.4063 Q1961.6563,450.8594 1960.3594,450.8594 Q1958.8438,450.8594 1957.6406,450.2344 Q1956.6563,449.7344 1955.9688,448.6719 Q1955.2813,447.5938 1955.2813,446.3125 L1955.2813,445.1563 Q1955.2813,443.8281 1955.8906,442.6875 Q1956.5156,441.5313 1957.6094,440.9219 Q1958.7031,440.2969 1959.9375,440.2969 Q1960.6719,440.2969 1961.3125,440.4688 Q1961.9688,440.625 1962.5156,440.9844 Z " fill="#000000"/><text fill="#000000" font-family="sans-serif" font-size="14" lengthAdjust="spacing" textLength="58" x="1980.25" y="450.8379">Basurero</text><line style="stroke:#181818;stroke-width:0.5;" x1="1837.5" x2="2148.5" y1="461.1094" y2="461.1094"/><rect fill="none" height="6" style="stroke:#C82930;stroke-width:1.0;" width="6" x="1844.5" y="472.4141"/><text fill="#000000" font-family="sans-serif" font-size="14" lengthAdjust="spacing" textLength="99" x="1856.5" y="479.6426">items: Item[1][1]</text><line style="stroke:#181818;stroke-width:0.5;" x1="1837.5" x2="2148.5" y1="486.7188" y2="486.7188"/><ellipse cx="1847.5" cy="501.0234" fill="#84BE84" rx="3" ry="3" style="stroke:#038048;stroke-width:1.0;"/><text fill="#000000" font-family="sans-serif" font-size="14" lengthAdjust="spacing" textLength="287" x="1856.5" y="505.252">agregar(item: Item, fila: int, columna: int): void</text></g><!--class Obstaculo--><g id="elem_Obstaculo"><rect codeLine="112" fill="#F1F1F1" height="48" id="Obstaculo" rx="2.5" ry="2.5" style="stroke:#181818;stroke-width:0.5;" width="96" x="2212" y="72.1094"/><ellipse cx="2227" cy="88.1094" fill="#ADD1B2" rx="11" ry="11" style="stroke:#181818;stroke-width:1.0;"/><path d="M2229.7656,83.9844 Q2229.9219,83.7656 2230.1094,83.6563 Q2230.2969,83.5469 2230.5156,83.5469 Q2230.8906,83.5469 2231.125,83.8125 Q2231.3594,84.0625 2231.3594,84.6719 L2231.3594,86.125 Q2231.3594,86.7344 2231.125,87 Q2230.8906,87.2656 2230.5156,87.2656 Q2230.1719,87.2656 2229.9688,87.0625 Q2229.7656,86.875 2229.6563,86.3594 Q2229.6094,86 2229.4219,85.8125 Q2229.0938,85.4375 2228.4844,85.2188 Q2227.875,85 2227.25,85 Q2226.4844,85 2225.8438,85.3281 Q2225.2188,85.6563 2224.7188,86.4063 Q2224.2344,87.1563 2224.2344,88.1875 L2224.2344,89.2813 Q2224.2344,90.5156 2225.125,91.3438 Q2226.0156,92.1563 2227.6094,92.1563 Q2228.5469,92.1563 2229.2031,91.9063 Q2229.5938,91.75 2230.0156,91.3125 Q2230.2813,91.0469 2230.4219,90.9688 Q2230.5781,90.8906 2230.7813,90.8906 Q2231.1094,90.8906 2231.3594,91.1563 Q2231.625,91.4063 2231.625,91.75 Q2231.625,92.0938 2231.2813,92.5 Q2230.7813,93.0781 2229.9844,93.4063 Q2228.9063,93.8594 2227.6094,93.8594 Q2226.0938,93.8594 2224.8906,93.2344 Q2223.9063,92.7344 2223.2188,91.6719 Q2222.5313,90.5938 2222.5313,89.3125 L2222.5313,88.1563 Q2222.5313,86.8281 2223.1406,85.6875 Q2223.7656,84.5313 2224.8594,83.9219 Q2225.9531,83.2969 2227.1875,83.2969 Q2227.9219,83.2969 2228.5625,83.4688 Q2229.2188,83.625 2229.7656,83.9844 Z " fill="#000000"/><text fill="#000000" font-family="sans-serif" font-size="14" lengthAdjust="spacing" textLength="64" x="2241" y="93.8379">Obstaculo</text><line style="stroke:#181818;stroke-width:0.5;" x1="2213" x2="2307" y1="104.1094" y2="104.1094"/><line style="stroke:#181818;stroke-width:0.5;" x1="2213" x2="2307" y1="112.1094" y2="112.1094"/></g><!--class Cofre--><g id="elem_Cofre"><rect codeLine="115" fill="#F1F1F1" height="65.6094" id="Cofre" rx="2.5" ry="2.5" style="stroke:#181818;stroke-width:0.5;" width="224" x="2148" y="224.1094"/><ellipse cx="2238.25" cy="240.1094" fill="#ADD1B2" rx="11" ry="11" style="stroke:#181818;stroke-width:1.0;"/><path d="M2241.0156,235.9844 Q2241.1719,235.7656 2241.3594,235.6563 Q2241.5469,235.5469 2241.7656,235.5469 Q2242.1406,235.5469 2242.375,235.8125 Q2242.6094,236.0625 2242.6094,236.6719 L2242.6094,238.125 Q2242.6094,238.7344 2242.375,239 Q2242.1406,239.2656 2241.7656,239.2656 Q2241.4219,239.2656 2241.2188,239.0625 Q2241.0156,238.875 2240.9063,238.3594 Q2240.8594,238 2240.6719,237.8125 Q2240.3438,237.4375 2239.7344,237.2188 Q2239.125,237 2238.5,237 Q2237.7344,237 2237.0938,237.3281 Q2236.4688,237.6563 2235.9688,238.4063 Q2235.4844,239.1563 2235.4844,240.1875 L2235.4844,241.2813 Q2235.4844,242.5156 2236.375,243.3438 Q2237.2656,244.1563 2238.8594,244.1563 Q2239.7969,244.1563 2240.4531,243.9063 Q2240.8438,243.75 2241.2656,243.3125 Q2241.5313,243.0469 2241.6719,242.9688 Q2241.8281,242.8906 2242.0313,242.8906 Q2242.3594,242.8906 2242.6094,243.1563 Q2242.875,243.4063 2242.875,243.75 Q2242.875,244.0938 2242.5313,244.5 Q2242.0313,245.0781 2241.2344,245.4063 Q2240.1563,245.8594 2238.8594,245.8594 Q2237.3438,245.8594 2236.1406,245.2344 Q2235.1563,244.7344 2234.4688,243.6719 Q2233.7813,242.5938 2233.7813,241.3125 L2233.7813,240.1563 Q2233.7813,238.8281 2234.3906,237.6875 Q2235.0156,236.5313 2236.1094,235.9219 Q2237.2031,235.2969 2238.4375,235.2969 Q2239.1719,235.2969 2239.8125,235.4688 Q2240.4688,235.625 2241.0156,235.9844 Z " fill="#000000"/><text fill="#000000" font-family="sans-serif" font-size="14" lengthAdjust="spacing" textLength="35" x="2258.75" y="245.8379">Cofre</text><line style="stroke:#181818;stroke-width:0.5;" x1="2149" x2="2371" y1="256.1094" y2="256.1094"/><rect fill="none" height="6" style="stroke:#C82930;stroke-width:1.0;" width="6" x="2156" y="267.4141"/><text fill="#000000" font-family="sans-serif" font-size="14" lengthAdjust="spacing" textLength="198" x="2168" y="274.6426">contenedor: Contenedor_Cofre</text><line style="stroke:#181818;stroke-width:0.5;" x1="2149" x2="2371" y1="281.7188" y2="281.7188"/></g><!--class Deidad--><g id="elem_Deidad"><rect codeLine="119" fill="#F1F1F1" height="100.8281" id="Deidad" rx="2.5" ry="2.5" style="stroke:#181818;stroke-width:0.5;" width="158" x="2343" y="45.6094"/><ellipse cx="2395.25" cy="61.6094" fill="#ADD1B2" rx="11" ry="11" style="stroke:#181818;stroke-width:1.0;"/><path d="M2398.0156,57.4844 Q2398.1719,57.2656 2398.3594,57.1563 Q2398.5469,57.0469 2398.7656,57.0469 Q2399.1406,57.0469 2399.375,57.3125 Q2399.6094,57.5625 2399.6094,58.1719 L2399.6094,59.625 Q2399.6094,60.2344 2399.375,60.5 Q2399.1406,60.7656 2398.7656,60.7656 Q2398.4219,60.7656 2398.2188,60.5625 Q2398.0156,60.375 2397.9063,59.8594 Q2397.8594,59.5 2397.6719,59.3125 Q2397.3438,58.9375 2396.7344,58.7188 Q2396.125,58.5 2395.5,58.5 Q2394.7344,58.5 2394.0938,58.8281 Q2393.4688,59.1563 2392.9688,59.9063 Q2392.4844,60.6563 2392.4844,61.6875 L2392.4844,62.7813 Q2392.4844,64.0156 2393.375,64.8438 Q2394.2656,65.6563 2395.8594,65.6563 Q2396.7969,65.6563 2397.4531,65.4063 Q2397.8438,65.25 2398.2656,64.8125 Q2398.5313,64.5469 2398.6719,64.4688 Q2398.8281,64.3906 2399.0313,64.3906 Q2399.3594,64.3906 2399.6094,64.6563 Q2399.875,64.9063 2399.875,65.25 Q2399.875,65.5938 2399.5313,66 Q2399.0313,66.5781 2398.2344,66.9063 Q2397.1563,67.3594 2395.8594,67.3594 Q2394.3438,67.3594 2393.1406,66.7344 Q2392.1563,66.2344 2391.4688,65.1719 Q2390.7813,64.0938 2390.7813,62.8125 L2390.7813,61.6563 Q2390.7813,60.3281 2391.3906,59.1875 Q2392.0156,58.0313 2393.1094,57.4219 Q2394.2031,56.7969 2395.4375,56.7969 Q2396.1719,56.7969 2396.8125,56.9688 Q2397.4688,57.125 2398.0156,57.4844 Z " fill="#000000"/><text fill="#000000" font-family="sans-serif" font-size="14" lengthAdjust="spacing" textLength="45" x="2415.75" y="67.3379">Deidad</text><line style="stroke:#181818;stroke-width:0.5;" x1="2344" x2="2500" y1="77.6094" y2="77.6094"/><rect fill="none" height="6" style="stroke:#C82930;stroke-width:1.0;" width="6" x="2351" y="88.9141"/><text fill="#000000" font-family="sans-serif" font-size="14" lengthAdjust="spacing" textLength="132" x="2363" y="96.1426">inventario: Inventario</text><rect fill="none" height="6" style="stroke:#C82930;stroke-width:1.0;" width="6" x="2351" y="106.5234"/><text fill="#000000" font-family="sans-serif" font-size="14" lengthAdjust="spacing" textLength="69" x="2363" y="113.752">forja: Forja</text><rect fill="none" height="6" style="stroke:#C82930;stroke-width:1.0;" width="6" x="2351" y="124.1328"/><text fill="#000000" font-family="sans-serif" font-size="14" lengthAdjust="spacing" textLength="123" x="2363" y="131.3613">basurero: Basurero</text><line style="stroke:#181818;stroke-width:0.5;" x1="2344" x2="2500" y1="138.4375" y2="138.4375"/></g><!--class Receta--><g id="elem_Receta"><rect codeLine="125" fill="#F1F1F1" height="83.2188" id="Receta" rx="2.5" ry="2.5" style="stroke:#181818;stroke-width:0.5;" width="182" x="1554" y="748.1094"/><ellipse cx="1618.25" cy="764.1094" fill="#ADD1B2" rx="11" ry="11" style="stroke:#181818;stroke-width:1.0;"/><path d="M1621.0156,759.9844 Q1621.1719,759.7656 1621.3594,759.6563 Q1621.5469,759.5469 1621.7656,759.5469 Q1622.1406,759.5469 1622.375,759.8125 Q1622.6094,760.0625 1622.6094,760.6719 L1622.6094,762.125 Q1622.6094,762.7344 1622.375,763 Q1622.1406,763.2656 1621.7656,763.2656 Q1621.4219,763.2656 1621.2188,763.0625 Q1621.0156,762.875 1620.9063,762.3594 Q1620.8594,762 1620.6719,761.8125 Q1620.3438,761.4375 1619.7344,761.2188 Q1619.125,761 1618.5,761 Q1617.7344,761 1617.0938,761.3281 Q1616.4688,761.6563 1615.9688,762.4063 Q1615.4844,763.1563 1615.4844,764.1875 L1615.4844,765.2813 Q1615.4844,766.5156 1616.375,767.3438 Q1617.2656,768.1563 1618.8594,768.1563 Q1619.7969,768.1563 1620.4531,767.9063 Q1620.8438,767.75 1621.2656,767.3125 Q1621.5313,767.0469 1621.6719,766.9688 Q1621.8281,766.8906 1622.0313,766.8906 Q1622.3594,766.8906 1622.6094,767.1563 Q1622.875,767.4063 1622.875,767.75 Q1622.875,768.0938 1622.5313,768.5 Q1622.0313,769.0781 1621.2344,769.4063 Q1620.1563,769.8594 1618.8594,769.8594 Q1617.3438,769.8594 1616.1406,769.2344 Q1615.1563,768.7344 1614.4688,767.6719 Q1613.7813,766.5938 1613.7813,765.3125 L1613.7813,764.1563 Q1613.7813,762.8281 1614.3906,761.6875 Q1615.0156,760.5313 1616.1094,759.9219 Q1617.2031,759.2969 1618.4375,759.2969 Q1619.1719,759.2969 1619.8125,759.4688 Q1620.4688,759.625 1621.0156,759.9844 Z " fill="#000000"/><text fill="#000000" font-family="sans-serif" font-size="14" lengthAdjust="spacing" textLength="45" x="1638.75" y="769.8379">Receta</text><line style="stroke:#181818;stroke-width:0.5;" x1="1555" x2="1735" y1="780.1094" y2="780.1094"/><rect fill="none" height="6" style="stroke:#C82930;stroke-width:1.0;" width="6" x="1562" y="791.4141"/><text fill="#000000" font-family="sans-serif" font-size="14" lengthAdjust="spacing" textLength="156" x="1574" y="798.6426">ingredientes: TipoItem[2]</text><rect fill="none" height="6" style="stroke:#C82930;stroke-width:1.0;" width="6" x="1562" y="809.0234"/><text fill="#000000" font-family="sans-serif" font-size="14" lengthAdjust="spacing" textLength="93" x="1574" y="816.252">resultado: Item</text><line style="stroke:#181818;stroke-width:0.5;" x1="1555" x2="1735" y1="823.3281" y2="823.3281"/></g><!--class TipoItem--><g id="elem_TipoItem"><rect codeLine="140" fill="#F1F1F1" height="312.1406" id="TipoItem" rx="2.5" ry="2.5" style="stroke:#181818;stroke-width:0.5;" width="122" x="1254" y="633.6094"/><ellipse cx="1285.2" cy="649.6094" fill="#EB937F" rx="11" ry="11" style="stroke:#181818;stroke-width:1.0;"/><path d="M1284.0594,650.4063 L1284.0594,652.9063 L1288.3875,652.9063 L1288.3875,651.9844 Q1288.3875,651.375 1288.6219,651.1094 Q1288.8719,650.8438 1289.2469,650.8438 Q1289.6219,650.8438 1289.8563,651.1094 Q1290.0906,651.375 1290.0906,651.9844 L1290.0906,654.6094 L1282.0906,654.6094 Q1281.4656,654.6094 1281.2,654.375 Q1280.95,654.1406 1280.95,653.75 Q1280.95,653.375 1281.2156,653.1406 Q1281.4813,652.9063 1282.0906,652.9063 L1282.3563,652.9063 L1282.3563,646.25 L1282.0906,646.25 Q1281.4656,646.25 1281.2,646.0156 Q1280.95,645.7813 1280.95,645.3906 Q1280.95,645.0156 1281.2,644.7813 Q1281.4656,644.5469 1282.0906,644.5469 L1289.7156,644.5469 L1289.7156,647.1406 Q1289.7156,647.75 1289.4813,648.0156 Q1289.2625,648.2656 1288.8719,648.2656 Q1288.4969,648.2656 1288.2625,648.0156 Q1288.0281,647.75 1288.0281,647.1406 L1288.0281,646.25 L1284.0594,646.25 L1284.0594,648.7031 L1285.5438,648.7031 Q1285.5438,648.0469 1285.6688,647.8594 Q1285.9344,647.4531 1286.4031,647.4531 Q1286.7781,647.4531 1287.0125,647.7188 Q1287.2469,647.9688 1287.2469,648.5781 L1287.2469,650.5469 Q1287.2469,651.0938 1287.1219,651.2813 Q1286.8563,651.6719 1286.4031,651.6719 Q1285.9344,651.6719 1285.6688,651.2656 Q1285.5438,651.0781 1285.5438,650.4063 L1284.0594,650.4063 Z " fill="#000000"/><text fill="#000000" font-family="sans-serif" font-size="14" lengthAdjust="spacing" textLength="54" x="1302.8" y="655.3379">TipoItem</text><line style="stroke:#181818;stroke-width:0.5;" x1="1255" x2="1375" y1="665.6094" y2="665.6094"/><text fill="#000000" font-family="sans-serif" font-size="14" lengthAdjust="spacing" textLength="48" x="1260" y="684.1426">Espada</text><text fill="#000000" font-family="sans-serif" font-size="14" lengthAdjust="spacing" textLength="40" x="1260" y="701.752">Hacha</text><text fill="#000000" font-family="sans-serif" font-size="14" lengthAdjust="spacing" textLength="38" x="1260" y="719.3613">Lanza</text><text fill="#000000" font-family="sans-serif" font-size="14" lengthAdjust="spacing" textLength="29" x="1260" y="736.9707">Arco</text><text fill="#000000" font-family="sans-serif" font-size="14" lengthAdjust="spacing" textLength="104" x="1260" y="754.5801">Daga_arrojadiza</text><text fill="#000000" font-family="sans-serif" font-size="14" lengthAdjust="spacing" textLength="110" x="1260" y="772.1895">Hacha_arrojadiza</text><text fill="#000000" font-family="sans-serif" font-size="14" lengthAdjust="spacing" textLength="47" x="1260" y="789.7988">Escudo</text><text fill="#000000" font-family="sans-serif" font-size="14" lengthAdjust="spacing" textLength="37" x="1260" y="807.4082">Varita</text><text fill="#000000" font-family="sans-serif" font-size="14" lengthAdjust="spacing" textLength="65" x="1260" y="825.0176">Bumerang</text><text fill="#000000" font-family="sans-serif" font-size="14" lengthAdjust="spacing" textLength="40" x="1260" y="842.627">Casco</text><text fill="#000000" font-family="sans-serif" font-size="14" lengthAdjust="spacing" textLength="53" x="1260" y="860.2363">Pechera</text><text fill="#000000" font-family="sans-serif" font-size="14" lengthAdjust="spacing" textLength="36" x="1260" y="877.8457">Botas</text><text fill="#000000" font-family="sans-serif" font-size="14" lengthAdjust="spacing" textLength="56" x="1260" y="895.4551">Chatarra</text><text fill="#000000" font-family="sans-serif" font-size="14" lengthAdjust="spacing" textLength="55" x="1260" y="913.0645">Maderita</text><text fill="#000000" font-family="sans-serif" font-size="14" lengthAdjust="spacing" textLength="39" x="1260" y="930.6738">Cuero</text><line style="stroke:#181818;stroke-width:0.5;" x1="1255" x2="1375" y1="937.75" y2="937.75"/></g><!--class Rareza--><g id="elem_Rareza"><rect codeLine="158" fill="#F1F1F1" height="136.0469" id="Rareza" rx="2.5" ry="2.5" style="stroke:#181818;stroke-width:0.5;" width="82" x="1411" y="721.6094"/><ellipse cx="1428.25" cy="737.6094" fill="#EB937F" rx="11" ry="11" style="stroke:#181818;stroke-width:1.0;"/><path d="M1427.1094,738.4063 L1427.1094,740.9063 L1431.4375,740.9063 L1431.4375,739.9844 Q1431.4375,739.375 1431.6719,739.1094 Q1431.9219,738.8438 1432.2969,738.8438 Q1432.6719,738.8438 1432.9063,739.1094 Q1433.1406,739.375 1433.1406,739.9844 L1433.1406,742.6094 L1425.1406,742.6094 Q1424.5156,742.6094 1424.25,742.375 Q1424,742.1406 1424,741.75 Q1424,741.375 1424.2656,741.1406 Q1424.5313,740.9063 1425.1406,740.9063 L1425.4063,740.9063 L1425.4063,734.25 L1425.1406,734.25 Q1424.5156,734.25 1424.25,734.0156 Q1424,733.7813 1424,733.3906 Q1424,733.0156 1424.25,732.7813 Q1424.5156,732.5469 1425.1406,732.5469 L1432.7656,732.5469 L1432.7656,735.1406 Q1432.7656,735.75 1432.5313,736.0156 Q1432.3125,736.2656 1431.9219,736.2656 Q1431.5469,736.2656 1431.3125,736.0156 Q1431.0781,735.75 1431.0781,735.1406 L1431.0781,734.25 L1427.1094,734.25 L1427.1094,736.7031 L1428.5938,736.7031 Q1428.5938,736.0469 1428.7188,735.8594 Q1428.9844,735.4531 1429.4531,735.4531 Q1429.8281,735.4531 1430.0625,735.7188 Q1430.2969,735.9688 1430.2969,736.5781 L1430.2969,738.5469 Q1430.2969,739.0938 1430.1719,739.2813 Q1429.9063,739.6719 1429.4531,739.6719 Q1428.9844,739.6719 1428.7188,739.2656 Q1428.5938,739.0781 1428.5938,738.4063 L1427.1094,738.4063 Z " fill="#000000"/><text fill="#000000" font-family="sans-serif" font-size="14" lengthAdjust="spacing" textLength="45" x="1442.75" y="743.3379">Rareza</text><line style="stroke:#181818;stroke-width:0.5;" x1="1412" x2="1492" y1="753.6094" y2="753.6094"/><text fill="#000000" font-family="sans-serif" font-size="14" lengthAdjust="spacing" textLength="42" x="1417" y="772.1426">comun</text><text fill="#000000" font-family="sans-serif" font-size="14" lengthAdjust="spacing" textLength="26" x="1417" y="789.752">raro</text><text fill="#000000" font-family="sans-serif" font-size="14" lengthAdjust="spacing" textLength="60" x="1417" y="807.3613">muy_raro</text><text fill="#000000" font-family="sans-serif" font-size="14" lengthAdjust="spacing" textLength="70" x="1417" y="824.9707">super_raro</text><text fill="#000000" font-family="sans-serif" font-size="14" lengthAdjust="spacing" textLength="50" x="1417" y="842.5801">rarisimo</text><line style="stroke:#181818;stroke-width:0.5;" x1="1412" x2="1492" y1="849.6563" y2="849.6563"/></g><!--reverse link Forja to Receta--><g id="link_Forja_Receta"><path codeLine="130" d="M1645,541.7494 C1645,605.0294 1645,692.5494 1645,747.9494 " fill="none" id="Forja-backto-Receta" style="stroke:#181818;stroke-width:1.0;"/><polygon fill="#181818" points="1645,529.7494,1641,535.7494,1645,541.7494,1649,535.7494,1645,529.7494" style="stroke:#181818;stroke-width:1.0;"/></g><!--link Item to TipoItem--><g id="link_Item_TipoItem"><path codeLine="131" d="M1203.13,529.7494 C1217.42,562.8194 1233.6095,600.2818 1251.4995,641.6718 " fill="none" id="Item-to-TipoItem" style="stroke:#181818;stroke-width:1.0;stroke-dasharray:7.0,7.0;"/><polygon fill="#181818" points="1253.88,647.1794,1253.9809,637.331,1251.8962,642.5898,1246.6375,640.5051,1253.88,647.1794" style="stroke:#181818;stroke-width:1.0;"/></g><!--link Item to Rareza--><g id="link_Item_Rareza"><path codeLine="132" d="M1253.04,529.6294 C1271.89,544.0794 1292.14,559.4794 1311,573.6094 C1347.14,600.6894 1365.62,597.6994 1393,633.6094 C1412.64,659.3694 1424.5808,686.705 1433.8508,715.665 " fill="none" id="Item-to-Rareza" style="stroke:#181818;stroke-width:1.0;stroke-dasharray:7.0,7.0;"/><polygon fill="#181818" points="1435.68,721.3794,1436.7459,711.5884,1434.1557,716.6174,1429.1267,714.0272,1435.68,721.3794" style="stroke:#181818;stroke-width:1.0;"/></g><!--reverse link Contenedor to Item--><g id="link_Contenedor_Item"><path codeLine="133" d="M1476.9409,301.0166 C1419.4009,318.5466 1366.32,338.4194 1311,367.6094 C1288.09,379.6994 1265.04,395.7094 1244.71,411.4494 " fill="none" id="Contenedor-backto-Item" style="stroke:#181818;stroke-width:1.0;"/><polygon fill="none" points="1488.42,297.5194,1481.5147,295.4416,1476.9409,301.0166,1483.8462,303.0943,1488.42,297.5194" style="stroke:#181818;stroke-width:1.0;"/></g><!--reverse link Cofre to Contenedor_Cofre--><g id="link_Cofre_Contenedor_Cofre"><path codeLine="134" d="M2260,302.2294 C2260,342.0994 2260,397.6894 2260,437.5294 " fill="none" id="Cofre-backto-Contenedor_Cofre" style="stroke:#181818;stroke-width:1.0;"/><polygon fill="#181818" points="2260,290.2294,2256,296.2294,2260,302.2294,2264,296.2294,2260,290.2294" style="stroke:#181818;stroke-width:1.0;"/></g><!--reverse link Item to Hechizo--><g id="link_Item_Hechizo"><path codeLine="135" d="M1046.1645,528.3575 C991.2345,555.6875 943.68,585.9194 897,633.6094 C864.8,666.5094 841.15,714.0694 827.09,747.8094 " fill="none" id="Item-backto-Hechizo" style="stroke:#181818;stroke-width:1.0;"/><polygon fill="none" points="1062.28,520.3394,1043.4918,522.9857,1048.8372,533.7294,1062.28,520.3394" style="stroke:#181818;stroke-width:1.0;"/></g><!--reverse link Hechizo to Objetivo--><g id="link_Hechizo_Objetivo"><path codeLine="136" d="M793.8076,842.2766 C780.2376,876.7766 760.84,914.3994 726,945.6094 C678.74,987.9494 615.33,1017.4794 558.74,1037.3294 " fill="none" id="Hechizo-backto-Objetivo" style="stroke:#181818;stroke-width:1.0;"/><polygon fill="#181818" points="798.2,831.1094,792.2814,835.2288,793.8076,842.2766,799.7262,838.1571,798.2,831.1094" style="stroke:#181818;stroke-width:1.0;"/></g><!--reverse link Personaje to Movimiento--><g id="link_Personaje_Movimiento"><path codeLine="137" d="M194.8259,582.8492 C178.4659,602.1292 170.02,613.4294 156,633.6094 C132.74,667.0694 111.17,707.7894 95.85,739.0894 " fill="none" id="Personaje-backto-Movimiento" style="stroke:#181818;stroke-width:1.0;"/><polygon fill="#181818" points="202.59,573.6994,195.658,575.6863,194.8259,582.8492,201.7579,580.8623,202.59,573.6994" style="stroke:#181818;stroke-width:1.0;"/></g><!--reverse link Movimiento to Objetivo--><g id="link_Movimiento_Objetivo"><path codeLine="138" d="M94.5928,851.2744 C108.1428,884.5744 125.4,916.4394 156,945.6094 C193.06,980.9394 241.77,1008.0194 287.44,1027.9194 " fill="none" id="Movimiento-backto-Objetivo" style="stroke:#181818;stroke-width:1.0;"/><polygon fill="#181818" points="90.07,840.1594,88.6264,847.2245,94.5928,851.2744,96.0364,844.2093,90.07,840.1594" style="stroke:#181818;stroke-width:1.0;"/></g><!--reverse link Item to Equipable--><g id="link_Item_Equipable"><path codeLine="166" d="M1138.3138,545.6127 C1117.5138,584.4027 1097.91,620.9494 1072.43,668.4594 " fill="none" id="Item-backto-Equipable" style="stroke:#181818;stroke-width:1.0;"/><polygon fill="none" points="1146.82,529.7494,1133.026,542.7773,1143.6015,548.4481,1146.82,529.7494" style="stroke:#181818;stroke-width:1.0;"/></g><!--reverse link Item to Material--><g id="link_Item_Material"><path codeLine="167" d="M1178,547.7494 C1178,618.3594 1178,716.0894 1178,765.2994 " fill="none" id="Item-backto-Material" style="stroke:#181818;stroke-width:1.0;"/><polygon fill="none" points="1178,529.7494,1172,547.7494,1184,547.7494,1178,529.7494" style="stroke:#181818;stroke-width:1.0;"/></g><!--reverse link Equipable to Arma--><g id="link_Equipable_Arma"><path codeLine="168" d="M970.0095,927.9574 C961.0495,960.3374 956.48,976.8794 948.63,1005.2494 " fill="none" id="Equipable-backto-Arma" style="stroke:#181818;stroke-width:1.0;"/><polygon fill="none" points="974.81,910.6094,964.2269,926.3573,975.7922,929.5576,974.81,910.6094" style="stroke:#181818;stroke-width:1.0;"/></g><!--reverse link Equipable to Armadura--><g id="link_Equipable_Armadura"><path codeLine="169" d="M1045.9878,927.9582 C1059.0878,975.3282 1068.29,1008.5894 1077.09,1040.3894 " fill="none" id="Equipable-backto-Armadura" style="stroke:#181818;stroke-width:1.0;"/><polygon fill="none" points="1041.19,910.6094,1040.2048,929.5574,1051.7707,926.3589,1041.19,910.6094" style="stroke:#181818;stroke-width:1.0;"/></g><!--reverse link Arma to Mele--><g id="link_Arma_Mele"><path codeLine="170" d="M873.736,1156.5514 C859.066,1177.9314 853.98,1185.3194 842.95,1201.3794 " fill="none" id="Arma-backto-Mele" style="stroke:#181818;stroke-width:1.0;"/><polygon fill="none" points="883.92,1141.7094,868.7887,1153.1568,878.6834,1159.9461,883.92,1141.7094" style="stroke:#181818;stroke-width:1.0;"/></g><!--reverse link Arma to Rango--><g id="link_Arma_Rango"><path codeLine="171" d="M930,1159.7094 C930,1181.0894 930,1185.3194 930,1201.3794 " fill="none" id="Arma-backto-Rango" style="stroke:#181818;stroke-width:1.0;"/><polygon fill="none" points="930,1141.7094,924,1159.7094,936,1159.7094,930,1141.7094" style="stroke:#181818;stroke-width:1.0;"/></g><!--reverse link Arma to Area--><g id="link_Arma_Area"><path codeLine="172" d="M986.264,1156.5514 C1000.934,1177.9314 1006.02,1185.3194 1017.05,1201.3794 " fill="none" id="Arma-backto-Area" style="stroke:#181818;stroke-width:1.0;"/><polygon fill="none" points="976.08,1141.7094,981.3166,1159.9461,991.2113,1153.1568,976.08,1141.7094" style="stroke:#181818;stroke-width:1.0;"/></g><!--reverse link Personaje to Heroe--><g id="link_Personaje_Heroe"><path codeLine="173" d="M299,591.6594 C299,646.8594 299,694.5694 299,738.6794 " fill="none" id="Personaje-backto-Heroe" style="stroke:#181818;stroke-width:1.0;"/><polygon fill="none" points="299,573.6594,293,591.6594,305,591.6594,299,573.6594" style="stroke:#181818;stroke-width:1.0;"/></g><!--reverse link Personaje to Enemigo--><g id="link_Personaje_Enemigo"><path codeLine="174" d="M402.776,587.0435 C452.416,642.2435 499.45,694.5694 539.11,738.6794 " fill="none" id="Personaje-backto-Enemigo" style="stroke:#181818;stroke-width:1.0;"/><polygon fill="none" points="390.74,573.6594,398.3146,591.0555,407.2374,583.0315,390.74,573.6594" style="stroke:#181818;stroke-width:1.0;"/></g><!--reverse link Contenedor to Inventario--><g id="link_Contenedor_Inventario"><path codeLine="175" d="M1537.8611,317.1547 C1510.0311,334.2847 1495.65,345.3794 1471,367.6094 C1448.1,388.2594 1426.8,416.0194 1411.94,437.3594 " fill="none" id="Contenedor-backto-Inventario" style="stroke:#181818;stroke-width:1.0;"/><polygon fill="none" points="1553.19,307.7194,1534.716,312.045,1541.0062,322.2643,1553.19,307.7194" style="stroke:#181818;stroke-width:1.0;"/></g><!--reverse link Contenedor to Forja--><g id="link_Contenedor_Forja"><path codeLine="176" d="M1645,325.6994 C1645,356.7094 1645,378.7994 1645,411.3294 " fill="none" id="Contenedor-backto-Forja" style="stroke:#181818;stroke-width:1.0;"/><polygon fill="none" points="1645,307.6994,1639,325.6994,1651,325.6994,1645,307.6994" style="stroke:#181818;stroke-width:1.0;"/></g><!--reverse link Contenedor to Contenedor_Cofre--><g id="link_Contenedor_Contenedor_Cofre"><path codeLine="177" d="M1819.4368,267.5388 C1928.0868,278.6388 2054.95,303.5794 2167,367.6094 C2196.75,384.6094 2222.29,414.4494 2239.03,437.4694 " fill="none" id="Contenedor-backto-Contenedor_Cofre" style="stroke:#181818;stroke-width:1.0;"/><polygon fill="none" points="1801.53,265.7094,1818.827,273.5077,1820.0466,261.5699,1801.53,265.7094" style="stroke:#181818;stroke-width:1.0;"/></g><!--reverse link Contenedor to Basurero--><g id="link_Contenedor_Basurero"><path codeLine="178" d="M1741.9724,317.0473 C1802.7424,353.9773 1869.32,394.4394 1926.21,429.0194 " fill="none" id="Contenedor-backto-Basurero" style="stroke:#181818;stroke-width:1.0;"/><polygon fill="none" points="1726.59,307.6994,1738.8564,322.1747,1745.0883,311.9198,1726.59,307.6994" style="stroke:#181818;stroke-width:1.0;"/></g><!--reverse link Obstaculo to Cofre--><g id="link_Obstaculo_Cofre"><path codeLine="179" d="M2260,138.2294 C2260,165.5294 2260,193.1094 2260,223.8694 " fill="none" id="Obstaculo-backto-Cofre" style="stroke:#181818;stroke-width:1.0;"/><polygon fill="none" points="2260,120.2294,2254,138.2294,2266,138.2294,2260,120.2294" style="stroke:#181818;stroke-width:1.0;"/></g><!--SRC=[lLRDRXit4BxhANXK4pj0alQoC0pOZWC7QT30BNenXCKiTonHu98AVzJ4hH-gpz0Nwv1BShcoV6c00WAqdFb8piytCtJ2IMINNafqxADGwruFx4Bo3Gx2kiM2Ix2MVKPZjO8jiZyNZ9qofOVEOCD-TOQsHD5UzD0meLnSWHcWnIzUx228BsXvzsPLLBqtX-eWkdixGhnqWlO7PCCwhMMK3del1e7AwOPzAj-aUid00GUp_A5XUotwA3B8HITCsyC_V-ib1-N8m3vQMCD68yoIdBcEdvt44sQbTZFeOux4T74AHO_M2KKc_T9jqOczZbA70Pu3TFVZAbv67k1aPJdp1etEaTr09sImzDhko0EGLP1VCc_1t6J4ydlyk5QKu7LsmecTdbsq0OxcrejUVzSj7nmEprDcXvPklPSQHj8OCFX06R-D_yKms-w17DOKpjze6SwyMx6pC-l02Nv-NZcLRSgv2RcVI1cNxKuRJldp8RJJtJtUex8LWvFW6VWUfUOZeOu8M-BZ5u-rZXj1nkeZehRJojjQWNkmGgjPQD1IEQ8YHhGuxFnsTZX8uZV75hywarmeCGcrLOUZxS3Yv2Qdwkhr7xFBaAWNpicIaNTp8b3mMqacHNx44ftT6AevtJgo8sUkPZtVY8VCG9sgPrP71nUNhHaIzrBrhmskmRIxtAMMksPgMRNP6QaxifzxgPVnmhGuXYJw2Kx9M7vDyJXXtz9N3TST9GShE2cN2J-2gnQ2WQ2FQNKBAfJXOmaUGbXbB3Wqr0N8qoAxqYfSrckJOYSehaIWiJ1gwvT1Coh83257RfnGqgKV53nfXbG-ZdOzZvndy8FQKsM04Vg88J-jw3TXtskpXIEmrwlSzAbXemizypP-_A-UJ25jh_IzmUE6rlvSWlM6-lPnvEl_R7p5ySJAUUedutYnkNbY_xJZ7OQ6bAqi2Mkgv4NLVSXFCwOf2hhaO5DSdGuTCrGE9I_xC1Anxj1lSbOjJNFezHJoaGelJa_JEOiu9LwzEf-QH96aKL1HNjE-Y1bZ4OvvudtSVlONgLAJMUHc4-2bmKolcY2kdXJLa9zjMA3oGx4o-azZcfumz743V1F-VmOLPzU5uI6oxs0T7Z96Rw4N3mKu5rrRxlk0_ftouOBaqW_KWkESl08RJ_fCBf0iA3NLIT1iQCwOAFe4FQQjLpxbAXex1Z2QolNW5VtJc0td3VvRcpwjfzQP5_Gdh1ZY4LCWosYjPBavBQQv6-LX01oJXQ6mYFDet4vzi5h6HbYjGoUiKfJIII-bGs5wojGaYVAAuOUgaUQ7qYSyEWIKIfYACsqCw7y1]--></g></svg>