<?xml version="1.0" encoding="us-ascii" standalone="no"?><svg xmlns="http://www.w3.org/2000/svg" xmlns:xlink="http://www.w3.org/1999/xlink" contentStyleType="text/css" height="1396px" preserveAspectRatio="none" style="width:1782px;height:1396px;background:#FFFFFF;" version="1.1" viewBox="0 0 1782 1396" width="1782px" zoomAndPan="magnify"><defs/><g><!--class Rareza--><g id="elem_Rareza"><rect codeLine="2" fill="#F1F1F1" height="136.0469" id="Rareza" rx="2.5" ry="2.5" style="stroke:#181818;stroke-width:0.5;" width="82" x="1076" y="7"/><ellipse cx="1093.25" cy="23" fill="#EB937F" rx="11" ry="11" style="stroke:#181818;stroke-width:1.0;"/><path d="M1092.1094,23.7969 L1092.1094,26.2969 L1096.4375,26.2969 L1096.4375,25.375 Q1096.4375,24.7656 1096.6719,24.5 Q1096.9219,24.2344 1097.2969,24.2344 Q1097.6719,24.2344 1097.9063,24.5 Q1098.1406,24.7656 1098.1406,25.375 L1098.1406,28 L1090.1406,28 Q1089.5156,28 1089.25,27.7656 Q1089,27.5313 1089,27.1406 Q1089,26.7656 1089.2656,26.5313 Q1089.5313,26.2969 1090.1406,26.2969 L1090.4063,26.2969 L1090.4063,19.6406 L1090.1406,19.6406 Q1089.5156,19.6406 1089.25,19.4063 Q1089,19.1719 1089,18.7813 Q1089,18.4063 1089.25,18.1719 Q1089.5156,17.9375 1090.1406,17.9375 L1097.7656,17.9375 L1097.7656,20.5313 Q1097.7656,21.1406 1097.5313,21.4063 Q1097.3125,21.6563 1096.9219,21.6563 Q1096.5469,21.6563 1096.3125,21.4063 Q1096.0781,21.1406 1096.0781,20.5313 L1096.0781,19.6406 L1092.1094,19.6406 L1092.1094,22.0938 L1093.5938,22.0938 Q1093.5938,21.4375 1093.7188,21.25 Q1093.9844,20.8438 1094.4531,20.8438 Q1094.8281,20.8438 1095.0625,21.1094 Q1095.2969,21.3594 1095.2969,21.9688 L1095.2969,23.9375 Q1095.2969,24.4844 1095.1719,24.6719 Q1094.9063,25.0625 1094.4531,25.0625 Q1093.9844,25.0625 1093.7188,24.6563 Q1093.5938,24.4688 1093.5938,23.7969 L1092.1094,23.7969 Z " fill="#000000"/><text fill="#000000" font-family="sans-serif" font-size="14" lengthAdjust="spacing" textLength="45" x="1107.75" y="28.7285">Rareza</text><line style="stroke:#181818;stroke-width:0.5;" x1="1077" x2="1157" y1="39" y2="39"/><text fill="#000000" font-family="sans-serif" font-size="14" lengthAdjust="spacing" textLength="42" x="1082" y="57.5332">comun</text><text fill="#000000" font-family="sans-serif" font-size="14" lengthAdjust="spacing" textLength="26" x="1082" y="75.1426">raro</text><text fill="#000000" font-family="sans-serif" font-size="14" lengthAdjust="spacing" textLength="60" x="1082" y="92.752">muy_raro</text><text fill="#000000" font-family="sans-serif" font-size="14" lengthAdjust="spacing" textLength="70" x="1082" y="110.3613">super_raro</text><text fill="#000000" font-family="sans-serif" font-size="14" lengthAdjust="spacing" textLength="50" x="1082" y="127.9707">rarisimo</text><line style="stroke:#181818;stroke-width:0.5;" x1="1077" x2="1157" y1="135.0469" y2="135.0469"/></g><!--class Item--><g id="elem_Item"><rect codeLine="34" fill="#F1F1F1" height="118.4375" id="Item" rx="2.5" ry="2.5" style="stroke:#181818;stroke-width:0.5;" width="119" x="1057.5" y="301"/><ellipse cx="1099.95" cy="317" fill="#ADD1B2" rx="11" ry="11" style="stroke:#181818;stroke-width:1.0;"/><path d="M1102.7156,312.875 Q1102.8719,312.6563 1103.0594,312.5469 Q1103.2469,312.4375 1103.4656,312.4375 Q1103.8406,312.4375 1104.075,312.7031 Q1104.3094,312.9531 1104.3094,313.5625 L1104.3094,315.0156 Q1104.3094,315.625 1104.075,315.8906 Q1103.8406,316.1563 1103.4656,316.1563 Q1103.1219,316.1563 1102.9188,315.9531 Q1102.7156,315.7656 1102.6063,315.25 Q1102.5594,314.8906 1102.3719,314.7031 Q1102.0438,314.3281 1101.4344,314.1094 Q1100.825,313.8906 1100.2,313.8906 Q1099.4344,313.8906 1098.7938,314.2188 Q1098.1688,314.5469 1097.6688,315.2969 Q1097.1844,316.0469 1097.1844,317.0781 L1097.1844,318.1719 Q1097.1844,319.4063 1098.075,320.2344 Q1098.9656,321.0469 1100.5594,321.0469 Q1101.4969,321.0469 1102.1531,320.7969 Q1102.5438,320.6406 1102.9656,320.2031 Q1103.2313,319.9375 1103.3719,319.8594 Q1103.5281,319.7813 1103.7313,319.7813 Q1104.0594,319.7813 1104.3094,320.0469 Q1104.575,320.2969 1104.575,320.6406 Q1104.575,320.9844 1104.2313,321.3906 Q1103.7313,321.9688 1102.9344,322.2969 Q1101.8563,322.75 1100.5594,322.75 Q1099.0438,322.75 1097.8406,322.125 Q1096.8563,321.625 1096.1688,320.5625 Q1095.4813,319.4844 1095.4813,318.2031 L1095.4813,317.0469 Q1095.4813,315.7188 1096.0906,314.5781 Q1096.7156,313.4219 1097.8094,312.8125 Q1098.9031,312.1875 1100.1375,312.1875 Q1100.8719,312.1875 1101.5125,312.3594 Q1102.1688,312.5156 1102.7156,312.875 Z " fill="#000000"/><text fill="#000000" font-family="sans-serif" font-size="14" lengthAdjust="spacing" textLength="26" x="1120.05" y="322.7285">Item</text><line style="stroke:#181818;stroke-width:0.5;" x1="1058.5" x2="1175.5" y1="333" y2="333"/><rect fill="none" height="6" style="stroke:#C82930;stroke-width:1.0;" width="6" x="1065.5" y="344.3047"/><text fill="#000000" font-family="sans-serif" font-size="14" lengthAdjust="spacing" textLength="93" x="1077.5" y="351.5332">nombre: String</text><rect fill="none" height="6" style="stroke:#C82930;stroke-width:1.0;" width="6" x="1065.5" y="361.9141"/><text fill="#000000" font-family="sans-serif" font-size="14" lengthAdjust="spacing" textLength="66" x="1077.5" y="369.1426">peso: float</text><rect fill="none" height="6" style="stroke:#C82930;stroke-width:1.0;" width="6" x="1065.5" y="379.5234"/><text fill="#000000" font-family="sans-serif" font-size="14" lengthAdjust="spacing" textLength="93" x="1077.5" y="386.752">rareza: Rareza</text><rect fill="none" height="6" style="stroke:#C82930;stroke-width:1.0;" width="6" x="1065.5" y="397.1328"/><text fill="#000000" font-family="sans-serif" font-size="14" lengthAdjust="spacing" textLength="85" x="1077.5" y="404.3613">tipo: TipoItem</text><line style="stroke:#181818;stroke-width:0.5;" x1="1058.5" x2="1175.5" y1="411.4375" y2="411.4375"/></g><!--class Grupo--><g id="elem_Grupo"><rect codeLine="12" fill="#F1F1F1" height="312.1406" id="Grupo" rx="2.5" ry="2.5" style="stroke:#181818;stroke-width:0.5;" width="122" x="1478" y="204"/><ellipse cx="1515.5" cy="220" fill="#EB937F" rx="11" ry="11" style="stroke:#181818;stroke-width:1.0;"/><path d="M1514.3594,220.7969 L1514.3594,223.2969 L1518.6875,223.2969 L1518.6875,222.375 Q1518.6875,221.7656 1518.9219,221.5 Q1519.1719,221.2344 1519.5469,221.2344 Q1519.9219,221.2344 1520.1563,221.5 Q1520.3906,221.7656 1520.3906,222.375 L1520.3906,225 L1512.3906,225 Q1511.7656,225 1511.5,224.7656 Q1511.25,224.5313 1511.25,224.1406 Q1511.25,223.7656 1511.5156,223.5313 Q1511.7813,223.2969 1512.3906,223.2969 L1512.6563,223.2969 L1512.6563,216.6406 L1512.3906,216.6406 Q1511.7656,216.6406 1511.5,216.4063 Q1511.25,216.1719 1511.25,215.7813 Q1511.25,215.4063 1511.5,215.1719 Q1511.7656,214.9375 1512.3906,214.9375 L1520.0156,214.9375 L1520.0156,217.5313 Q1520.0156,218.1406 1519.7813,218.4063 Q1519.5625,218.6563 1519.1719,218.6563 Q1518.7969,218.6563 1518.5625,218.4063 Q1518.3281,218.1406 1518.3281,217.5313 L1518.3281,216.6406 L1514.3594,216.6406 L1514.3594,219.0938 L1515.8438,219.0938 Q1515.8438,218.4375 1515.9688,218.25 Q1516.2344,217.8438 1516.7031,217.8438 Q1517.0781,217.8438 1517.3125,218.1094 Q1517.5469,218.3594 1517.5469,218.9688 L1517.5469,220.9375 Q1517.5469,221.4844 1517.4219,221.6719 Q1517.1563,222.0625 1516.7031,222.0625 Q1516.2344,222.0625 1515.9688,221.6563 Q1515.8438,221.4688 1515.8438,220.7969 L1514.3594,220.7969 Z " fill="#000000"/><text fill="#000000" font-family="sans-serif" font-size="14" lengthAdjust="spacing" textLength="40" x="1534.5" y="225.7285">Grupo</text><line style="stroke:#181818;stroke-width:0.5;" x1="1479" x2="1599" y1="236" y2="236"/><text fill="#000000" font-family="sans-serif" font-size="14" lengthAdjust="spacing" textLength="48" x="1484" y="254.5332">Espada</text><text fill="#000000" font-family="sans-serif" font-size="14" lengthAdjust="spacing" textLength="40" x="1484" y="272.1426">Hacha</text><text fill="#000000" font-family="sans-serif" font-size="14" lengthAdjust="spacing" textLength="38" x="1484" y="289.752">Lanza</text><text fill="#000000" font-family="sans-serif" font-size="14" lengthAdjust="spacing" textLength="29" x="1484" y="307.3613">Arco</text><text fill="#000000" font-family="sans-serif" font-size="14" lengthAdjust="spacing" textLength="104" x="1484" y="324.9707">Daga_arrojadiza</text><text fill="#000000" font-family="sans-serif" font-size="14" lengthAdjust="spacing" textLength="110" x="1484" y="342.5801">Hacha_arrojadiza</text><text fill="#000000" font-family="sans-serif" font-size="14" lengthAdjust="spacing" textLength="47" x="1484" y="360.1895">Escudo</text><text fill="#000000" font-family="sans-serif" font-size="14" lengthAdjust="spacing" textLength="37" x="1484" y="377.7988">Varita</text><text fill="#000000" font-family="sans-serif" font-size="14" lengthAdjust="spacing" textLength="65" x="1484" y="395.4082">Bumerang</text><text fill="#000000" font-family="sans-serif" font-size="14" lengthAdjust="spacing" textLength="40" x="1484" y="413.0176">Casco</text><text fill="#000000" font-family="sans-serif" font-size="14" lengthAdjust="spacing" textLength="53" x="1484" y="430.627">Pechera</text><text fill="#000000" font-family="sans-serif" font-size="14" lengthAdjust="spacing" textLength="36" x="1484" y="448.2363">Botas</text><text fill="#000000" font-family="sans-serif" font-size="14" lengthAdjust="spacing" textLength="56" x="1484" y="465.8457">Chatarra</text><text fill="#000000" font-family="sans-serif" font-size="14" lengthAdjust="spacing" textLength="55" x="1484" y="483.4551">Maderita</text><text fill="#000000" font-family="sans-serif" font-size="14" lengthAdjust="spacing" textLength="39" x="1484" y="501.0645">Cuero</text><line style="stroke:#181818;stroke-width:0.5;" x1="1479" x2="1599" y1="508.1406" y2="508.1406"/></g><!--class TipoItem--><g id="elem_TipoItem"><rect codeLine="96" fill="#F1F1F1" height="171.2656" id="TipoItem" rx="2.5" ry="2.5" style="stroke:#181818;stroke-width:0.5;" width="245" x="1530.5" y="639"/><ellipse cx="1621.75" cy="655" fill="#ADD1B2" rx="11" ry="11" style="stroke:#181818;stroke-width:1.0;"/><path d="M1624.5156,650.875 Q1624.6719,650.6563 1624.8594,650.5469 Q1625.0469,650.4375 1625.2656,650.4375 Q1625.6406,650.4375 1625.875,650.7031 Q1626.1094,650.9531 1626.1094,651.5625 L1626.1094,653.0156 Q1626.1094,653.625 1625.875,653.8906 Q1625.6406,654.1563 1625.2656,654.1563 Q1624.9219,654.1563 1624.7188,653.9531 Q1624.5156,653.7656 1624.4063,653.25 Q1624.3594,652.8906 1624.1719,652.7031 Q1623.8438,652.3281 1623.2344,652.1094 Q1622.625,651.8906 1622,651.8906 Q1621.2344,651.8906 1620.5938,652.2188 Q1619.9688,652.5469 1619.4688,653.2969 Q1618.9844,654.0469 1618.9844,655.0781 L1618.9844,656.1719 Q1618.9844,657.4063 1619.875,658.2344 Q1620.7656,659.0469 1622.3594,659.0469 Q1623.2969,659.0469 1623.9531,658.7969 Q1624.3438,658.6406 1624.7656,658.2031 Q1625.0313,657.9375 1625.1719,657.8594 Q1625.3281,657.7813 1625.5313,657.7813 Q1625.8594,657.7813 1626.1094,658.0469 Q1626.375,658.2969 1626.375,658.6406 Q1626.375,658.9844 1626.0313,659.3906 Q1625.5313,659.9688 1624.7344,660.2969 Q1623.6563,660.75 1622.3594,660.75 Q1620.8438,660.75 1619.6406,660.125 Q1618.6563,659.625 1617.9688,658.5625 Q1617.2813,657.4844 1617.2813,656.2031 L1617.2813,655.0469 Q1617.2813,653.7188 1617.8906,652.5781 Q1618.5156,651.4219 1619.6094,650.8125 Q1620.7031,650.1875 1621.9375,650.1875 Q1622.6719,650.1875 1623.3125,650.3594 Q1623.9688,650.5156 1624.5156,650.875 Z " fill="#000000"/><text fill="#000000" font-family="sans-serif" font-size="14" lengthAdjust="spacing" textLength="54" x="1642.25" y="660.7285">TipoItem</text><line style="stroke:#181818;stroke-width:0.5;" x1="1531.5" x2="1774.5" y1="671" y2="671"/><ellipse cx="1541.5" cy="685.3047" fill="none" rx="3" ry="3" style="stroke:#038048;stroke-width:1.0;"/><text fill="#000000" font-family="sans-serif" font-size="14" lengthAdjust="spacing" textLength="94" x="1550.5" y="689.5332">icono: ItemIcon</text><ellipse cx="1541.5" cy="702.9141" fill="none" rx="3" ry="3" style="stroke:#038048;stroke-width:1.0;"/><text fill="#000000" font-family="sans-serif" font-size="14" lengthAdjust="spacing" textLength="85" x="1550.5" y="707.1426">grupo: Grupo</text><ellipse cx="1541.5" cy="720.5234" fill="none" rx="3" ry="3" style="stroke:#038048;stroke-width:1.0;"/><text fill="#000000" font-family="sans-serif" font-size="14" lengthAdjust="spacing" textLength="219" x="1550.5" y="724.752">nombre: String = "Item sin nombre"</text><ellipse cx="1541.5" cy="738.1328" fill="none" rx="3" ry="3" style="stroke:#038048;stroke-width:1.0;"/><text fill="#000000" font-family="sans-serif" font-size="14" lengthAdjust="spacing" textLength="111" x="1550.5" y="742.3613">clase_item: Script</text><ellipse cx="1541.5" cy="755.7422" fill="none" rx="3" ry="3" style="stroke:#038048;stroke-width:1.0;"/><text fill="#000000" font-family="sans-serif" font-size="14" lengthAdjust="spacing" textLength="158" x="1550.5" y="759.9707">nodo_uso: PackedScene</text><ellipse cx="1541.5" cy="773.3516" fill="none" rx="3" ry="3" style="stroke:#038048;stroke-width:1.0;"/><text fill="#000000" font-family="sans-serif" font-size="14" lengthAdjust="spacing" textLength="148" x="1550.5" y="777.5801">proyectil: PackedScene</text><ellipse cx="1541.5" cy="790.9609" fill="none" rx="3" ry="3" style="stroke:#038048;stroke-width:1.0;"/><text fill="#000000" font-family="sans-serif" font-size="14" lengthAdjust="spacing" textLength="124" x="1550.5" y="795.1895">genero: String = "a"</text><line style="stroke:#181818;stroke-width:0.5;" x1="1531.5" x2="1774.5" y1="802.2656" y2="802.2656"/></g><!--class Resource--><g id="elem_Resource"><rect codeLine="32" fill="#F1F1F1" height="48" id="Resource" rx="2.5" ry="2.5" style="stroke:#181818;stroke-width:0.5;" width="93" x="1512.5" y="51"/><ellipse cx="1527.5" cy="67" fill="#ADD1B2" rx="11" ry="11" style="stroke:#181818;stroke-width:1.0;"/><path d="M1530.2656,62.875 Q1530.4219,62.6563 1530.6094,62.5469 Q1530.7969,62.4375 1531.0156,62.4375 Q1531.3906,62.4375 1531.625,62.7031 Q1531.8594,62.9531 1531.8594,63.5625 L1531.8594,65.0156 Q1531.8594,65.625 1531.625,65.8906 Q1531.3906,66.1563 1531.0156,66.1563 Q1530.6719,66.1563 1530.4688,65.9531 Q1530.2656,65.7656 1530.1563,65.25 Q1530.1094,64.8906 1529.9219,64.7031 Q1529.5938,64.3281 1528.9844,64.1094 Q1528.375,63.8906 1527.75,63.8906 Q1526.9844,63.8906 1526.3438,64.2188 Q1525.7188,64.5469 1525.2188,65.2969 Q1524.7344,66.0469 1524.7344,67.0781 L1524.7344,68.1719 Q1524.7344,69.4063 1525.625,70.2344 Q1526.5156,71.0469 1528.1094,71.0469 Q1529.0469,71.0469 1529.7031,70.7969 Q1530.0938,70.6406 1530.5156,70.2031 Q1530.7813,69.9375 1530.9219,69.8594 Q1531.0781,69.7813 1531.2813,69.7813 Q1531.6094,69.7813 1531.8594,70.0469 Q1532.125,70.2969 1532.125,70.6406 Q1532.125,70.9844 1531.7813,71.3906 Q1531.2813,71.9688 1530.4844,72.2969 Q1529.4063,72.75 1528.1094,72.75 Q1526.5938,72.75 1525.3906,72.125 Q1524.4063,71.625 1523.7188,70.5625 Q1523.0313,69.4844 1523.0313,68.2031 L1523.0313,67.0469 Q1523.0313,65.7188 1523.6406,64.5781 Q1524.2656,63.4219 1525.3594,62.8125 Q1526.4531,62.1875 1527.6875,62.1875 Q1528.4219,62.1875 1529.0625,62.3594 Q1529.7188,62.5156 1530.2656,62.875 Z " fill="#000000"/><text fill="#000000" font-family="sans-serif" font-size="14" lengthAdjust="spacing" textLength="61" x="1541.5" y="72.7285">Resource</text><line style="stroke:#181818;stroke-width:0.5;" x1="1513.5" x2="1604.5" y1="83" y2="83"/><line style="stroke:#181818;stroke-width:0.5;" x1="1513.5" x2="1604.5" y1="91" y2="91"/></g><!--class Equipable--><g id="elem_Equipable"><rect codeLine="41" fill="#F1F1F1" height="136.0469" id="Equipable" rx="2.5" ry="2.5" style="stroke:#181818;stroke-width:0.5;" width="245" x="488.5" y="656.5"/><ellipse cx="575.25" cy="672.5" fill="#ADD1B2" rx="11" ry="11" style="stroke:#181818;stroke-width:1.0;"/><path d="M578.0156,668.375 Q578.1719,668.1563 578.3594,668.0469 Q578.5469,667.9375 578.7656,667.9375 Q579.1406,667.9375 579.375,668.2031 Q579.6094,668.4531 579.6094,669.0625 L579.6094,670.5156 Q579.6094,671.125 579.375,671.3906 Q579.1406,671.6563 578.7656,671.6563 Q578.4219,671.6563 578.2188,671.4531 Q578.0156,671.2656 577.9063,670.75 Q577.8594,670.3906 577.6719,670.2031 Q577.3438,669.8281 576.7344,669.6094 Q576.125,669.3906 575.5,669.3906 Q574.7344,669.3906 574.0938,669.7188 Q573.4688,670.0469 572.9688,670.7969 Q572.4844,671.5469 572.4844,672.5781 L572.4844,673.6719 Q572.4844,674.9063 573.375,675.7344 Q574.2656,676.5469 575.8594,676.5469 Q576.7969,676.5469 577.4531,676.2969 Q577.8438,676.1406 578.2656,675.7031 Q578.5313,675.4375 578.6719,675.3594 Q578.8281,675.2813 579.0313,675.2813 Q579.3594,675.2813 579.6094,675.5469 Q579.875,675.7969 579.875,676.1406 Q579.875,676.4844 579.5313,676.8906 Q579.0313,677.4688 578.2344,677.7969 Q577.1563,678.25 575.8594,678.25 Q574.3438,678.25 573.1406,677.625 Q572.1563,677.125 571.4688,676.0625 Q570.7813,674.9844 570.7813,673.7031 L570.7813,672.5469 Q570.7813,671.2188 571.3906,670.0781 Q572.0156,668.9219 573.1094,668.3125 Q574.2031,667.6875 575.4375,667.6875 Q576.1719,667.6875 576.8125,667.8594 Q577.4688,668.0156 578.0156,668.375 Z " fill="#000000"/><text fill="#000000" font-family="sans-serif" font-size="14" lengthAdjust="spacing" textLength="63" x="595.75" y="678.2285">Equipable</text><line style="stroke:#181818;stroke-width:0.5;" x1="489.5" x2="732.5" y1="688.5" y2="688.5"/><ellipse cx="499.5" cy="702.8047" fill="none" rx="3" ry="3" style="stroke:#038048;stroke-width:1.0;"/><text fill="#000000" font-family="sans-serif" font-size="14" lengthAdjust="spacing" textLength="116" x="508.5" y="707.0332">atributos:Atributo[]</text><rect fill="none" height="6" style="stroke:#C82930;stroke-width:1.0;" width="6" x="496.5" y="717.4141"/><text fill="#000000" font-family="sans-serif" font-size="14" lengthAdjust="spacing" textLength="153" x="508.5" y="724.6426">nodo_instanciado: Node</text><line style="stroke:#181818;stroke-width:0.5;" x1="489.5" x2="732.5" y1="731.7188" y2="731.7188"/><ellipse cx="499.5" cy="746.0234" fill="#84BE84" rx="3" ry="3" style="stroke:#038048;stroke-width:1.0;"/><text fill="#000000" font-family="sans-serif" font-size="14" lengthAdjust="spacing" textLength="196" x="508.5" y="750.252">equipar(personaje: Node): void</text><ellipse cx="499.5" cy="763.6328" fill="#84BE84" rx="3" ry="3" style="stroke:#038048;stroke-width:1.0;"/><text fill="#000000" font-family="sans-serif" font-size="14" lengthAdjust="spacing" textLength="219" x="508.5" y="767.8613">desequipar(personaje: Node): void</text><ellipse cx="499.5" cy="781.2422" fill="#84BE84" rx="3" ry="3" style="stroke:#038048;stroke-width:1.0;"/><text fill="#000000" font-family="sans-serif" font-size="14" lengthAdjust="spacing" textLength="166" x="508.5" y="785.4707">procesar(delta: float): void</text></g><!--class Arma--><g id="elem_Arma"><rect codeLine="49" fill="#F1F1F1" height="153.6563" id="Arma" rx="2.5" ry="2.5" style="stroke:#181818;stroke-width:0.5;" width="232" x="275" y="950"/><ellipse cx="370.25" cy="966" fill="#ADD1B2" rx="11" ry="11" style="stroke:#181818;stroke-width:1.0;"/><path d="M373.0156,961.875 Q373.1719,961.6563 373.3594,961.5469 Q373.5469,961.4375 373.7656,961.4375 Q374.1406,961.4375 374.375,961.7031 Q374.6094,961.9531 374.6094,962.5625 L374.6094,964.0156 Q374.6094,964.625 374.375,964.8906 Q374.1406,965.1563 373.7656,965.1563 Q373.4219,965.1563 373.2188,964.9531 Q373.0156,964.7656 372.9063,964.25 Q372.8594,963.8906 372.6719,963.7031 Q372.3438,963.3281 371.7344,963.1094 Q371.125,962.8906 370.5,962.8906 Q369.7344,962.8906 369.0938,963.2188 Q368.4688,963.5469 367.9688,964.2969 Q367.4844,965.0469 367.4844,966.0781 L367.4844,967.1719 Q367.4844,968.4063 368.375,969.2344 Q369.2656,970.0469 370.8594,970.0469 Q371.7969,970.0469 372.4531,969.7969 Q372.8438,969.6406 373.2656,969.2031 Q373.5313,968.9375 373.6719,968.8594 Q373.8281,968.7813 374.0313,968.7813 Q374.3594,968.7813 374.6094,969.0469 Q374.875,969.2969 374.875,969.6406 Q374.875,969.9844 374.5313,970.3906 Q374.0313,970.9688 373.2344,971.2969 Q372.1563,971.75 370.8594,971.75 Q369.3438,971.75 368.1406,971.125 Q367.1563,970.625 366.4688,969.5625 Q365.7813,968.4844 365.7813,967.2031 L365.7813,966.0469 Q365.7813,964.7188 366.3906,963.5781 Q367.0156,962.4219 368.1094,961.8125 Q369.2031,961.1875 370.4375,961.1875 Q371.1719,961.1875 371.8125,961.3594 Q372.4688,961.5156 373.0156,961.875 Z " fill="#000000"/><text fill="#000000" font-family="sans-serif" font-size="14" lengthAdjust="spacing" textLength="33" x="390.75" y="971.7285">Arma</text><line style="stroke:#181818;stroke-width:0.5;" x1="276" x2="506" y1="982" y2="982"/><rect fill="none" height="6" style="stroke:#C82930;stroke-width:1.0;" width="6" x="283" y="993.3047"/><text fill="#000000" font-family="sans-serif" font-size="14" lengthAdjust="spacing" textLength="94" x="295" y="1000.5332">da&#241;o_base: int</text><rect fill="none" height="6" style="stroke:#C82930;stroke-width:1.0;" width="6" x="283" y="1010.9141"/><text fill="#000000" font-family="sans-serif" font-size="14" lengthAdjust="spacing" textLength="94" x="295" y="1018.1426">cooldown: float</text><rect fill="none" height="6" style="stroke:#C82930;stroke-width:1.0;" width="6" x="283" y="1028.5234"/><text fill="#000000" font-family="sans-serif" font-size="14" lengthAdjust="spacing" textLength="142" x="295" y="1035.752">cooldown_timer: Timer</text><line style="stroke:#181818;stroke-width:0.5;" x1="276" x2="506" y1="1042.8281" y2="1042.8281"/><ellipse cx="286" cy="1057.1328" fill="#84BE84" rx="3" ry="3" style="stroke:#038048;stroke-width:1.0;"/><text fill="#000000" font-family="sans-serif" font-size="14" lengthAdjust="spacing" textLength="72" x="295" y="1061.3613">usar(): void</text><ellipse cx="286" cy="1074.7422" fill="#84BE84" rx="3" ry="3" style="stroke:#038048;stroke-width:1.0;"/><text fill="#000000" font-family="sans-serif" font-size="14" lengthAdjust="spacing" textLength="105" x="295" y="1078.9707">esta_listo(): bool</text><ellipse cx="286" cy="1092.3516" fill="#84BE84" rx="3" ry="3" style="stroke:#038048;stroke-width:1.0;"/><text fill="#000000" font-family="sans-serif" font-size="14" lengthAdjust="spacing" textLength="206" x="295" y="1096.5801">procesar_fisica(delta: float): void</text></g><!--class Armadura--><g id="elem_Armadura"><rect codeLine="58" fill="#F1F1F1" height="65.6094" id="Armadura" rx="2.5" ry="2.5" style="stroke:#181818;stroke-width:0.5;" width="138" x="542" y="994"/><ellipse cx="576.8" cy="1010" fill="#ADD1B2" rx="11" ry="11" style="stroke:#181818;stroke-width:1.0;"/><path d="M579.5656,1005.875 Q579.7219,1005.6563 579.9094,1005.5469 Q580.0969,1005.4375 580.3156,1005.4375 Q580.6906,1005.4375 580.925,1005.7031 Q581.1594,1005.9531 581.1594,1006.5625 L581.1594,1008.0156 Q581.1594,1008.625 580.925,1008.8906 Q580.6906,1009.1563 580.3156,1009.1563 Q579.9719,1009.1563 579.7688,1008.9531 Q579.5656,1008.7656 579.4563,1008.25 Q579.4094,1007.8906 579.2219,1007.7031 Q578.8938,1007.3281 578.2844,1007.1094 Q577.675,1006.8906 577.05,1006.8906 Q576.2844,1006.8906 575.6438,1007.2188 Q575.0188,1007.5469 574.5188,1008.2969 Q574.0344,1009.0469 574.0344,1010.0781 L574.0344,1011.1719 Q574.0344,1012.4063 574.925,1013.2344 Q575.8156,1014.0469 577.4094,1014.0469 Q578.3469,1014.0469 579.0031,1013.7969 Q579.3938,1013.6406 579.8156,1013.2031 Q580.0813,1012.9375 580.2219,1012.8594 Q580.3781,1012.7813 580.5813,1012.7813 Q580.9094,1012.7813 581.1594,1013.0469 Q581.425,1013.2969 581.425,1013.6406 Q581.425,1013.9844 581.0813,1014.3906 Q580.5813,1014.9688 579.7844,1015.2969 Q578.7063,1015.75 577.4094,1015.75 Q575.8938,1015.75 574.6906,1015.125 Q573.7063,1014.625 573.0188,1013.5625 Q572.3313,1012.4844 572.3313,1011.2031 L572.3313,1010.0469 Q572.3313,1008.7188 572.9406,1007.5781 Q573.5656,1006.4219 574.6594,1005.8125 Q575.7531,1005.1875 576.9875,1005.1875 Q577.7219,1005.1875 578.3625,1005.3594 Q579.0188,1005.5156 579.5656,1005.875 Z " fill="#000000"/><text fill="#000000" font-family="sans-serif" font-size="14" lengthAdjust="spacing" textLength="62" x="595.2" y="1015.7285">Armadura</text><line style="stroke:#181818;stroke-width:0.5;" x1="543" x2="679" y1="1026" y2="1026"/><line style="stroke:#181818;stroke-width:0.5;" x1="543" x2="679" y1="1034" y2="1034"/><ellipse cx="553" cy="1048.3047" fill="#84BE84" rx="3" ry="3" style="stroke:#038048;stroke-width:1.0;"/><text fill="#000000" font-family="sans-serif" font-size="14" lengthAdjust="spacing" textLength="112" x="562" y="1052.5332">obtener_slot(): int</text></g><!--class Recurso--><g id="elem_Recurso"><rect codeLine="62" fill="#F1F1F1" height="48" id="Recurso" rx="2.5" ry="2.5" style="stroke:#181818;stroke-width:0.5;" width="85" x="768.5" y="700.5"/><ellipse cx="783.5" cy="716.5" fill="#ADD1B2" rx="11" ry="11" style="stroke:#181818;stroke-width:1.0;"/><path d="M786.2656,712.375 Q786.4219,712.1563 786.6094,712.0469 Q786.7969,711.9375 787.0156,711.9375 Q787.3906,711.9375 787.625,712.2031 Q787.8594,712.4531 787.8594,713.0625 L787.8594,714.5156 Q787.8594,715.125 787.625,715.3906 Q787.3906,715.6563 787.0156,715.6563 Q786.6719,715.6563 786.4688,715.4531 Q786.2656,715.2656 786.1563,714.75 Q786.1094,714.3906 785.9219,714.2031 Q785.5938,713.8281 784.9844,713.6094 Q784.375,713.3906 783.75,713.3906 Q782.9844,713.3906 782.3438,713.7188 Q781.7188,714.0469 781.2188,714.7969 Q780.7344,715.5469 780.7344,716.5781 L780.7344,717.6719 Q780.7344,718.9063 781.625,719.7344 Q782.5156,720.5469 784.1094,720.5469 Q785.0469,720.5469 785.7031,720.2969 Q786.0938,720.1406 786.5156,719.7031 Q786.7813,719.4375 786.9219,719.3594 Q787.0781,719.2813 787.2813,719.2813 Q787.6094,719.2813 787.8594,719.5469 Q788.125,719.7969 788.125,720.1406 Q788.125,720.4844 787.7813,720.8906 Q787.2813,721.4688 786.4844,721.7969 Q785.4063,722.25 784.1094,722.25 Q782.5938,722.25 781.3906,721.625 Q780.4063,721.125 779.7188,720.0625 Q779.0313,718.9844 779.0313,717.7031 L779.0313,716.5469 Q779.0313,715.2188 779.6406,714.0781 Q780.2656,712.9219 781.3594,712.3125 Q782.4531,711.6875 783.6875,711.6875 Q784.4219,711.6875 785.0625,711.8594 Q785.7188,712.0156 786.2656,712.375 Z " fill="#000000"/><text fill="#000000" font-family="sans-serif" font-size="14" lengthAdjust="spacing" textLength="53" x="797.5" y="722.2285">Recurso</text><line style="stroke:#181818;stroke-width:0.5;" x1="769.5" x2="852.5" y1="732.5" y2="732.5"/><line style="stroke:#181818;stroke-width:0.5;" x1="769.5" x2="852.5" y1="740.5" y2="740.5"/></g><!--class Hechizo--><g id="elem_Hechizo"><rect codeLine="65" fill="#F1F1F1" height="65.6094" id="Hechizo" rx="2.5" ry="2.5" style="stroke:#181818;stroke-width:0.5;" width="135" x="888.5" y="691.5"/><ellipse cx="927.8" cy="707.5" fill="#ADD1B2" rx="11" ry="11" style="stroke:#181818;stroke-width:1.0;"/><path d="M930.5656,703.375 Q930.7219,703.1563 930.9094,703.0469 Q931.0969,702.9375 931.3156,702.9375 Q931.6906,702.9375 931.925,703.2031 Q932.1594,703.4531 932.1594,704.0625 L932.1594,705.5156 Q932.1594,706.125 931.925,706.3906 Q931.6906,706.6563 931.3156,706.6563 Q930.9719,706.6563 930.7688,706.4531 Q930.5656,706.2656 930.4563,705.75 Q930.4094,705.3906 930.2219,705.2031 Q929.8938,704.8281 929.2844,704.6094 Q928.675,704.3906 928.05,704.3906 Q927.2844,704.3906 926.6438,704.7188 Q926.0188,705.0469 925.5188,705.7969 Q925.0344,706.5469 925.0344,707.5781 L925.0344,708.6719 Q925.0344,709.9063 925.925,710.7344 Q926.8156,711.5469 928.4094,711.5469 Q929.3469,711.5469 930.0031,711.2969 Q930.3938,711.1406 930.8156,710.7031 Q931.0813,710.4375 931.2219,710.3594 Q931.3781,710.2813 931.5813,710.2813 Q931.9094,710.2813 932.1594,710.5469 Q932.425,710.7969 932.425,711.1406 Q932.425,711.4844 932.0813,711.8906 Q931.5813,712.4688 930.7844,712.7969 Q929.7063,713.25 928.4094,713.25 Q926.8938,713.25 925.6906,712.625 Q924.7063,712.125 924.0188,711.0625 Q923.3313,709.9844 923.3313,708.7031 L923.3313,707.5469 Q923.3313,706.2188 923.9406,705.0781 Q924.5656,703.9219 925.6594,703.3125 Q926.7531,702.6875 927.9875,702.6875 Q928.7219,702.6875 929.3625,702.8594 Q930.0188,703.0156 930.5656,703.375 Z " fill="#000000"/><text fill="#000000" font-family="sans-serif" font-size="14" lengthAdjust="spacing" textLength="49" x="947.2" y="713.2285">Hechizo</text><line style="stroke:#181818;stroke-width:0.5;" x1="889.5" x2="1022.5" y1="723.5" y2="723.5"/><rect fill="none" height="6" style="stroke:#C82930;stroke-width:1.0;" width="6" x="896.5" y="734.8047"/><text fill="#000000" font-family="sans-serif" font-size="14" lengthAdjust="spacing" textLength="109" x="908.5" y="742.0332">objetivo: Objetivo</text><line style="stroke:#181818;stroke-width:0.5;" x1="889.5" x2="1022.5" y1="749.1094" y2="749.1094"/></g><!--class ArmaRango--><g id="elem_ArmaRango"><rect codeLine="69" fill="#F1F1F1" height="100.8281" id="ArmaRango" rx="2.5" ry="2.5" style="stroke:#181818;stroke-width:0.5;" width="232" x="7" y="1226.5"/><ellipse cx="81.25" cy="1242.5" fill="#ADD1B2" rx="11" ry="11" style="stroke:#181818;stroke-width:1.0;"/><path d="M84.0156,1238.375 Q84.1719,1238.1563 84.3594,1238.0469 Q84.5469,1237.9375 84.7656,1237.9375 Q85.1406,1237.9375 85.375,1238.2031 Q85.6094,1238.4531 85.6094,1239.0625 L85.6094,1240.5156 Q85.6094,1241.125 85.375,1241.3906 Q85.1406,1241.6563 84.7656,1241.6563 Q84.4219,1241.6563 84.2188,1241.4531 Q84.0156,1241.2656 83.9063,1240.75 Q83.8594,1240.3906 83.6719,1240.2031 Q83.3438,1239.8281 82.7344,1239.6094 Q82.125,1239.3906 81.5,1239.3906 Q80.7344,1239.3906 80.0938,1239.7188 Q79.4688,1240.0469 78.9688,1240.7969 Q78.4844,1241.5469 78.4844,1242.5781 L78.4844,1243.6719 Q78.4844,1244.9063 79.375,1245.7344 Q80.2656,1246.5469 81.8594,1246.5469 Q82.7969,1246.5469 83.4531,1246.2969 Q83.8438,1246.1406 84.2656,1245.7031 Q84.5313,1245.4375 84.6719,1245.3594 Q84.8281,1245.2813 85.0313,1245.2813 Q85.3594,1245.2813 85.6094,1245.5469 Q85.875,1245.7969 85.875,1246.1406 Q85.875,1246.4844 85.5313,1246.8906 Q85.0313,1247.4688 84.2344,1247.7969 Q83.1563,1248.25 81.8594,1248.25 Q80.3438,1248.25 79.1406,1247.625 Q78.1563,1247.125 77.4688,1246.0625 Q76.7813,1244.9844 76.7813,1243.7031 L76.7813,1242.5469 Q76.7813,1241.2188 77.3906,1240.0781 Q78.0156,1238.9219 79.1094,1238.3125 Q80.2031,1237.6875 81.4375,1237.6875 Q82.1719,1237.6875 82.8125,1237.8594 Q83.4688,1238.0156 84.0156,1238.375 Z " fill="#000000"/><text fill="#000000" font-family="sans-serif" font-size="14" lengthAdjust="spacing" textLength="75" x="101.75" y="1248.2285">ArmaRango</text><line style="stroke:#181818;stroke-width:0.5;" x1="8" x2="238" y1="1258.5" y2="1258.5"/><rect fill="none" height="6" style="stroke:#C82930;stroke-width:1.0;" width="6" x="15" y="1269.8047"/><text fill="#000000" font-family="sans-serif" font-size="14" lengthAdjust="spacing" textLength="148" x="27" y="1277.0332">proyectil: PackedScene</text><line style="stroke:#181818;stroke-width:0.5;" x1="8" x2="238" y1="1284.1094" y2="1284.1094"/><ellipse cx="18" cy="1298.4141" fill="#84BE84" rx="3" ry="3" style="stroke:#038048;stroke-width:1.0;"/><text fill="#000000" font-family="sans-serif" font-size="14" lengthAdjust="spacing" textLength="72" x="27" y="1302.6426">usar(): void</text><ellipse cx="18" cy="1316.0234" fill="#84BE84" rx="3" ry="3" style="stroke:#038048;stroke-width:1.0;"/><text fill="#000000" font-family="sans-serif" font-size="14" lengthAdjust="spacing" textLength="206" x="27" y="1320.252">procesar_fisica(delta: float): void</text></g><!--class ArmaMele--><g id="elem_ArmaMele"><rect codeLine="75" fill="#F1F1F1" height="83.2188" id="ArmaMele" rx="2.5" ry="2.5" style="stroke:#181818;stroke-width:0.5;" width="232" x="274" y="1235.5"/><ellipse cx="354.25" cy="1251.5" fill="#ADD1B2" rx="11" ry="11" style="stroke:#181818;stroke-width:1.0;"/><path d="M357.0156,1247.375 Q357.1719,1247.1563 357.3594,1247.0469 Q357.5469,1246.9375 357.7656,1246.9375 Q358.1406,1246.9375 358.375,1247.2031 Q358.6094,1247.4531 358.6094,1248.0625 L358.6094,1249.5156 Q358.6094,1250.125 358.375,1250.3906 Q358.1406,1250.6563 357.7656,1250.6563 Q357.4219,1250.6563 357.2188,1250.4531 Q357.0156,1250.2656 356.9063,1249.75 Q356.8594,1249.3906 356.6719,1249.2031 Q356.3438,1248.8281 355.7344,1248.6094 Q355.125,1248.3906 354.5,1248.3906 Q353.7344,1248.3906 353.0938,1248.7188 Q352.4688,1249.0469 351.9688,1249.7969 Q351.4844,1250.5469 351.4844,1251.5781 L351.4844,1252.6719 Q351.4844,1253.9063 352.375,1254.7344 Q353.2656,1255.5469 354.8594,1255.5469 Q355.7969,1255.5469 356.4531,1255.2969 Q356.8438,1255.1406 357.2656,1254.7031 Q357.5313,1254.4375 357.6719,1254.3594 Q357.8281,1254.2813 358.0313,1254.2813 Q358.3594,1254.2813 358.6094,1254.5469 Q358.875,1254.7969 358.875,1255.1406 Q358.875,1255.4844 358.5313,1255.8906 Q358.0313,1256.4688 357.2344,1256.7969 Q356.1563,1257.25 354.8594,1257.25 Q353.3438,1257.25 352.1406,1256.625 Q351.1563,1256.125 350.4688,1255.0625 Q349.7813,1253.9844 349.7813,1252.7031 L349.7813,1251.5469 Q349.7813,1250.2188 350.3906,1249.0781 Q351.0156,1247.9219 352.1094,1247.3125 Q353.2031,1246.6875 354.4375,1246.6875 Q355.1719,1246.6875 355.8125,1246.8594 Q356.4688,1247.0156 357.0156,1247.375 Z " fill="#000000"/><text fill="#000000" font-family="sans-serif" font-size="14" lengthAdjust="spacing" textLength="63" x="374.75" y="1257.2285">ArmaMele</text><line style="stroke:#181818;stroke-width:0.5;" x1="275" x2="505" y1="1267.5" y2="1267.5"/><line style="stroke:#181818;stroke-width:0.5;" x1="275" x2="505" y1="1275.5" y2="1275.5"/><ellipse cx="285" cy="1289.8047" fill="#84BE84" rx="3" ry="3" style="stroke:#038048;stroke-width:1.0;"/><text fill="#000000" font-family="sans-serif" font-size="14" lengthAdjust="spacing" textLength="72" x="294" y="1294.0332">usar(): void</text><ellipse cx="285" cy="1307.4141" fill="#84BE84" rx="3" ry="3" style="stroke:#038048;stroke-width:1.0;"/><text fill="#000000" font-family="sans-serif" font-size="14" lengthAdjust="spacing" textLength="206" x="294" y="1311.6426">procesar_fisica(delta: float): void</text></g><!--class ArmaArea--><g id="elem_ArmaArea"><rect codeLine="80" fill="#F1F1F1" height="100.8281" id="ArmaArea" rx="2.5" ry="2.5" style="stroke:#181818;stroke-width:0.5;" width="232" x="541" y="1226.5"/><ellipse cx="621.25" cy="1242.5" fill="#ADD1B2" rx="11" ry="11" style="stroke:#181818;stroke-width:1.0;"/><path d="M624.0156,1238.375 Q624.1719,1238.1563 624.3594,1238.0469 Q624.5469,1237.9375 624.7656,1237.9375 Q625.1406,1237.9375 625.375,1238.2031 Q625.6094,1238.4531 625.6094,1239.0625 L625.6094,1240.5156 Q625.6094,1241.125 625.375,1241.3906 Q625.1406,1241.6563 624.7656,1241.6563 Q624.4219,1241.6563 624.2188,1241.4531 Q624.0156,1241.2656 623.9063,1240.75 Q623.8594,1240.3906 623.6719,1240.2031 Q623.3438,1239.8281 622.7344,1239.6094 Q622.125,1239.3906 621.5,1239.3906 Q620.7344,1239.3906 620.0938,1239.7188 Q619.4688,1240.0469 618.9688,1240.7969 Q618.4844,1241.5469 618.4844,1242.5781 L618.4844,1243.6719 Q618.4844,1244.9063 619.375,1245.7344 Q620.2656,1246.5469 621.8594,1246.5469 Q622.7969,1246.5469 623.4531,1246.2969 Q623.8438,1246.1406 624.2656,1245.7031 Q624.5313,1245.4375 624.6719,1245.3594 Q624.8281,1245.2813 625.0313,1245.2813 Q625.3594,1245.2813 625.6094,1245.5469 Q625.875,1245.7969 625.875,1246.1406 Q625.875,1246.4844 625.5313,1246.8906 Q625.0313,1247.4688 624.2344,1247.7969 Q623.1563,1248.25 621.8594,1248.25 Q620.3438,1248.25 619.1406,1247.625 Q618.1563,1247.125 617.4688,1246.0625 Q616.7813,1244.9844 616.7813,1243.7031 L616.7813,1242.5469 Q616.7813,1241.2188 617.3906,1240.0781 Q618.0156,1238.9219 619.1094,1238.3125 Q620.2031,1237.6875 621.4375,1237.6875 Q622.1719,1237.6875 622.8125,1237.8594 Q623.4688,1238.0156 624.0156,1238.375 Z " fill="#000000"/><text fill="#000000" font-family="sans-serif" font-size="14" lengthAdjust="spacing" textLength="63" x="641.75" y="1248.2285">ArmaArea</text><line style="stroke:#181818;stroke-width:0.5;" x1="542" x2="772" y1="1258.5" y2="1258.5"/><rect fill="none" height="6" style="stroke:#C82930;stroke-width:1.0;" width="6" x="549" y="1269.8047"/><text fill="#000000" font-family="sans-serif" font-size="14" lengthAdjust="spacing" textLength="67" x="561" y="1277.0332">radio: float</text><line style="stroke:#181818;stroke-width:0.5;" x1="542" x2="772" y1="1284.1094" y2="1284.1094"/><ellipse cx="552" cy="1298.4141" fill="#84BE84" rx="3" ry="3" style="stroke:#038048;stroke-width:1.0;"/><text fill="#000000" font-family="sans-serif" font-size="14" lengthAdjust="spacing" textLength="72" x="561" y="1302.6426">usar(): void</text><ellipse cx="552" cy="1316.0234" fill="#84BE84" rx="3" ry="3" style="stroke:#038048;stroke-width:1.0;"/><text fill="#000000" font-family="sans-serif" font-size="14" lengthAdjust="spacing" textLength="206" x="561" y="1320.252">procesar_fisica(delta: float): void</text></g><!--class Atributo--><g id="elem_Atributo"><rect codeLine="109" fill="#F1F1F1" height="118.4375" id="Atributo" rx="2.5" ry="2.5" style="stroke:#181818;stroke-width:0.5;" width="364" x="715" y="968"/><ellipse cx="868.25" cy="984" fill="#ADD1B2" rx="11" ry="11" style="stroke:#181818;stroke-width:1.0;"/><path d="M871.0156,979.875 Q871.1719,979.6563 871.3594,979.5469 Q871.5469,979.4375 871.7656,979.4375 Q872.1406,979.4375 872.375,979.7031 Q872.6094,979.9531 872.6094,980.5625 L872.6094,982.0156 Q872.6094,982.625 872.375,982.8906 Q872.1406,983.1563 871.7656,983.1563 Q871.4219,983.1563 871.2188,982.9531 Q871.0156,982.7656 870.9063,982.25 Q870.8594,981.8906 870.6719,981.7031 Q870.3438,981.3281 869.7344,981.1094 Q869.125,980.8906 868.5,980.8906 Q867.7344,980.8906 867.0938,981.2188 Q866.4688,981.5469 865.9688,982.2969 Q865.4844,983.0469 865.4844,984.0781 L865.4844,985.1719 Q865.4844,986.4063 866.375,987.2344 Q867.2656,988.0469 868.8594,988.0469 Q869.7969,988.0469 870.4531,987.7969 Q870.8438,987.6406 871.2656,987.2031 Q871.5313,986.9375 871.6719,986.8594 Q871.8281,986.7813 872.0313,986.7813 Q872.3594,986.7813 872.6094,987.0469 Q872.875,987.2969 872.875,987.6406 Q872.875,987.9844 872.5313,988.3906 Q872.0313,988.9688 871.2344,989.2969 Q870.1563,989.75 868.8594,989.75 Q867.3438,989.75 866.1406,989.125 Q865.1563,988.625 864.4688,987.5625 Q863.7813,986.4844 863.7813,985.2031 L863.7813,984.0469 Q863.7813,982.7188 864.3906,981.5781 Q865.0156,980.4219 866.1094,979.8125 Q867.2031,979.1875 868.4375,979.1875 Q869.1719,979.1875 869.8125,979.3594 Q870.4688,979.5156 871.0156,979.875 Z " fill="#000000"/><text fill="#000000" font-family="sans-serif" font-size="14" lengthAdjust="spacing" textLength="49" x="888.75" y="989.7285">Atributo</text><line style="stroke:#181818;stroke-width:0.5;" x1="716" x2="1078" y1="1000" y2="1000"/><line style="stroke:#181818;stroke-width:0.5;" x1="716" x2="1078" y1="1008" y2="1008"/><ellipse cx="726" cy="1022.3047" fill="#84BE84" rx="3" ry="3" style="stroke:#038048;stroke-width:1.0;"/><text fill="#000000" font-family="sans-serif" font-size="14" lengthAdjust="spacing" textLength="338" x="735" y="1026.5332">static crear(_valor: int, _rareza: Item.Rareza): Atributo</text><ellipse cx="726" cy="1039.9141" fill="#84BE84" rx="3" ry="3" style="stroke:#038048;stroke-width:1.0;"/><text fill="#000000" font-family="sans-serif" font-size="14" lengthAdjust="spacing" textLength="268" x="735" y="1044.1426">descripcion(valor_base: float = 0.0): String</text><ellipse cx="726" cy="1057.5234" fill="#84BE84" rx="3" ry="3" style="stroke:#038048;stroke-width:1.0;"/><text fill="#000000" font-family="sans-serif" font-size="14" lengthAdjust="spacing" textLength="131" x="735" y="1061.752">get_nombre(): String</text><ellipse cx="726" cy="1075.1328" fill="#84BE84" rx="3" ry="3" style="stroke:#038048;stroke-width:1.0;"/><text fill="#000000" font-family="sans-serif" font-size="14" lengthAdjust="spacing" textLength="235" x="735" y="1079.3613">calcular(valor_base: float = 0.0): float</text></g><!--class Tipo--><g id="elem_Tipo"><rect codeLine="118" fill="#F1F1F1" height="224.0938" id="Tipo" rx="2.5" ry="2.5" style="stroke:#181818;stroke-width:0.5;" width="177" x="808.5" y="1165"/><ellipse cx="878.75" cy="1181" fill="#EB937F" rx="11" ry="11" style="stroke:#181818;stroke-width:1.0;"/><path d="M877.6094,1181.7969 L877.6094,1184.2969 L881.9375,1184.2969 L881.9375,1183.375 Q881.9375,1182.7656 882.1719,1182.5 Q882.4219,1182.2344 882.7969,1182.2344 Q883.1719,1182.2344 883.4063,1182.5 Q883.6406,1182.7656 883.6406,1183.375 L883.6406,1186 L875.6406,1186 Q875.0156,1186 874.75,1185.7656 Q874.5,1185.5313 874.5,1185.1406 Q874.5,1184.7656 874.7656,1184.5313 Q875.0313,1184.2969 875.6406,1184.2969 L875.9063,1184.2969 L875.9063,1177.6406 L875.6406,1177.6406 Q875.0156,1177.6406 874.75,1177.4063 Q874.5,1177.1719 874.5,1176.7813 Q874.5,1176.4063 874.75,1176.1719 Q875.0156,1175.9375 875.6406,1175.9375 L883.2656,1175.9375 L883.2656,1178.5313 Q883.2656,1179.1406 883.0313,1179.4063 Q882.8125,1179.6563 882.4219,1179.6563 Q882.0469,1179.6563 881.8125,1179.4063 Q881.5781,1179.1406 881.5781,1178.5313 L881.5781,1177.6406 L877.6094,1177.6406 L877.6094,1180.0938 L879.0938,1180.0938 Q879.0938,1179.4375 879.2188,1179.25 Q879.4844,1178.8438 879.9531,1178.8438 Q880.3281,1178.8438 880.5625,1179.1094 Q880.7969,1179.3594 880.7969,1179.9688 L880.7969,1181.9375 Q880.7969,1182.4844 880.6719,1182.6719 Q880.4063,1183.0625 879.9531,1183.0625 Q879.4844,1183.0625 879.2188,1182.6563 Q879.0938,1182.4688 879.0938,1181.7969 L877.6094,1181.7969 Z " fill="#000000"/><text fill="#000000" font-family="sans-serif" font-size="14" lengthAdjust="spacing" textLength="28" x="899.25" y="1186.7285">Tipo</text><line style="stroke:#181818;stroke-width:0.5;" x1="809.5" x2="984.5" y1="1197" y2="1197"/><text fill="#000000" font-family="sans-serif" font-size="14" lengthAdjust="spacing" textLength="39" x="814.5" y="1215.5332">DA&#209;O</text><text fill="#000000" font-family="sans-serif" font-size="14" lengthAdjust="spacing" textLength="140" x="814.5" y="1233.1426">DA&#209;O_PORCENTUAL</text><text fill="#000000" font-family="sans-serif" font-size="14" lengthAdjust="spacing" textLength="64" x="814.5" y="1250.752">DEFENSA</text><text fill="#000000" font-family="sans-serif" font-size="14" lengthAdjust="spacing" textLength="165" x="814.5" y="1268.3613">DEFENSA_PORCENTUAL</text><text fill="#000000" font-family="sans-serif" font-size="14" lengthAdjust="spacing" textLength="79" x="814.5" y="1285.9707">VELOCIDAD</text><text fill="#000000" font-family="sans-serif" font-size="14" lengthAdjust="spacing" textLength="143" x="814.5" y="1303.5801">VELOCIDAD_ATAQUE</text><text fill="#000000" font-family="sans-serif" font-size="14" lengthAdjust="spacing" textLength="56" x="814.5" y="1321.1895">CRITICO</text><text fill="#000000" font-family="sans-serif" font-size="14" lengthAdjust="spacing" textLength="111" x="814.5" y="1338.7988">CRITICO_BONUS</text><text fill="#000000" font-family="sans-serif" font-size="14" lengthAdjust="spacing" textLength="59" x="814.5" y="1356.4082">EVASION</text><text fill="#000000" font-family="sans-serif" font-size="14" lengthAdjust="spacing" textLength="117" x="814.5" y="1374.0176">ALCANCE_EXTRA</text><line style="stroke:#181818;stroke-width:0.5;" x1="809.5" x2="984.5" y1="1381.0938" y2="1381.0938"/></g><!--class ItemRect--><g id="elem_ItemRect"><rect codeLine="134" fill="#F1F1F1" height="294.5313" id="ItemRect" rx="2.5" ry="2.5" style="stroke:#181818;stroke-width:0.5;" width="436" x="1059" y="577"/><ellipse cx="1245.25" cy="593" fill="#ADD1B2" rx="11" ry="11" style="stroke:#181818;stroke-width:1.0;"/><path d="M1248.0156,588.875 Q1248.1719,588.6563 1248.3594,588.5469 Q1248.5469,588.4375 1248.7656,588.4375 Q1249.1406,588.4375 1249.375,588.7031 Q1249.6094,588.9531 1249.6094,589.5625 L1249.6094,591.0156 Q1249.6094,591.625 1249.375,591.8906 Q1249.1406,592.1563 1248.7656,592.1563 Q1248.4219,592.1563 1248.2188,591.9531 Q1248.0156,591.7656 1247.9063,591.25 Q1247.8594,590.8906 1247.6719,590.7031 Q1247.3438,590.3281 1246.7344,590.1094 Q1246.125,589.8906 1245.5,589.8906 Q1244.7344,589.8906 1244.0938,590.2188 Q1243.4688,590.5469 1242.9688,591.2969 Q1242.4844,592.0469 1242.4844,593.0781 L1242.4844,594.1719 Q1242.4844,595.4063 1243.375,596.2344 Q1244.2656,597.0469 1245.8594,597.0469 Q1246.7969,597.0469 1247.4531,596.7969 Q1247.8438,596.6406 1248.2656,596.2031 Q1248.5313,595.9375 1248.6719,595.8594 Q1248.8281,595.7813 1249.0313,595.7813 Q1249.3594,595.7813 1249.6094,596.0469 Q1249.875,596.2969 1249.875,596.6406 Q1249.875,596.9844 1249.5313,597.3906 Q1249.0313,597.9688 1248.2344,598.2969 Q1247.1563,598.75 1245.8594,598.75 Q1244.3438,598.75 1243.1406,598.125 Q1242.1563,597.625 1241.4688,596.5625 Q1240.7813,595.4844 1240.7813,594.2031 L1240.7813,593.0469 Q1240.7813,591.7188 1241.3906,590.5781 Q1242.0156,589.4219 1243.1094,588.8125 Q1244.2031,588.1875 1245.4375,588.1875 Q1246.1719,588.1875 1246.8125,588.3594 Q1247.4688,588.5156 1248.0156,588.875 Z " fill="#000000"/><text fill="#000000" font-family="sans-serif" font-size="14" lengthAdjust="spacing" textLength="55" x="1265.75" y="598.7285">ItemRect</text><line style="stroke:#181818;stroke-width:0.5;" x1="1060" x2="1494" y1="609" y2="609"/><text fill="#000000" font-family="sans-serif" font-size="14" lengthAdjust="spacing" textLength="104" x="1079" y="627.5332">clickeado: signal</text><text fill="#000000" font-family="sans-serif" font-size="14" lengthAdjust="spacing" textLength="182" x="1079" y="645.1426">clickeado_secundario: signal</text><text fill="#000000" font-family="sans-serif" font-size="14" lengthAdjust="spacing" textLength="4" x="1079" y="662.752">&#160;</text><rect fill="none" height="6" style="stroke:#C82930;stroke-width:1.0;" width="6" x="1067" y="673.1328"/><text fill="#000000" font-family="sans-serif" font-size="14" lengthAdjust="spacing" textLength="110" x="1079" y="680.3613">nivel_label: Label</text><rect fill="none" height="6" style="stroke:#C82930;stroke-width:1.0;" width="6" x="1067" y="690.7422"/><text fill="#000000" font-family="sans-serif" font-size="14" lengthAdjust="spacing" textLength="109" x="1079" y="697.9707">atrib_label: Label</text><line style="stroke:#181818;stroke-width:0.5;" x1="1060" x2="1494" y1="705.0469" y2="705.0469"/><ellipse cx="1070" cy="719.3516" fill="#84BE84" rx="3" ry="3" style="stroke:#038048;stroke-width:1.0;"/><text fill="#000000" font-family="sans-serif" font-size="14" lengthAdjust="spacing" textLength="98" x="1079" y="723.5801">get_item(): Item</text><ellipse cx="1070" cy="736.9609" fill="#84BE84" rx="3" ry="3" style="stroke:#038048;stroke-width:1.0;"/><text fill="#000000" font-family="sans-serif" font-size="14" lengthAdjust="spacing" textLength="68" x="1079" y="741.1895">pop(): Item</text><ellipse cx="1070" cy="754.5703" fill="#84BE84" rx="3" ry="3" style="stroke:#038048;stroke-width:1.0;"/><text fill="#000000" font-family="sans-serif" font-size="14" lengthAdjust="spacing" textLength="220" x="1079" y="758.7988">_gui_input(event: InputEvent): void</text><ellipse cx="1070" cy="772.1797" fill="#84BE84" rx="3" ry="3" style="stroke:#038048;stroke-width:1.0;"/><text fill="#000000" font-family="sans-serif" font-size="14" lengthAdjust="spacing" textLength="225" x="1079" y="776.4082">_get_drag_data(_position: Vector2)</text><ellipse cx="1070" cy="789.7891" fill="#84BE84" rx="3" ry="3" style="stroke:#038048;stroke-width:1.0;"/><text fill="#000000" font-family="sans-serif" font-size="14" lengthAdjust="spacing" textLength="320" x="1079" y="794.0176">_drop_data(_position: Vector2, data: Variant): void</text><ellipse cx="1070" cy="807.3984" fill="#84BE84" rx="3" ry="3" style="stroke:#038048;stroke-width:1.0;"/><text fill="#000000" font-family="sans-serif" font-size="14" lengthAdjust="spacing" textLength="410" x="1079" y="811.627">mover_a_slot(nuevo_slot: Control, pos_objetivo: Vector2): Signal</text><ellipse cx="1070" cy="825.0078" fill="#84BE84" rx="3" ry="3" style="stroke:#038048;stroke-width:1.0;"/><text fill="#000000" font-family="sans-serif" font-size="14" lengthAdjust="spacing" textLength="159" x="1079" y="829.2363">_al_entrar_mouse(): void</text><ellipse cx="1070" cy="842.6172" fill="#84BE84" rx="3" ry="3" style="stroke:#038048;stroke-width:1.0;"/><text fill="#000000" font-family="sans-serif" font-size="14" lengthAdjust="spacing" textLength="147" x="1079" y="846.8457">_al_salir_mouse(): void</text><ellipse cx="1070" cy="860.2266" fill="#84BE84" rx="3" ry="3" style="stroke:#038048;stroke-width:1.0;"/><text fill="#000000" font-family="sans-serif" font-size="14" lengthAdjust="spacing" textLength="83" x="1079" y="864.4551">borrar(): void</text></g><!--reverse link Rareza to Item--><g id="link_Rareza_Item"><path codeLine="10" d="M1117,149.07 C1117,196.96 1117,254.75 1117,300.56 " fill="none" id="Rareza-backto-Item" style="stroke:#181818;stroke-width:1.0;"/><polygon fill="#181818" points="1117,143.07,1113,152.07,1117,148.07,1121,152.07,1117,143.07" style="stroke:#181818;stroke-width:1.0;"/></g><!--reverse link Grupo to TipoItem--><g id="link_Grupo_TipoItem"><path codeLine="30" d="M1589.5596,521.7738 C1602.7996,563.8838 1614.85,602.2 1626.37,638.82 " fill="none" id="Grupo-backto-TipoItem" style="stroke:#181818;stroke-width:1.0;"/><polygon fill="#181818" points="1587.76,516.05,1586.6436,525.8354,1589.2597,520.8198,1594.2753,523.4359,1587.76,516.05" style="stroke:#181818;stroke-width:1.0;"/></g><!--reverse link Resource to Item--><g id="link_Resource_Item"><path codeLine="86" d="M1507.6703,108.8648 C1431.6903,157.5048 1270.02,261.03 1176.86,320.67 " fill="none" id="Resource-backto-Item" style="stroke:#181818;stroke-width:1.0;"/><polygon fill="none" points="1522.83,99.16,1504.4353,103.8115,1510.9052,113.918,1522.83,99.16" style="stroke:#181818;stroke-width:1.0;"/></g><!--reverse link Item to Equipable--><g id="link_Item_Equipable"><path codeLine="87" d="M1041.3137,397.7567 C966.1337,435.3867 850.71,497.9 751,577 C721.51,600.39 692.21,629.83 668.1,656.16 " fill="none" id="Item-backto-Equipable" style="stroke:#181818;stroke-width:1.0;"/><polygon fill="none" points="1057.41,389.7,1038.6282,392.3913,1043.9993,403.1221,1057.41,389.7" style="stroke:#181818;stroke-width:1.0;"/></g><!--reverse link Item to Recurso--><g id="link_Item_Recurso"><path codeLine="88" d="M1042.6621,411.5832 C987.9521,450.8932 922.48,504.81 871,577 C843.15,616.05 825.39,669.93 816.9,700.28 " fill="none" id="Item-backto-Recurso" style="stroke:#181818;stroke-width:1.0;"/><polygon fill="none" points="1057.28,401.08,1039.161,406.7106,1046.1632,416.4558,1057.28,401.08" style="stroke:#181818;stroke-width:1.0;"/></g><!--reverse link Item to Hechizo--><g id="link_Item_Hechizo"><path codeLine="89" d="M1083.8237,435.6905 C1049.5137,512.9405 997.44,630.2 970.29,691.33 " fill="none" id="Item-backto-Hechizo" style="stroke:#181818;stroke-width:1.0;"/><polygon fill="none" points="1091.13,419.24,1078.3402,433.255,1089.3071,438.1259,1091.13,419.24" style="stroke:#181818;stroke-width:1.0;"/></g><!--reverse link Equipable to Arma--><g id="link_Equipable_Arma"><path codeLine="90" d="M551.2672,807.0839 C517.1372,853.7039 482.22,901.4 446.73,949.88 " fill="none" id="Equipable-backto-Arma" style="stroke:#181818;stroke-width:1.0;"/><polygon fill="none" points="561.9,792.56,546.4259,803.5396,556.1085,810.6282,561.9,792.56" style="stroke:#181818;stroke-width:1.0;"/></g><!--reverse link Equipable to Armadura--><g id="link_Equipable_Armadura"><path codeLine="91" d="M611,810.56 C611,873.18 611,945.95 611,993.76 " fill="none" id="Equipable-backto-Armadura" style="stroke:#181818;stroke-width:1.0;"/><polygon fill="none" points="611,792.56,605,810.56,617,810.56,611,792.56" style="stroke:#181818;stroke-width:1.0;"/></g><!--reverse link Arma to ArmaRango--><g id="link_Arma_ArmaRango"><path codeLine="92" d="M295.5592,1116.316 C252.6292,1156.046 214.54,1191.3 176.73,1226.28 " fill="none" id="Arma-backto-ArmaRango" style="stroke:#181818;stroke-width:1.0;"/><polygon fill="none" points="308.77,1104.09,291.4839,1111.9124,299.6346,1120.7196,308.77,1104.09" style="stroke:#181818;stroke-width:1.0;"/></g><!--reverse link Arma to ArmaMele--><g id="link_Arma_ArmaMele"><path codeLine="93" d="M390.6193,1122.0899 C390.4493,1165.3799 390.31,1199.87 390.16,1235.37 " fill="none" id="Arma-backto-ArmaMele" style="stroke:#181818;stroke-width:1.0;"/><polygon fill="none" points="390.69,1104.09,384.6194,1122.0663,396.6193,1122.1134,390.69,1104.09" style="stroke:#181818;stroke-width:1.0;"/></g><!--reverse link Arma to ArmaArea--><g id="link_Arma_ArmaArea"><path codeLine="94" d="M485.7836,1116.3668 C528.3836,1156.0968 566.15,1191.3 603.67,1226.28 " fill="none" id="Arma-backto-ArmaArea" style="stroke:#181818;stroke-width:1.0;"/><polygon fill="none" points="472.62,1104.09,481.6914,1120.7546,489.8759,1111.9789,472.62,1104.09" style="stroke:#181818;stroke-width:1.0;"/></g><!--reverse link Resource to TipoItem--><g id="link_Resource_TipoItem"><path codeLine="106" d="M1581.6709,114.7623 C1595.7909,139.6923 1608.15,165.35 1618,204 C1656.13,353.57 1658.96,534.73 1656.62,638.8 " fill="none" id="Resource-backto-TipoItem" style="stroke:#181818;stroke-width:1.0;"/><polygon fill="none" points="1572.8,99.1,1576.4501,117.7193,1586.8917,111.8053,1572.8,99.1" style="stroke:#181818;stroke-width:1.0;"/></g><!--reverse link Item to TipoItem--><g id="link_Item_TipoItem"><path codeLine="107" d="M1187.7489,391.429 C1268.3989,427.409 1403.59,493.18 1513,577 C1536.6,595.08 1559.87,617.18 1580.46,638.69 " fill="none" id="Item-backto-TipoItem" style="stroke:#181818;stroke-width:1.0;"/><polygon fill="#181818" points="1176.79,386.54,1180.6398,392.6375,1187.7489,391.429,1183.8991,385.3316,1176.79,386.54" style="stroke:#181818;stroke-width:1.0;"/></g><!--link Equipable to Atributo--><g id="link_Equipable_Atributo"><path codeLine="116" d="M674.83,792.56 C724.88,845.15 789.6839,913.2334 837.4339,963.4134 " fill="none" id="Equipable-to-Atributo" style="stroke:#181818;stroke-width:1.0;"/><polygon fill="#181818" points="841.57,967.76,838.2636,958.4827,838.1233,964.1379,832.4681,963.9975,841.57,967.76" style="stroke:#181818;stroke-width:1.0;"/><text fill="#000000" font-family="sans-serif" font-size="13" lengthAdjust="spacing" textLength="21" x="790" y="916.4951">usa</text></g><!--link Atributo to Tipo--><g id="link_Atributo_Tipo"><path codeLine="131" d="M897,1086.14 C897,1109.62 897,1131.54 897,1158.64 " fill="none" id="Atributo-to-Tipo" style="stroke:#181818;stroke-width:1.0;"/><polygon fill="#181818" points="897,1164.64,901,1155.64,897,1159.64,893,1155.64,897,1164.64" style="stroke:#181818;stroke-width:1.0;"/></g><!--reverse link Item to ItemRect--><g id="link_Item_ItemRect"><path codeLine="152" d="M1147.5551,430.2184 C1166.3251,472.7484 1187.8,521.41 1212.17,576.63 " fill="none" id="Item-backto-ItemRect" style="stroke:#181818;stroke-width:1.0;"/><polygon fill="#181818" points="1142.71,419.24,1141.4731,426.3442,1147.5551,430.2184,1148.792,423.1141,1142.71,419.24" style="stroke:#181818;stroke-width:1.0;"/></g><!--SRC=[fLRRRjj647tdLopy9BTM4FIHI0imCji8K2HNaeq2HR4OBJVokYI7tOkAkCr7z5Fw3VcnpYml8bsdrwSTdfcT-yvGrw4IMx3w4SGlYH0Agr3JQS4Y7LLuBplIXKRR_eCEuqo5oOSawMw_ci_5qkigIJJh_CQ61gFAt3LG015lGDtpkOBwaS_CAjPr3KUGO2q-G64U1y4fb3iL2fQ-8ykUaTUXqXRg8v4BS57JZLRtX34JFJZct8CdFGozXK9tLnT1s-XwwoHxlZSDilSYILG9pecjTXYiqlrtP78uSr5ZTR0w5JjlJRG_5mr9f-9TYU3ZjuqvIRlCHiYJXNImmzPRnVbFmJHmA7NK_ha0qde87bsQTTJtFtHc2vIcTXvgPQ0WPMiiTBoZemuxemevhE51jxpBL9pG556aqEuVI3KMbNOaK-ZIGnTHBp2udDaAkbmKyF5tb0TmfCpKRV0AiIpmvtgSa1wJtb3PE0zqH9E1pOrzq1IXB8tpoF21BavSa- -eynJylOT5iD3b50zUrzIzhaJFIjdJ3-TAgq098T41UaEDP1wnYn4F3zgR4oLyqr5JGrlgmbwMl7olbJTbAcv0_QYBdIBBpmVwhoDwguSk-V_ACglx8bfwPQFs_U_Q-qSZNltQJuFuRkBdqEWZhClz2EbIdvoVHOJPu-SmBd8I-t60OZcUO9ov9n37t-TZUFrjSet2clB1o9B8Y1rvLAJjM8l0T0g8ByL5rE1CtR4keXWRqD8GYqILDOtlRjDZ3ZmqdhR9NtJGaPiOnoRXuizf7qPCzEUpCTANlniiNRZqthnHGb52x4oUe4GRdyYLaFqSuzilsc56vUxlzuE5mr86wrcysqs3s1lauyiNBoz7ivAZyBBDq6pAK52gK98FdrRJjYY5V6w5-Voh8PwKExTRG1nq3F0w-_ZRfZ_bpMQxoDVxssp5KFvrljvbPshAlijNcyNoEhiUqpBRPz_Uvhn6jilzSh4vK_BrPdsxusrrb-sMcpNlkDKYMozocN-ttsRi-E0h-HrzJCORXjw3R_TmQQZsSSexSwoX76FIqREf2zg4PtQx8in9bxA4WwRkMV4HuRXIfl1G2UvChaFiZzX_s4o-vJ4OMZjDy3DzqhKd5d_aJ8z7X6HjXOMZB6ZdpcI3pdXgYbJSKL1elxXinGgBpQT4hWGpqhZaOQg-mXCDS6X7U1tq2IEPYWNMtc9vHOuxUHxLlL7gi3v_P1nAIMvJLyiAWzEJ6STC1wLvZdT0-eauZqIgu_2u-h8bVm00]--></g></svg>