<?xml version="1.0" encoding="us-ascii" standalone="no"?><svg xmlns="http://www.w3.org/2000/svg" xmlns:xlink="http://www.w3.org/1999/xlink" contentStyleType="text/css" height="811px" preserveAspectRatio="none" style="width:1647px;height:811px;background:#FFFFFF;" version="1.1" viewBox="0 0 1647 811" width="1647px" zoomAndPan="magnify"><defs/><g><!--class Personaje--><g id="elem_Personaje"><rect codeLine="2" fill="#F1F1F1" height="259.3125" id="Personaje" rx="2.5" ry="2.5" style="stroke:#181818;stroke-width:0.5;" width="322" x="896.5" y="7"/><ellipse cx="1021.25" cy="23" fill="#ADD1B2" rx="11" ry="11" style="stroke:#181818;stroke-width:1.0;"/><path d="M1024.0156,18.875 Q1024.1719,18.6563 1024.3594,18.5469 Q1024.5469,18.4375 1024.7656,18.4375 Q1025.1406,18.4375 1025.375,18.7031 Q1025.6094,18.9531 1025.6094,19.5625 L1025.6094,21.0156 Q1025.6094,21.625 1025.375,21.8906 Q1025.1406,22.1563 1024.7656,22.1563 Q1024.4219,22.1563 1024.2188,21.9531 Q1024.0156,21.7656 1023.9063,21.25 Q1023.8594,20.8906 1023.6719,20.7031 Q1023.3438,20.3281 1022.7344,20.1094 Q1022.125,19.8906 1021.5,19.8906 Q1020.7344,19.8906 1020.0938,20.2188 Q1019.4688,20.5469 1018.9688,21.2969 Q1018.4844,22.0469 1018.4844,23.0781 L1018.4844,24.1719 Q1018.4844,25.4063 1019.375,26.2344 Q1020.2656,27.0469 1021.8594,27.0469 Q1022.7969,27.0469 1023.4531,26.7969 Q1023.8438,26.6406 1024.2656,26.2031 Q1024.5313,25.9375 1024.6719,25.8594 Q1024.8281,25.7813 1025.0313,25.7813 Q1025.3594,25.7813 1025.6094,26.0469 Q1025.875,26.2969 1025.875,26.6406 Q1025.875,26.9844 1025.5313,27.3906 Q1025.0313,27.9688 1024.2344,28.2969 Q1023.1563,28.75 1021.8594,28.75 Q1020.3438,28.75 1019.1406,28.125 Q1018.1563,27.625 1017.4688,26.5625 Q1016.7813,25.4844 1016.7813,24.2031 L1016.7813,23.0469 Q1016.7813,21.7188 1017.3906,20.5781 Q1018.0156,19.4219 1019.1094,18.8125 Q1020.2031,18.1875 1021.4375,18.1875 Q1022.1719,18.1875 1022.8125,18.3594 Q1023.4688,18.5156 1024.0156,18.875 Z " fill="#000000"/><text fill="#000000" font-family="sans-serif" font-size="14" lengthAdjust="spacing" textLength="64" x="1041.75" y="28.7285">Personaje</text><line style="stroke:#181818;stroke-width:0.5;" x1="897.5" x2="1217.5" y1="39" y2="39"/><rect fill="none" height="6" style="stroke:#C82930;stroke-width:1.0;" width="6" x="904.5" y="50.3047"/><text fill="#000000" font-family="sans-serif" font-size="14" lengthAdjust="spacing" textLength="93" x="916.5" y="57.5332">nombre: String</text><rect fill="none" height="6" style="stroke:#C82930;stroke-width:1.0;" width="6" x="904.5" y="67.9141"/><text fill="#000000" font-family="sans-serif" font-size="14" lengthAdjust="spacing" textLength="94" x="916.5" y="75.1426">vida_max: float</text><rect fill="none" height="6" style="stroke:#C82930;stroke-width:1.0;" width="6" x="904.5" y="85.5234"/><text fill="#000000" font-family="sans-serif" font-size="14" lengthAdjust="spacing" textLength="107" x="916.5" y="92.752">vida_actual: float</text><rect fill="none" height="6" style="stroke:#C82930;stroke-width:1.0;" width="6" x="904.5" y="103.1328"/><text fill="#000000" font-family="sans-serif" font-size="14" lengthAdjust="spacing" textLength="89" x="916.5" y="110.3613">muerte: signal</text><rect fill="none" height="6" style="stroke:#C82930;stroke-width:1.0;" width="6" x="904.5" y="120.7422"/><text fill="#000000" font-family="sans-serif" font-size="14" lengthAdjust="spacing" textLength="174" x="916.5" y="127.9707">atributos_cambiaron: signal</text><line style="stroke:#181818;stroke-width:0.5;" x1="897.5" x2="1217.5" y1="135.0469" y2="135.0469"/><ellipse cx="907.5" cy="149.3516" fill="#84BE84" rx="3" ry="3" style="stroke:#038048;stroke-width:1.0;"/><text fill="#000000" font-family="sans-serif" font-size="14" lengthAdjust="spacing" textLength="84" x="916.5" y="153.5801">atacar(): void</text><ellipse cx="907.5" cy="166.9609" fill="#84BE84" rx="3" ry="3" style="stroke:#038048;stroke-width:1.0;"/><text fill="#000000" font-family="sans-serif" font-size="14" lengthAdjust="spacing" textLength="197" x="916.5" y="171.1895">recibir_da&#241;o(da&#241;o: Da&#241;o): void</text><ellipse cx="907.5" cy="184.5703" fill="#84BE84" rx="3" ry="3" style="stroke:#038048;stroke-width:1.0;"/><text fill="#000000" font-family="sans-serif" font-size="14" lengthAdjust="spacing" textLength="296" x="916.5" y="188.7988">equipar(equipo: Equipable, slot: int): Equipable</text><ellipse cx="907.5" cy="202.1797" fill="#84BE84" rx="3" ry="3" style="stroke:#038048;stroke-width:1.0;"/><text fill="#000000" font-family="sans-serif" font-size="14" lengthAdjust="spacing" textLength="197" x="916.5" y="206.4082">desequipar(slot: int): Equipable</text><ellipse cx="907.5" cy="219.7891" fill="#84BE84" rx="3" ry="3" style="stroke:#038048;stroke-width:1.0;"/><text fill="#000000" font-family="sans-serif" font-size="14" lengthAdjust="spacing" textLength="76" x="916.5" y="224.0176">morir(): void</text><ellipse cx="907.5" cy="237.3984" fill="#84BE84" rx="3" ry="3" style="stroke:#038048;stroke-width:1.0;"/><text fill="#000000" font-family="sans-serif" font-size="14" lengthAdjust="spacing" textLength="152" x="916.5" y="241.627">set_nivel(nivel: int): void</text><ellipse cx="907.5" cy="255.0078" fill="#84BE84" rx="3" ry="3" style="stroke:#038048;stroke-width:1.0;"/><text fill="#000000" font-family="sans-serif" font-size="14" lengthAdjust="spacing" textLength="154" x="916.5" y="259.2363">calcular_atributos(): Dict</text></g><!--class Ataque--><g id="elem_Ataque"><rect codeLine="18" fill="#F1F1F1" height="153.6563" id="Ataque" rx="2.5" ry="2.5" style="stroke:#181818;stroke-width:0.5;" width="423" x="7" y="344"/><ellipse cx="191.75" cy="360" fill="#ADD1B2" rx="11" ry="11" style="stroke:#181818;stroke-width:1.0;"/><path d="M194.5156,355.875 Q194.6719,355.6563 194.8594,355.5469 Q195.0469,355.4375 195.2656,355.4375 Q195.6406,355.4375 195.875,355.7031 Q196.1094,355.9531 196.1094,356.5625 L196.1094,358.0156 Q196.1094,358.625 195.875,358.8906 Q195.6406,359.1563 195.2656,359.1563 Q194.9219,359.1563 194.7188,358.9531 Q194.5156,358.7656 194.4063,358.25 Q194.3594,357.8906 194.1719,357.7031 Q193.8438,357.3281 193.2344,357.1094 Q192.625,356.8906 192,356.8906 Q191.2344,356.8906 190.5938,357.2188 Q189.9688,357.5469 189.4688,358.2969 Q188.9844,359.0469 188.9844,360.0781 L188.9844,361.1719 Q188.9844,362.4063 189.875,363.2344 Q190.7656,364.0469 192.3594,364.0469 Q193.2969,364.0469 193.9531,363.7969 Q194.3438,363.6406 194.7656,363.2031 Q195.0313,362.9375 195.1719,362.8594 Q195.3281,362.7813 195.5313,362.7813 Q195.8594,362.7813 196.1094,363.0469 Q196.375,363.2969 196.375,363.6406 Q196.375,363.9844 196.0313,364.3906 Q195.5313,364.9688 194.7344,365.2969 Q193.6563,365.75 192.3594,365.75 Q190.8438,365.75 189.6406,365.125 Q188.6563,364.625 187.9688,363.5625 Q187.2813,362.4844 187.2813,361.2031 L187.2813,360.0469 Q187.2813,358.7188 187.8906,357.5781 Q188.5156,356.4219 189.6094,355.8125 Q190.7031,355.1875 191.9375,355.1875 Q192.6719,355.1875 193.3125,355.3594 Q193.9688,355.5156 194.5156,355.875 Z " fill="#000000"/><text fill="#000000" font-family="sans-serif" font-size="14" lengthAdjust="spacing" textLength="45" x="212.25" y="365.7285">Ataque</text><line style="stroke:#181818;stroke-width:0.5;" x1="8" x2="429" y1="376" y2="376"/><rect fill="none" height="6" style="stroke:#C82930;stroke-width:1.0;" width="6" x="15" y="387.3047"/><text fill="#000000" font-family="sans-serif" font-size="14" lengthAdjust="spacing" textLength="135" x="27" y="394.5332">personaje: Personaje</text><rect fill="none" height="6" style="stroke:#C82930;stroke-width:1.0;" width="6" x="15" y="404.9141"/><text fill="#000000" font-family="sans-serif" font-size="14" lengthAdjust="spacing" textLength="146" x="27" y="412.1426">mano: Personaje.Mano</text><rect fill="none" height="6" style="stroke:#C82930;stroke-width:1.0;" width="6" x="15" y="422.5234"/><text fill="#000000" font-family="sans-serif" font-size="14" lengthAdjust="spacing" textLength="109" x="27" y="429.752">objetivo: Objetivo</text><line style="stroke:#181818;stroke-width:0.5;" x1="8" x2="429" y1="436.8281" y2="436.8281"/><ellipse cx="18" cy="451.1328" fill="#84BE84" rx="3" ry="3" style="stroke:#038048;stroke-width:1.0;"/><text fill="#000000" font-family="sans-serif" font-size="14" lengthAdjust="spacing" textLength="397" x="27" y="455.3613">equipar(_personaje: Personaje, _mano: Personaje.Mano): void</text><ellipse cx="18" cy="468.7422" fill="#84BE84" rx="3" ry="3" style="stroke:#038048;stroke-width:1.0;"/><text fill="#000000" font-family="sans-serif" font-size="14" lengthAdjust="spacing" textLength="214" x="27" y="472.9707">procesar_fisica(_delta: float): void</text><ellipse cx="18" cy="486.3516" fill="#84BE84" rx="3" ry="3" style="stroke:#038048;stroke-width:1.0;"/><text fill="#000000" font-family="sans-serif" font-size="14" lengthAdjust="spacing" textLength="235" x="27" y="490.5801">_buscar_objetivos(): Array&lt;Objetivo&gt;</text></g><!--class AtaqueAutomatico--><g id="elem_AtaqueAutomatico"><rect codeLine="28" fill="#F1F1F1" height="100.8281" id="AtaqueAutomatico" rx="2.5" ry="2.5" style="stroke:#181818;stroke-width:0.5;" width="261" x="88" y="559"/><ellipse cx="156.75" cy="575" fill="#ADD1B2" rx="11" ry="11" style="stroke:#181818;stroke-width:1.0;"/><path d="M159.5156,570.875 Q159.6719,570.6563 159.8594,570.5469 Q160.0469,570.4375 160.2656,570.4375 Q160.6406,570.4375 160.875,570.7031 Q161.1094,570.9531 161.1094,571.5625 L161.1094,573.0156 Q161.1094,573.625 160.875,573.8906 Q160.6406,574.1563 160.2656,574.1563 Q159.9219,574.1563 159.7188,573.9531 Q159.5156,573.7656 159.4063,573.25 Q159.3594,572.8906 159.1719,572.7031 Q158.8438,572.3281 158.2344,572.1094 Q157.625,571.8906 157,571.8906 Q156.2344,571.8906 155.5938,572.2188 Q154.9688,572.5469 154.4688,573.2969 Q153.9844,574.0469 153.9844,575.0781 L153.9844,576.1719 Q153.9844,577.4063 154.875,578.2344 Q155.7656,579.0469 157.3594,579.0469 Q158.2969,579.0469 158.9531,578.7969 Q159.3438,578.6406 159.7656,578.2031 Q160.0313,577.9375 160.1719,577.8594 Q160.3281,577.7813 160.5313,577.7813 Q160.8594,577.7813 161.1094,578.0469 Q161.375,578.2969 161.375,578.6406 Q161.375,578.9844 161.0313,579.3906 Q160.5313,579.9688 159.7344,580.2969 Q158.6563,580.75 157.3594,580.75 Q155.8438,580.75 154.6406,580.125 Q153.6563,579.625 152.9688,578.5625 Q152.2813,577.4844 152.2813,576.2031 L152.2813,575.0469 Q152.2813,573.7188 152.8906,572.5781 Q153.5156,571.4219 154.6094,570.8125 Q155.7031,570.1875 156.9375,570.1875 Q157.6719,570.1875 158.3125,570.3594 Q158.9688,570.5156 159.5156,570.875 Z " fill="#000000"/><text fill="#000000" font-family="sans-serif" font-size="14" lengthAdjust="spacing" textLength="115" x="177.25" y="580.7285">AtaqueAutomatico</text><line style="stroke:#181818;stroke-width:0.5;" x1="89" x2="348" y1="591" y2="591"/><rect fill="none" height="6" style="stroke:#C82930;stroke-width:1.0;" width="6" x="96" y="602.3047"/><text fill="#000000" font-family="sans-serif" font-size="14" lengthAdjust="spacing" textLength="111" x="108" y="609.5332">capa_objetivo: int</text><rect fill="none" height="6" style="stroke:#C82930;stroke-width:1.0;" width="6" x="96" y="619.9141"/><text fill="#000000" font-family="sans-serif" font-size="14" lengthAdjust="spacing" textLength="159" x="108" y="627.1426">area_conectada: Area2D</text><line style="stroke:#181818;stroke-width:0.5;" x1="89" x2="348" y1="634.2188" y2="634.2188"/><ellipse cx="99" cy="648.5234" fill="#84BE84" rx="3" ry="3" style="stroke:#038048;stroke-width:1.0;"/><text fill="#000000" font-family="sans-serif" font-size="14" lengthAdjust="spacing" textLength="235" x="108" y="652.752">_buscar_objetivos(): Array&lt;Objetivo&gt;</text></g><!--class Movimiento--><g id="elem_Movimiento"><rect codeLine="37" fill="#F1F1F1" height="83.2188" id="Movimiento" rx="2.5" ry="2.5" style="stroke:#181818;stroke-width:0.5;" width="326" x="465.5" y="379.5"/><ellipse cx="588.75" cy="395.5" fill="#ADD1B2" rx="11" ry="11" style="stroke:#181818;stroke-width:1.0;"/><path d="M591.5156,391.375 Q591.6719,391.1563 591.8594,391.0469 Q592.0469,390.9375 592.2656,390.9375 Q592.6406,390.9375 592.875,391.2031 Q593.1094,391.4531 593.1094,392.0625 L593.1094,393.5156 Q593.1094,394.125 592.875,394.3906 Q592.6406,394.6563 592.2656,394.6563 Q591.9219,394.6563 591.7188,394.4531 Q591.5156,394.2656 591.4063,393.75 Q591.3594,393.3906 591.1719,393.2031 Q590.8438,392.8281 590.2344,392.6094 Q589.625,392.3906 589,392.3906 Q588.2344,392.3906 587.5938,392.7188 Q586.9688,393.0469 586.4688,393.7969 Q585.9844,394.5469 585.9844,395.5781 L585.9844,396.6719 Q585.9844,397.9063 586.875,398.7344 Q587.7656,399.5469 589.3594,399.5469 Q590.2969,399.5469 590.9531,399.2969 Q591.3438,399.1406 591.7656,398.7031 Q592.0313,398.4375 592.1719,398.3594 Q592.3281,398.2813 592.5313,398.2813 Q592.8594,398.2813 593.1094,398.5469 Q593.375,398.7969 593.375,399.1406 Q593.375,399.4844 593.0313,399.8906 Q592.5313,400.4688 591.7344,400.7969 Q590.6563,401.25 589.3594,401.25 Q587.8438,401.25 586.6406,400.625 Q585.6563,400.125 584.9688,399.0625 Q584.2813,397.9844 584.2813,396.7031 L584.2813,395.5469 Q584.2813,394.2188 584.8906,393.0781 Q585.5156,391.9219 586.6094,391.3125 Q587.7031,390.6875 588.9375,390.6875 Q589.6719,390.6875 590.3125,390.8594 Q590.9688,391.0156 591.5156,391.375 Z " fill="#000000"/><text fill="#000000" font-family="sans-serif" font-size="14" lengthAdjust="spacing" textLength="71" x="609.25" y="401.2285">Movimiento</text><line style="stroke:#181818;stroke-width:0.5;" x1="466.5" x2="790.5" y1="411.5" y2="411.5"/><rect fill="none" height="6" style="stroke:#C82930;stroke-width:1.0;" width="6" x="473.5" y="422.8047"/><text fill="#000000" font-family="sans-serif" font-size="14" lengthAdjust="spacing" textLength="106" x="485.5" y="430.0332">destino: Objetivo</text><line style="stroke:#181818;stroke-width:0.5;" x1="466.5" x2="790.5" y1="437.1094" y2="437.1094"/><ellipse cx="476.5" cy="451.4141" fill="#84BE84" rx="3" ry="3" style="stroke:#038048;stroke-width:1.0;"/><text fill="#000000" font-family="sans-serif" font-size="14" lengthAdjust="spacing" textLength="300" x="485.5" y="455.6426">mover(personaje: Personaje, _delta: float): void</text></g><!--class MovimientoAutomatico--><g id="elem_MovimientoAutomatico"><rect codeLine="43" fill="#F1F1F1" height="100.8281" id="MovimientoAutomatico" rx="2.5" ry="2.5" style="stroke:#181818;stroke-width:0.5;" width="326" x="465.5" y="559"/><ellipse cx="553.75" cy="575" fill="#ADD1B2" rx="11" ry="11" style="stroke:#181818;stroke-width:1.0;"/><path d="M556.5156,570.875 Q556.6719,570.6563 556.8594,570.5469 Q557.0469,570.4375 557.2656,570.4375 Q557.6406,570.4375 557.875,570.7031 Q558.1094,570.9531 558.1094,571.5625 L558.1094,573.0156 Q558.1094,573.625 557.875,573.8906 Q557.6406,574.1563 557.2656,574.1563 Q556.9219,574.1563 556.7188,573.9531 Q556.5156,573.7656 556.4063,573.25 Q556.3594,572.8906 556.1719,572.7031 Q555.8438,572.3281 555.2344,572.1094 Q554.625,571.8906 554,571.8906 Q553.2344,571.8906 552.5938,572.2188 Q551.9688,572.5469 551.4688,573.2969 Q550.9844,574.0469 550.9844,575.0781 L550.9844,576.1719 Q550.9844,577.4063 551.875,578.2344 Q552.7656,579.0469 554.3594,579.0469 Q555.2969,579.0469 555.9531,578.7969 Q556.3438,578.6406 556.7656,578.2031 Q557.0313,577.9375 557.1719,577.8594 Q557.3281,577.7813 557.5313,577.7813 Q557.8594,577.7813 558.1094,578.0469 Q558.375,578.2969 558.375,578.6406 Q558.375,578.9844 558.0313,579.3906 Q557.5313,579.9688 556.7344,580.2969 Q555.6563,580.75 554.3594,580.75 Q552.8438,580.75 551.6406,580.125 Q550.6563,579.625 549.9688,578.5625 Q549.2813,577.4844 549.2813,576.2031 L549.2813,575.0469 Q549.2813,573.7188 549.8906,572.5781 Q550.5156,571.4219 551.6094,570.8125 Q552.7031,570.1875 553.9375,570.1875 Q554.6719,570.1875 555.3125,570.3594 Q555.9688,570.5156 556.5156,570.875 Z " fill="#000000"/><text fill="#000000" font-family="sans-serif" font-size="14" lengthAdjust="spacing" textLength="141" x="574.25" y="580.7285">MovimientoAutomatico</text><line style="stroke:#181818;stroke-width:0.5;" x1="466.5" x2="790.5" y1="591" y2="591"/><rect fill="none" height="6" style="stroke:#C82930;stroke-width:1.0;" width="6" x="473.5" y="602.3047"/><text fill="#000000" font-family="sans-serif" font-size="14" lengthAdjust="spacing" textLength="111" x="485.5" y="609.5332">direction: Vector2</text><rect fill="none" height="6" style="stroke:#C82930;stroke-width:1.0;" width="6" x="473.5" y="619.9141"/><text fill="#000000" font-family="sans-serif" font-size="14" lengthAdjust="spacing" textLength="196" x="485.5" y="627.1426">rng: RandomNumberGenerator</text><line style="stroke:#181818;stroke-width:0.5;" x1="466.5" x2="790.5" y1="634.2188" y2="634.2188"/><ellipse cx="476.5" cy="648.5234" fill="#84BE84" rx="3" ry="3" style="stroke:#038048;stroke-width:1.0;"/><text fill="#000000" font-family="sans-serif" font-size="14" lengthAdjust="spacing" textLength="300" x="485.5" y="652.752">mover(personaje: Personaje, _delta: float): void</text></g><!--class Da?o--><g id="elem_Da&#241;o"><rect codeLine="55" fill="#F1F1F1" height="153.6563" id="Da&#241;o" rx="2.5" ry="2.5" style="stroke:#181818;stroke-width:0.5;" width="201" x="827" y="344"/><ellipse cx="906.25" cy="360" fill="#ADD1B2" rx="11" ry="11" style="stroke:#181818;stroke-width:1.0;"/><path d="M909.0156,355.875 Q909.1719,355.6563 909.3594,355.5469 Q909.5469,355.4375 909.7656,355.4375 Q910.1406,355.4375 910.375,355.7031 Q910.6094,355.9531 910.6094,356.5625 L910.6094,358.0156 Q910.6094,358.625 910.375,358.8906 Q910.1406,359.1563 909.7656,359.1563 Q909.4219,359.1563 909.2188,358.9531 Q909.0156,358.7656 908.9063,358.25 Q908.8594,357.8906 908.6719,357.7031 Q908.3438,357.3281 907.7344,357.1094 Q907.125,356.8906 906.5,356.8906 Q905.7344,356.8906 905.0938,357.2188 Q904.4688,357.5469 903.9688,358.2969 Q903.4844,359.0469 903.4844,360.0781 L903.4844,361.1719 Q903.4844,362.4063 904.375,363.2344 Q905.2656,364.0469 906.8594,364.0469 Q907.7969,364.0469 908.4531,363.7969 Q908.8438,363.6406 909.2656,363.2031 Q909.5313,362.9375 909.6719,362.8594 Q909.8281,362.7813 910.0313,362.7813 Q910.3594,362.7813 910.6094,363.0469 Q910.875,363.2969 910.875,363.6406 Q910.875,363.9844 910.5313,364.3906 Q910.0313,364.9688 909.2344,365.2969 Q908.1563,365.75 906.8594,365.75 Q905.3438,365.75 904.1406,365.125 Q903.1563,364.625 902.4688,363.5625 Q901.7813,362.4844 901.7813,361.2031 L901.7813,360.0469 Q901.7813,358.7188 902.3906,357.5781 Q903.0156,356.4219 904.1094,355.8125 Q905.2031,355.1875 906.4375,355.1875 Q907.1719,355.1875 907.8125,355.3594 Q908.4688,355.5156 909.0156,355.875 Z " fill="#000000"/><text fill="#000000" font-family="sans-serif" font-size="14" lengthAdjust="spacing" textLength="34" x="926.75" y="365.7285">Da&#241;o</text><line style="stroke:#181818;stroke-width:0.5;" x1="828" x2="1027" y1="376" y2="376"/><rect fill="none" height="6" style="stroke:#C82930;stroke-width:1.0;" width="6" x="835" y="387.3047"/><text fill="#000000" font-family="sans-serif" font-size="14" lengthAdjust="spacing" textLength="106" x="847" y="394.5332">da&#241;o_base: float</text><rect fill="none" height="6" style="stroke:#C82930;stroke-width:1.0;" width="6" x="835" y="404.9141"/><text fill="#000000" font-family="sans-serif" font-size="14" lengthAdjust="spacing" textLength="90" x="847" y="412.1426">esCritico: bool</text><rect fill="none" height="6" style="stroke:#C82930;stroke-width:1.0;" width="6" x="835" y="422.5234"/><text fill="#000000" font-family="sans-serif" font-size="14" lengthAdjust="spacing" textLength="81" x="847" y="429.752">esFallo: bool</text><rect fill="none" height="6" style="stroke:#C82930;stroke-width:1.0;" width="6" x="835" y="440.1328"/><text fill="#000000" font-family="sans-serif" font-size="14" lengthAdjust="spacing" textLength="158" x="847" y="447.3613">_atributos_atacante: Dict</text><rect fill="none" height="6" style="stroke:#C82930;stroke-width:1.0;" width="6" x="835" y="457.7422"/><text fill="#000000" font-family="sans-serif" font-size="14" lengthAdjust="spacing" textLength="175" x="847" y="464.9707">_atributos_defendente: Dict</text><line style="stroke:#181818;stroke-width:0.5;" x1="828" x2="1027" y1="472.0469" y2="472.0469"/><ellipse cx="838" cy="486.3516" fill="#84BE84" rx="3" ry="3" style="stroke:#038048;stroke-width:1.0;"/><text fill="#000000" font-family="sans-serif" font-size="14" lengthAdjust="spacing" textLength="94" x="847" y="490.5801">calcular(): float</text></g><!--class Enemigo--><g id="elem_Enemigo"><rect codeLine="67" fill="#F1F1F1" height="65.6094" id="Enemigo" rx="2.5" ry="2.5" style="stroke:#181818;stroke-width:0.5;" width="251" x="1063" y="388"/><ellipse cx="1156.75" cy="404" fill="#ADD1B2" rx="11" ry="11" style="stroke:#181818;stroke-width:1.0;"/><path d="M1159.5156,399.875 Q1159.6719,399.6563 1159.8594,399.5469 Q1160.0469,399.4375 1160.2656,399.4375 Q1160.6406,399.4375 1160.875,399.7031 Q1161.1094,399.9531 1161.1094,400.5625 L1161.1094,402.0156 Q1161.1094,402.625 1160.875,402.8906 Q1160.6406,403.1563 1160.2656,403.1563 Q1159.9219,403.1563 1159.7188,402.9531 Q1159.5156,402.7656 1159.4063,402.25 Q1159.3594,401.8906 1159.1719,401.7031 Q1158.8438,401.3281 1158.2344,401.1094 Q1157.625,400.8906 1157,400.8906 Q1156.2344,400.8906 1155.5938,401.2188 Q1154.9688,401.5469 1154.4688,402.2969 Q1153.9844,403.0469 1153.9844,404.0781 L1153.9844,405.1719 Q1153.9844,406.4063 1154.875,407.2344 Q1155.7656,408.0469 1157.3594,408.0469 Q1158.2969,408.0469 1158.9531,407.7969 Q1159.3438,407.6406 1159.7656,407.2031 Q1160.0313,406.9375 1160.1719,406.8594 Q1160.3281,406.7813 1160.5313,406.7813 Q1160.8594,406.7813 1161.1094,407.0469 Q1161.375,407.2969 1161.375,407.6406 Q1161.375,407.9844 1161.0313,408.3906 Q1160.5313,408.9688 1159.7344,409.2969 Q1158.6563,409.75 1157.3594,409.75 Q1155.8438,409.75 1154.6406,409.125 Q1153.6563,408.625 1152.9688,407.5625 Q1152.2813,406.4844 1152.2813,405.2031 L1152.2813,404.0469 Q1152.2813,402.7188 1152.8906,401.5781 Q1153.5156,400.4219 1154.6094,399.8125 Q1155.7031,399.1875 1156.9375,399.1875 Q1157.6719,399.1875 1158.3125,399.3594 Q1158.9688,399.5156 1159.5156,399.875 Z " fill="#000000"/><text fill="#000000" font-family="sans-serif" font-size="14" lengthAdjust="spacing" textLength="55" x="1177.25" y="409.7285">Enemigo</text><line style="stroke:#181818;stroke-width:0.5;" x1="1064" x2="1313" y1="420" y2="420"/><line style="stroke:#181818;stroke-width:0.5;" x1="1064" x2="1313" y1="428" y2="428"/><ellipse cx="1074" cy="442.3047" fill="#84BE84" rx="3" ry="3" style="stroke:#038048;stroke-width:1.0;"/><text fill="#000000" font-family="sans-serif" font-size="14" lengthAdjust="spacing" textLength="225" x="1083" y="446.5332">static calcular_vida(_nivel: int): float</text></g><!--class Enemigo2--><g id="elem_Enemigo2"><rect codeLine="71" fill="#F1F1F1" height="48" id="Enemigo2" rx="2.5" ry="2.5" style="stroke:#181818;stroke-width:0.5;" width="95" x="1141" y="585.5"/><ellipse cx="1156" cy="601.5" fill="#ADD1B2" rx="11" ry="11" style="stroke:#181818;stroke-width:1.0;"/><path d="M1158.7656,597.375 Q1158.9219,597.1563 1159.1094,597.0469 Q1159.2969,596.9375 1159.5156,596.9375 Q1159.8906,596.9375 1160.125,597.2031 Q1160.3594,597.4531 1160.3594,598.0625 L1160.3594,599.5156 Q1160.3594,600.125 1160.125,600.3906 Q1159.8906,600.6563 1159.5156,600.6563 Q1159.1719,600.6563 1158.9688,600.4531 Q1158.7656,600.2656 1158.6563,599.75 Q1158.6094,599.3906 1158.4219,599.2031 Q1158.0938,598.8281 1157.4844,598.6094 Q1156.875,598.3906 1156.25,598.3906 Q1155.4844,598.3906 1154.8438,598.7188 Q1154.2188,599.0469 1153.7188,599.7969 Q1153.2344,600.5469 1153.2344,601.5781 L1153.2344,602.6719 Q1153.2344,603.9063 1154.125,604.7344 Q1155.0156,605.5469 1156.6094,605.5469 Q1157.5469,605.5469 1158.2031,605.2969 Q1158.5938,605.1406 1159.0156,604.7031 Q1159.2813,604.4375 1159.4219,604.3594 Q1159.5781,604.2813 1159.7813,604.2813 Q1160.1094,604.2813 1160.3594,604.5469 Q1160.625,604.7969 1160.625,605.1406 Q1160.625,605.4844 1160.2813,605.8906 Q1159.7813,606.4688 1158.9844,606.7969 Q1157.9063,607.25 1156.6094,607.25 Q1155.0938,607.25 1153.8906,606.625 Q1152.9063,606.125 1152.2188,605.0625 Q1151.5313,603.9844 1151.5313,602.7031 L1151.5313,601.5469 Q1151.5313,600.2188 1152.1406,599.0781 Q1152.7656,597.9219 1153.8594,597.3125 Q1154.9531,596.6875 1156.1875,596.6875 Q1156.9219,596.6875 1157.5625,596.8594 Q1158.2188,597.0156 1158.7656,597.375 Z " fill="#000000"/><text fill="#000000" font-family="sans-serif" font-size="14" lengthAdjust="spacing" textLength="63" x="1170" y="607.2285">Enemigo2</text><line style="stroke:#181818;stroke-width:0.5;" x1="1142" x2="1235" y1="617.5" y2="617.5"/><line style="stroke:#181818;stroke-width:0.5;" x1="1142" x2="1235" y1="625.5" y2="625.5"/></g><!--class FinalBoss--><g id="elem_FinalBoss"><rect codeLine="72" fill="#F1F1F1" height="83.2188" id="FinalBoss" rx="2.5" ry="2.5" style="stroke:#181818;stroke-width:0.5;" width="188" x="1094.5" y="721"/><ellipse cx="1153.25" cy="737" fill="#ADD1B2" rx="11" ry="11" style="stroke:#181818;stroke-width:1.0;"/><path d="M1156.0156,732.875 Q1156.1719,732.6563 1156.3594,732.5469 Q1156.5469,732.4375 1156.7656,732.4375 Q1157.1406,732.4375 1157.375,732.7031 Q1157.6094,732.9531 1157.6094,733.5625 L1157.6094,735.0156 Q1157.6094,735.625 1157.375,735.8906 Q1157.1406,736.1563 1156.7656,736.1563 Q1156.4219,736.1563 1156.2188,735.9531 Q1156.0156,735.7656 1155.9063,735.25 Q1155.8594,734.8906 1155.6719,734.7031 Q1155.3438,734.3281 1154.7344,734.1094 Q1154.125,733.8906 1153.5,733.8906 Q1152.7344,733.8906 1152.0938,734.2188 Q1151.4688,734.5469 1150.9688,735.2969 Q1150.4844,736.0469 1150.4844,737.0781 L1150.4844,738.1719 Q1150.4844,739.4063 1151.375,740.2344 Q1152.2656,741.0469 1153.8594,741.0469 Q1154.7969,741.0469 1155.4531,740.7969 Q1155.8438,740.6406 1156.2656,740.2031 Q1156.5313,739.9375 1156.6719,739.8594 Q1156.8281,739.7813 1157.0313,739.7813 Q1157.3594,739.7813 1157.6094,740.0469 Q1157.875,740.2969 1157.875,740.6406 Q1157.875,740.9844 1157.5313,741.3906 Q1157.0313,741.9688 1156.2344,742.2969 Q1155.1563,742.75 1153.8594,742.75 Q1152.3438,742.75 1151.1406,742.125 Q1150.1563,741.625 1149.4688,740.5625 Q1148.7813,739.4844 1148.7813,738.2031 L1148.7813,737.0469 Q1148.7813,735.7188 1149.3906,734.5781 Q1150.0156,733.4219 1151.1094,732.8125 Q1152.2031,732.1875 1153.4375,732.1875 Q1154.1719,732.1875 1154.8125,732.3594 Q1155.4688,732.5156 1156.0156,732.875 Z " fill="#000000"/><text fill="#000000" font-family="sans-serif" font-size="14" lengthAdjust="spacing" textLength="62" x="1173.75" y="742.7285">FinalBoss</text><line style="stroke:#181818;stroke-width:0.5;" x1="1095.5" x2="1281.5" y1="753" y2="753"/><rect fill="none" height="6" style="stroke:#C82930;stroke-width:1.0;" width="6" x="1102.5" y="764.3047"/><text fill="#000000" font-family="sans-serif" font-size="14" lengthAdjust="spacing" textLength="162" x="1114.5" y="771.5332">invocacion: PackedScene</text><line style="stroke:#181818;stroke-width:0.5;" x1="1095.5" x2="1281.5" y1="778.6094" y2="778.6094"/><ellipse cx="1105.5" cy="792.9141" fill="#84BE84" rx="3" ry="3" style="stroke:#038048;stroke-width:1.0;"/><text fill="#000000" font-family="sans-serif" font-size="14" lengthAdjust="spacing" textLength="161" x="1114.5" y="797.1426">_on_timer_timeout(): void</text></g><!--class Heroe--><g id="elem_Heroe"><rect codeLine="81" fill="#F1F1F1" height="83.2188" id="Heroe" rx="2.5" ry="2.5" style="stroke:#181818;stroke-width:0.5;" width="186" x="1349.5" y="379.5"/><ellipse cx="1419.25" cy="395.5" fill="#ADD1B2" rx="11" ry="11" style="stroke:#181818;stroke-width:1.0;"/><path d="M1422.0156,391.375 Q1422.1719,391.1563 1422.3594,391.0469 Q1422.5469,390.9375 1422.7656,390.9375 Q1423.1406,390.9375 1423.375,391.2031 Q1423.6094,391.4531 1423.6094,392.0625 L1423.6094,393.5156 Q1423.6094,394.125 1423.375,394.3906 Q1423.1406,394.6563 1422.7656,394.6563 Q1422.4219,394.6563 1422.2188,394.4531 Q1422.0156,394.2656 1421.9063,393.75 Q1421.8594,393.3906 1421.6719,393.2031 Q1421.3438,392.8281 1420.7344,392.6094 Q1420.125,392.3906 1419.5,392.3906 Q1418.7344,392.3906 1418.0938,392.7188 Q1417.4688,393.0469 1416.9688,393.7969 Q1416.4844,394.5469 1416.4844,395.5781 L1416.4844,396.6719 Q1416.4844,397.9063 1417.375,398.7344 Q1418.2656,399.5469 1419.8594,399.5469 Q1420.7969,399.5469 1421.4531,399.2969 Q1421.8438,399.1406 1422.2656,398.7031 Q1422.5313,398.4375 1422.6719,398.3594 Q1422.8281,398.2813 1423.0313,398.2813 Q1423.3594,398.2813 1423.6094,398.5469 Q1423.875,398.7969 1423.875,399.1406 Q1423.875,399.4844 1423.5313,399.8906 Q1423.0313,400.4688 1422.2344,400.7969 Q1421.1563,401.25 1419.8594,401.25 Q1418.3438,401.25 1417.1406,400.625 Q1416.1563,400.125 1415.4688,399.0625 Q1414.7813,397.9844 1414.7813,396.7031 L1414.7813,395.5469 Q1414.7813,394.2188 1415.3906,393.0781 Q1416.0156,391.9219 1417.1094,391.3125 Q1418.2031,390.6875 1419.4375,390.6875 Q1420.1719,390.6875 1420.8125,390.8594 Q1421.4688,391.0156 1422.0156,391.375 Z " fill="#000000"/><text fill="#000000" font-family="sans-serif" font-size="14" lengthAdjust="spacing" textLength="38" x="1439.75" y="401.2285">Heroe</text><line style="stroke:#181818;stroke-width:0.5;" x1="1350.5" x2="1534.5" y1="411.5" y2="411.5"/><line style="stroke:#181818;stroke-width:0.5;" x1="1350.5" x2="1534.5" y1="419.5" y2="419.5"/><ellipse cx="1360.5" cy="433.8047" fill="#84BE84" rx="3" ry="3" style="stroke:#038048;stroke-width:1.0;"/><text fill="#000000" font-family="sans-serif" font-size="14" lengthAdjust="spacing" textLength="76" x="1369.5" y="438.0332">morir(): void</text><ellipse cx="1360.5" cy="451.4141" fill="#84BE84" rx="3" ry="3" style="stroke:#038048;stroke-width:1.0;"/><text fill="#000000" font-family="sans-serif" font-size="14" lengthAdjust="spacing" textLength="160" x="1369.5" y="455.6426">set_nivel(_nivel: int): void</text></g><!--class Mano--><g id="elem_Mano"><rect codeLine="88" fill="#F1F1F1" height="83.2188" id="Mano" rx="2.5" ry="2.5" style="stroke:#181818;stroke-width:0.5;" width="69" x="1571" y="379.5"/><ellipse cx="1586.9" cy="395.5" fill="#EB937F" rx="11" ry="11" style="stroke:#181818;stroke-width:1.0;"/><path d="M1585.7594,396.2969 L1585.7594,398.7969 L1590.0875,398.7969 L1590.0875,397.875 Q1590.0875,397.2656 1590.3219,397 Q1590.5719,396.7344 1590.9469,396.7344 Q1591.3219,396.7344 1591.5563,397 Q1591.7906,397.2656 1591.7906,397.875 L1591.7906,400.5 L1583.7906,400.5 Q1583.1656,400.5 1582.9,400.2656 Q1582.65,400.0313 1582.65,399.6406 Q1582.65,399.2656 1582.9156,399.0313 Q1583.1813,398.7969 1583.7906,398.7969 L1584.0563,398.7969 L1584.0563,392.1406 L1583.7906,392.1406 Q1583.1656,392.1406 1582.9,391.9063 Q1582.65,391.6719 1582.65,391.2813 Q1582.65,390.9063 1582.9,390.6719 Q1583.1656,390.4375 1583.7906,390.4375 L1591.4156,390.4375 L1591.4156,393.0313 Q1591.4156,393.6406 1591.1813,393.9063 Q1590.9625,394.1563 1590.5719,394.1563 Q1590.1969,394.1563 1589.9625,393.9063 Q1589.7281,393.6406 1589.7281,393.0313 L1589.7281,392.1406 L1585.7594,392.1406 L1585.7594,394.5938 L1587.2438,394.5938 Q1587.2438,393.9375 1587.3688,393.75 Q1587.6344,393.3438 1588.1031,393.3438 Q1588.4781,393.3438 1588.7125,393.6094 Q1588.9469,393.8594 1588.9469,394.4688 L1588.9469,396.4375 Q1588.9469,396.9844 1588.8219,397.1719 Q1588.5563,397.5625 1588.1031,397.5625 Q1587.6344,397.5625 1587.3688,397.1563 Q1587.2438,396.9688 1587.2438,396.2969 L1585.7594,396.2969 Z " fill="#000000"/><text fill="#000000" font-family="sans-serif" font-size="14" lengthAdjust="spacing" textLength="35" x="1601.1" y="401.2285">Mano</text><line style="stroke:#181818;stroke-width:0.5;" x1="1572" x2="1639" y1="411.5" y2="411.5"/><text fill="#000000" font-family="sans-serif" font-size="14" lengthAdjust="spacing" textLength="57" x="1577" y="430.0332">izquierda</text><text fill="#000000" font-family="sans-serif" font-size="14" lengthAdjust="spacing" textLength="52" x="1577" y="447.6426">derecha</text><line style="stroke:#181818;stroke-width:0.5;" x1="1572" x2="1639" y1="454.7188" y2="454.7188"/></g><!--reverse link Ataque to AtaqueAutomatico--><g id="link_Ataque_AtaqueAutomatico"><path codeLine="35" d="M218.5,516.13 C218.5,536.57 218.5,540.16 218.5,558.76 " fill="none" id="Ataque-backto-AtaqueAutomatico" style="stroke:#181818;stroke-width:1.0;"/><polygon fill="none" points="218.5,498.13,212.5,516.13,224.5,516.13,218.5,498.13" style="stroke:#181818;stroke-width:1.0;"/></g><!--reverse link Movimiento to MovimientoAutomatico--><g id="link_Movimiento_MovimientoAutomatico"><path codeLine="50" d="M628.5,480.93 C628.5,509.13 628.5,528.77 628.5,558.71 " fill="none" id="Movimiento-backto-MovimientoAutomatico" style="stroke:#181818;stroke-width:1.0;"/><polygon fill="none" points="628.5,462.93,622.5,480.93,634.5,480.93,628.5,462.93" style="stroke:#181818;stroke-width:1.0;"/></g><!--reverse link Personaje to Ataque--><g id="link_Personaje_Ataque"><path codeLine="52" d="M884.8574,195.6295 C752.2874,240.2695 574.79,300.03 430.09,348.76 " fill="none" id="Personaje-backto-Ataque" style="stroke:#181818;stroke-width:1.0;"/><polygon fill="#181818" points="896.23,191.8,889.2672,189.9239,884.8574,195.6295,891.8202,197.5056,896.23,191.8" style="stroke:#181818;stroke-width:1.0;"/><text fill="#000000" font-family="sans-serif" font-size="13" lengthAdjust="spacing" textLength="7" x="437.8198" y="343.384">2</text></g><!--reverse link Personaje to Movimiento--><g id="link_Personaje_Movimiento"><path codeLine="53" d="M886.2076,250.2993 C814.3276,297.6293 743.95,343.98 690.19,379.38 " fill="none" id="Personaje-backto-Movimiento" style="stroke:#181818;stroke-width:1.0;"/><polygon fill="#181818" points="896.23,243.7,889.019,243.6589,886.2076,250.2993,893.4186,250.3405,896.23,243.7" style="stroke:#181818;stroke-width:1.0;"/><text fill="#000000" font-family="sans-serif" font-size="13" lengthAdjust="spacing" textLength="7" x="692.8277" y="368.6678">1</text></g><!--link Personaje to Da?o--><g id="link_Personaje_Da&#241;o"><path codeLine="65" d="M996.25,266.27 C991.57,276.31 986.94,286.31 982.5,296 C975.44,311.41 970.4281,322.4877 963.3881,338.3177 " fill="none" id="Personaje-to-Da&#241;o" style="stroke:#181818;stroke-width:1.0;"/><polygon fill="#181818" points="960.95,343.8,968.262,337.202,962.9818,339.2314,960.9523,333.9511,960.95,343.8" style="stroke:#181818;stroke-width:1.0;"/><text fill="#000000" font-family="sans-serif" font-size="13" lengthAdjust="spacing" textLength="121" x="983.5" y="310.4951">usa en recibir_da&#241;o()</text></g><!--reverse link Personaje to Enemigo--><g id="link_Personaje_Enemigo"><path codeLine="77" d="M1124.8214,282.6802 C1145.6714,327.6502 1159.74,357.97 1173.61,387.9 " fill="none" id="Personaje-backto-Enemigo" style="stroke:#181818;stroke-width:1.0;"/><polygon fill="none" points="1117.25,266.35,1119.378,285.204,1130.2648,280.1564,1117.25,266.35" style="stroke:#181818;stroke-width:1.0;"/></g><!--reverse link Enemigo to Enemigo2--><g id="link_Enemigo_Enemigo2"><path codeLine="78" d="M1188.5,472.06 C1188.5,509.45 1188.5,552.34 1188.5,585.39 " fill="none" id="Enemigo-backto-Enemigo2" style="stroke:#181818;stroke-width:1.0;"/><polygon fill="none" points="1188.5,454.06,1182.5,472.06,1194.5,472.06,1188.5,454.06" style="stroke:#181818;stroke-width:1.0;"/></g><!--reverse link Enemigo2 to FinalBoss--><g id="link_Enemigo2_FinalBoss"><path codeLine="79" d="M1188.5,651.76 C1188.5,674.93 1188.5,692.96 1188.5,720.85 " fill="none" id="Enemigo2-backto-FinalBoss" style="stroke:#181818;stroke-width:1.0;"/><polygon fill="none" points="1188.5,633.76,1182.5,651.76,1194.5,651.76,1188.5,633.76" style="stroke:#181818;stroke-width:1.0;"/></g><!--reverse link Personaje to Heroe--><g id="link_Personaje_Heroe"><path codeLine="86" d="M1233.0528,266.318 C1293.0228,310.318 1342.65,346.74 1386.86,379.17 " fill="none" id="Personaje-backto-Heroe" style="stroke:#181818;stroke-width:1.0;"/><polygon fill="none" points="1218.54,255.67,1229.5034,271.1556,1236.6021,261.4804,1218.54,255.67" style="stroke:#181818;stroke-width:1.0;"/></g><!--link Personaje to Mano--><g id="link_Personaje_Mano"><path codeLine="93" d="M1218.56,179.23 C1321.84,211.79 1454.46,264.95 1552.5,344 C1564.52,353.69 1571.6591,361.8028 1580.0391,374.4128 " fill="none" id="Personaje-to-Mano" style="stroke:#181818;stroke-width:1.0;"/><polygon fill="#181818" points="1583.36,379.41,1581.7101,369.7003,1580.5926,375.2457,1575.0472,374.1282,1583.36,379.41" style="stroke:#181818;stroke-width:1.0;"/></g><!--SRC=[dLJDRjGm4BxdAQoUij15OezHLQbbMxWKAYfnjIRsT9dYs5lRYVZhG_4Cl1YE4s-ycoqIN19xVh_vnZD2WNFi5gqp6XwG_IWOMp9jcjfYnUwy9Rs9eeuay0Q-LknU6V2J38HlGUNYfaNhWxUZZGOLHH02rQqtZWjeQW9hz4uV35u60n1WoqN5EaCoYYmAgibo2Rz_cJ9-AxRkVxaLFhQq3Pxn7mokuhrMUCgSChvYfFqY4qSdYIxvFM_K64lxY1nwhgb3LSPlSjlf1IZHAh1yLsxllYRXYwUY497g2m-FRU9vctYlfXOC588scUpLJRX7XQaVq5CNb1_6Kx570pyMyfJnOm5pw5jh1Be0_PuS2IYvHELXx6fkoElMXKxn12IMU64jV3jBYCuFgxq8L3JWIPYnRW5Ru5CfWSRXbLW4Ben6uK527nPXjIx-AU_8xzdFvNAMFQ6wCHqrXDedFE4zUD8pKXlJeIsVOVGOGK_p3BFQ9OM7xQaVW4_XOEmgYgtULEmZQ6cQzsrJetsB6Yq4_VzZoUgCV1n3LHJJyBy8DYUhav6tGyNhaon0AZJEOwgiF_CQ7ERR0DqRItscYjN6g55s3KhbacbaU5m5kbyWSN8Ej1BlKKkSz7kJrp-A8VLJNjXoUJuYhLZhWA4-s2wBLC-LneOsGqLXu7tFqJJN_S8h-TxmxxBj-Q_6wpM53NTfmccWY7Hd18ZO_LiGNr3UYT3duOKRpJqrQEFNjBxCMZdL4ZivfYaIt5ouIjBL8DvXI1ZVeJKuLlYt9SVdMswE90Oh2jHjm_gb4kFIzx2Eq4e8Puc1wiymRqZSQNy0]--></g></svg>