<?xml version="1.0" encoding="us-ascii" standalone="no"?><svg xmlns="http://www.w3.org/2000/svg" xmlns:xlink="http://www.w3.org/1999/xlink" contentStyleType="text/css" height="577px" preserveAspectRatio="none" style="width:1643px;height:577px;background:#FFFFFF;" version="1.1" viewBox="0 0 1643 577" width="1643px" zoomAndPan="magnify"><defs/><g><!--class Contenedor--><g id="elem_Contenedor"><rect codeLine="2" fill="#F1F1F1" height="224.0938" id="Contenedor" rx="2.5" ry="2.5" style="stroke:#181818;stroke-width:0.5;" width="314" x="446.5" y="115"/><ellipse cx="561.75" cy="131" fill="#ADD1B2" rx="11" ry="11" style="stroke:#181818;stroke-width:1.0;"/><path d="M564.5156,126.875 Q564.6719,126.6563 564.8594,126.5469 Q565.0469,126.4375 565.2656,126.4375 Q565.6406,126.4375 565.875,126.7031 Q566.1094,126.9531 566.1094,127.5625 L566.1094,129.0156 Q566.1094,129.625 565.875,129.8906 Q565.6406,130.1563 565.2656,130.1563 Q564.9219,130.1563 564.7188,129.9531 Q564.5156,129.7656 564.4063,129.25 Q564.3594,128.8906 564.1719,128.7031 Q563.8438,128.3281 563.2344,128.1094 Q562.625,127.8906 562,127.8906 Q561.2344,127.8906 560.5938,128.2188 Q559.9688,128.5469 559.4688,129.2969 Q558.9844,130.0469 558.9844,131.0781 L558.9844,132.1719 Q558.9844,133.4063 559.875,134.2344 Q560.7656,135.0469 562.3594,135.0469 Q563.2969,135.0469 563.9531,134.7969 Q564.3438,134.6406 564.7656,134.2031 Q565.0313,133.9375 565.1719,133.8594 Q565.3281,133.7813 565.5313,133.7813 Q565.8594,133.7813 566.1094,134.0469 Q566.375,134.2969 566.375,134.6406 Q566.375,134.9844 566.0313,135.3906 Q565.5313,135.9688 564.7344,136.2969 Q563.6563,136.75 562.3594,136.75 Q560.8438,136.75 559.6406,136.125 Q558.6563,135.625 557.9688,134.5625 Q557.2813,133.4844 557.2813,132.2031 L557.2813,131.0469 Q557.2813,129.7188 557.8906,128.5781 Q558.5156,127.4219 559.6094,126.8125 Q560.7031,126.1875 561.9375,126.1875 Q562.6719,126.1875 563.3125,126.3594 Q563.9688,126.5156 564.5156,126.875 Z " fill="#000000"/><text fill="#000000" font-family="sans-serif" font-size="14" lengthAdjust="spacing" textLength="75" x="582.25" y="136.7285">Contenedor</text><line style="stroke:#181818;stroke-width:0.5;" x1="447.5" x2="759.5" y1="147" y2="147"/><rect fill="none" height="6" style="stroke:#C82930;stroke-width:1.0;" width="6" x="454.5" y="158.3047"/><text fill="#000000" font-family="sans-serif" font-size="14" lengthAdjust="spacing" textLength="56" x="466.5" y="165.5332">_filas: int</text><rect fill="none" height="6" style="stroke:#C82930;stroke-width:1.0;" width="6" x="454.5" y="175.9141"/><text fill="#000000" font-family="sans-serif" font-size="14" lengthAdjust="spacing" textLength="91" x="466.5" y="183.1426">_columnas: int</text><rect fill="none" height="6" style="stroke:#C82930;stroke-width:1.0;" width="6" x="454.5" y="193.5234"/><text fill="#000000" font-family="sans-serif" font-size="14" lengthAdjust="spacing" textLength="75" x="466.5" y="200.752">items: Item[]</text><line style="stroke:#181818;stroke-width:0.5;" x1="447.5" x2="759.5" y1="207.8281" y2="207.8281"/><ellipse cx="457.5" cy="222.1328" fill="#84BE84" rx="3" ry="3" style="stroke:#038048;stroke-width:1.0;"/><text fill="#000000" font-family="sans-serif" font-size="14" lengthAdjust="spacing" textLength="183" x="466.5" y="226.3613">set_tama&#241;o(f: int, c: int): void</text><ellipse cx="457.5" cy="239.7422" fill="#84BE84" rx="3" ry="3" style="stroke:#038048;stroke-width:1.0;"/><text fill="#000000" font-family="sans-serif" font-size="14" lengthAdjust="spacing" textLength="288" x="466.5" y="243.9707">agregar(item: Item, fila: int, columna: int): bool</text><ellipse cx="457.5" cy="257.3516" fill="#84BE84" rx="3" ry="3" style="stroke:#038048;stroke-width:1.0;"/><text fill="#000000" font-family="sans-serif" font-size="14" lengthAdjust="spacing" textLength="205" x="466.5" y="261.5801">quitar(fila: int, columna: int): Item</text><ellipse cx="457.5" cy="274.9609" fill="#84BE84" rx="3" ry="3" style="stroke:#038048;stroke-width:1.0;"/><text fill="#000000" font-family="sans-serif" font-size="14" lengthAdjust="spacing" textLength="73" x="466.5" y="279.1895">abrir(): void</text><ellipse cx="457.5" cy="292.5703" fill="#84BE84" rx="3" ry="3" style="stroke:#038048;stroke-width:1.0;"/><text fill="#000000" font-family="sans-serif" font-size="14" lengthAdjust="spacing" textLength="82" x="466.5" y="296.7988">cerrar(): void</text><polygon fill="#FFFF44" points="457.5,305.1797,461.5,309.1797,457.5,313.1797,453.5,309.1797" style="stroke:#B38D22;stroke-width:1.0;"/><text fill="#000000" font-family="sans-serif" font-size="14" lengthAdjust="spacing" textLength="191" x="466.5" y="314.4082">_crear_slot(index: int): Control</text><polygon fill="#FFFF44" points="457.5,322.7891,461.5,326.7891,457.5,330.7891,453.5,326.7891" style="stroke:#B38D22;stroke-width:1.0;"/><text fill="#000000" font-family="sans-serif" font-size="14" lengthAdjust="spacing" textLength="198" x="466.5" y="332.0176">_actualizar_slot(index: int): void</text></g><!--class Inventario--><g id="elem_Inventario"><rect codeLine="15" fill="#F1F1F1" height="83.2188" id="Inventario" rx="2.5" ry="2.5" style="stroke:#181818;stroke-width:0.5;" width="141" x="7" y="443"/><ellipse cx="43.15" cy="459" fill="#ADD1B2" rx="11" ry="11" style="stroke:#181818;stroke-width:1.0;"/><path d="M45.9156,454.875 Q46.0719,454.6563 46.2594,454.5469 Q46.4469,454.4375 46.6656,454.4375 Q47.0406,454.4375 47.275,454.7031 Q47.5094,454.9531 47.5094,455.5625 L47.5094,457.0156 Q47.5094,457.625 47.275,457.8906 Q47.0406,458.1563 46.6656,458.1563 Q46.3219,458.1563 46.1188,457.9531 Q45.9156,457.7656 45.8063,457.25 Q45.7594,456.8906 45.5719,456.7031 Q45.2438,456.3281 44.6344,456.1094 Q44.025,455.8906 43.4,455.8906 Q42.6344,455.8906 41.9938,456.2188 Q41.3688,456.5469 40.8688,457.2969 Q40.3844,458.0469 40.3844,459.0781 L40.3844,460.1719 Q40.3844,461.4063 41.275,462.2344 Q42.1656,463.0469 43.7594,463.0469 Q44.6969,463.0469 45.3531,462.7969 Q45.7438,462.6406 46.1656,462.2031 Q46.4313,461.9375 46.5719,461.8594 Q46.7281,461.7813 46.9313,461.7813 Q47.2594,461.7813 47.5094,462.0469 Q47.775,462.2969 47.775,462.6406 Q47.775,462.9844 47.4313,463.3906 Q46.9313,463.9688 46.1344,464.2969 Q45.0563,464.75 43.7594,464.75 Q42.2438,464.75 41.0406,464.125 Q40.0563,463.625 39.3688,462.5625 Q38.6813,461.4844 38.6813,460.2031 L38.6813,459.0469 Q38.6813,457.7188 39.2906,456.5781 Q39.9156,455.4219 41.0094,454.8125 Q42.1031,454.1875 43.3375,454.1875 Q44.0719,454.1875 44.7125,454.3594 Q45.3688,454.5156 45.9156,454.875 Z " fill="#000000"/><text fill="#000000" font-family="sans-serif" font-size="14" lengthAdjust="spacing" textLength="62" x="61.85" y="464.7285">Inventario</text><line style="stroke:#181818;stroke-width:0.5;" x1="8" x2="147" y1="475" y2="475"/><rect fill="none" height="6" style="stroke:#C82930;stroke-width:1.0;" width="6" x="15" y="486.3047"/><text fill="#000000" font-family="sans-serif" font-size="14" lengthAdjust="spacing" textLength="80" x="27" y="493.5332">_filas: int = 5</text><rect fill="none" height="6" style="stroke:#C82930;stroke-width:1.0;" width="6" x="15" y="503.9141"/><text fill="#000000" font-family="sans-serif" font-size="14" lengthAdjust="spacing" textLength="115" x="27" y="511.1426">_columnas: int = 5</text><line style="stroke:#181818;stroke-width:0.5;" x1="8" x2="147" y1="518.2188" y2="518.2188"/></g><!--class Forja--><g id="elem_Forja"><rect codeLine="20" fill="#F1F1F1" height="118.4375" id="Forja" rx="2.5" ry="2.5" style="stroke:#181818;stroke-width:0.5;" width="177" x="183" y="425.5"/><ellipse cx="250.75" cy="441.5" fill="#ADD1B2" rx="11" ry="11" style="stroke:#181818;stroke-width:1.0;"/><path d="M253.5156,437.375 Q253.6719,437.1563 253.8594,437.0469 Q254.0469,436.9375 254.2656,436.9375 Q254.6406,436.9375 254.875,437.2031 Q255.1094,437.4531 255.1094,438.0625 L255.1094,439.5156 Q255.1094,440.125 254.875,440.3906 Q254.6406,440.6563 254.2656,440.6563 Q253.9219,440.6563 253.7188,440.4531 Q253.5156,440.2656 253.4063,439.75 Q253.3594,439.3906 253.1719,439.2031 Q252.8438,438.8281 252.2344,438.6094 Q251.625,438.3906 251,438.3906 Q250.2344,438.3906 249.5938,438.7188 Q248.9688,439.0469 248.4688,439.7969 Q247.9844,440.5469 247.9844,441.5781 L247.9844,442.6719 Q247.9844,443.9063 248.875,444.7344 Q249.7656,445.5469 251.3594,445.5469 Q252.2969,445.5469 252.9531,445.2969 Q253.3438,445.1406 253.7656,444.7031 Q254.0313,444.4375 254.1719,444.3594 Q254.3281,444.2813 254.5313,444.2813 Q254.8594,444.2813 255.1094,444.5469 Q255.375,444.7969 255.375,445.1406 Q255.375,445.4844 255.0313,445.8906 Q254.5313,446.4688 253.7344,446.7969 Q252.6563,447.25 251.3594,447.25 Q249.8438,447.25 248.6406,446.625 Q247.6563,446.125 246.9688,445.0625 Q246.2813,443.9844 246.2813,442.7031 L246.2813,441.5469 Q246.2813,440.2188 246.8906,439.0781 Q247.5156,437.9219 248.6094,437.3125 Q249.7031,436.6875 250.9375,436.6875 Q251.6719,436.6875 252.3125,436.8594 Q252.9688,437.0156 253.5156,437.375 Z " fill="#000000"/><text fill="#000000" font-family="sans-serif" font-size="14" lengthAdjust="spacing" textLength="33" x="271.25" y="447.2285">Forja</text><line style="stroke:#181818;stroke-width:0.5;" x1="184" x2="359" y1="457.5" y2="457.5"/><rect fill="none" height="6" style="stroke:#C82930;stroke-width:1.0;" width="6" x="191" y="468.8047"/><text fill="#000000" font-family="sans-serif" font-size="14" lengthAdjust="spacing" textLength="80" x="203" y="476.0332">_filas: int = 1</text><rect fill="none" height="6" style="stroke:#C82930;stroke-width:1.0;" width="6" x="191" y="486.4141"/><text fill="#000000" font-family="sans-serif" font-size="14" lengthAdjust="spacing" textLength="115" x="203" y="493.6426">_columnas: int = 3</text><rect fill="none" height="6" style="stroke:#C82930;stroke-width:1.0;" width="6" x="191" y="504.0234"/><text fill="#000000" font-family="sans-serif" font-size="14" lengthAdjust="spacing" textLength="108" x="203" y="511.252">recetas: Receta[]</text><line style="stroke:#181818;stroke-width:0.5;" x1="184" x2="359" y1="518.3281" y2="518.3281"/><ellipse cx="194" cy="532.6328" fill="#84BE84" rx="3" ry="3" style="stroke:#038048;stroke-width:1.0;"/><text fill="#000000" font-family="sans-serif" font-size="14" lengthAdjust="spacing" textLength="151" x="203" y="536.8613">intentar_fusionar(): Item</text></g><!--class Contenedor_Cofre--><g id="elem_Contenedor_Cofre"><rect codeLine="27" fill="#F1F1F1" height="118.4375" id="Contenedor_Cofre" rx="2.5" ry="2.5" style="stroke:#181818;stroke-width:0.5;" width="150" x="395.5" y="425.5"/><ellipse cx="410.5" cy="441.5" fill="#ADD1B2" rx="11" ry="11" style="stroke:#181818;stroke-width:1.0;"/><path d="M413.2656,437.375 Q413.4219,437.1563 413.6094,437.0469 Q413.7969,436.9375 414.0156,436.9375 Q414.3906,436.9375 414.625,437.2031 Q414.8594,437.4531 414.8594,438.0625 L414.8594,439.5156 Q414.8594,440.125 414.625,440.3906 Q414.3906,440.6563 414.0156,440.6563 Q413.6719,440.6563 413.4688,440.4531 Q413.2656,440.2656 413.1563,439.75 Q413.1094,439.3906 412.9219,439.2031 Q412.5938,438.8281 411.9844,438.6094 Q411.375,438.3906 410.75,438.3906 Q409.9844,438.3906 409.3438,438.7188 Q408.7188,439.0469 408.2188,439.7969 Q407.7344,440.5469 407.7344,441.5781 L407.7344,442.6719 Q407.7344,443.9063 408.625,444.7344 Q409.5156,445.5469 411.1094,445.5469 Q412.0469,445.5469 412.7031,445.2969 Q413.0938,445.1406 413.5156,444.7031 Q413.7813,444.4375 413.9219,444.3594 Q414.0781,444.2813 414.2813,444.2813 Q414.6094,444.2813 414.8594,444.5469 Q415.125,444.7969 415.125,445.1406 Q415.125,445.4844 414.7813,445.8906 Q414.2813,446.4688 413.4844,446.7969 Q412.4063,447.25 411.1094,447.25 Q409.5938,447.25 408.3906,446.625 Q407.4063,446.125 406.7188,445.0625 Q406.0313,443.9844 406.0313,442.7031 L406.0313,441.5469 Q406.0313,440.2188 406.6406,439.0781 Q407.2656,437.9219 408.3594,437.3125 Q409.4531,436.6875 410.6875,436.6875 Q411.4219,436.6875 412.0625,436.8594 Q412.7188,437.0156 413.2656,437.375 Z " fill="#000000"/><text fill="#000000" font-family="sans-serif" font-size="14" lengthAdjust="spacing" textLength="118" x="424.5" y="447.2285">Contenedor_Cofre</text><line style="stroke:#181818;stroke-width:0.5;" x1="396.5" x2="544.5" y1="457.5" y2="457.5"/><rect fill="none" height="6" style="stroke:#C82930;stroke-width:1.0;" width="6" x="403.5" y="468.8047"/><text fill="#000000" font-family="sans-serif" font-size="14" lengthAdjust="spacing" textLength="80" x="415.5" y="476.0332">_filas: int = 1</text><rect fill="none" height="6" style="stroke:#C82930;stroke-width:1.0;" width="6" x="403.5" y="486.4141"/><text fill="#000000" font-family="sans-serif" font-size="14" lengthAdjust="spacing" textLength="115" x="415.5" y="493.6426">_columnas: int = 5</text><rect fill="none" height="6" style="stroke:#C82930;stroke-width:1.0;" width="6" x="403.5" y="504.0234"/><text fill="#000000" font-family="sans-serif" font-size="14" lengthAdjust="spacing" textLength="75" x="415.5" y="511.252">cofre: Cofre</text><rect fill="none" height="6" style="stroke:#C82930;stroke-width:1.0;" width="6" x="403.5" y="521.6328"/><text fill="#000000" font-family="sans-serif" font-size="14" lengthAdjust="spacing" textLength="123" x="415.5" y="528.8613">items -&gt; cofre.items</text><line style="stroke:#181818;stroke-width:0.5;" x1="396.5" x2="544.5" y1="535.9375" y2="535.9375"/></g><!--class Basurero--><g id="elem_Basurero"><rect codeLine="34" fill="#F1F1F1" height="171.2656" id="Basurero" rx="2.5" ry="2.5" style="stroke:#181818;stroke-width:0.5;" width="314" x="580.5" y="399"/><ellipse cx="704.25" cy="415" fill="#ADD1B2" rx="11" ry="11" style="stroke:#181818;stroke-width:1.0;"/><path d="M707.0156,410.875 Q707.1719,410.6563 707.3594,410.5469 Q707.5469,410.4375 707.7656,410.4375 Q708.1406,410.4375 708.375,410.7031 Q708.6094,410.9531 708.6094,411.5625 L708.6094,413.0156 Q708.6094,413.625 708.375,413.8906 Q708.1406,414.1563 707.7656,414.1563 Q707.4219,414.1563 707.2188,413.9531 Q707.0156,413.7656 706.9063,413.25 Q706.8594,412.8906 706.6719,412.7031 Q706.3438,412.3281 705.7344,412.1094 Q705.125,411.8906 704.5,411.8906 Q703.7344,411.8906 703.0938,412.2188 Q702.4688,412.5469 701.9688,413.2969 Q701.4844,414.0469 701.4844,415.0781 L701.4844,416.1719 Q701.4844,417.4063 702.375,418.2344 Q703.2656,419.0469 704.8594,419.0469 Q705.7969,419.0469 706.4531,418.7969 Q706.8438,418.6406 707.2656,418.2031 Q707.5313,417.9375 707.6719,417.8594 Q707.8281,417.7813 708.0313,417.7813 Q708.3594,417.7813 708.6094,418.0469 Q708.875,418.2969 708.875,418.6406 Q708.875,418.9844 708.5313,419.3906 Q708.0313,419.9688 707.2344,420.2969 Q706.1563,420.75 704.8594,420.75 Q703.3438,420.75 702.1406,420.125 Q701.1563,419.625 700.4688,418.5625 Q699.7813,417.4844 699.7813,416.2031 L699.7813,415.0469 Q699.7813,413.7188 700.3906,412.5781 Q701.0156,411.4219 702.1094,410.8125 Q703.2031,410.1875 704.4375,410.1875 Q705.1719,410.1875 705.8125,410.3594 Q706.4688,410.5156 707.0156,410.875 Z " fill="#000000"/><text fill="#000000" font-family="sans-serif" font-size="14" lengthAdjust="spacing" textLength="58" x="724.75" y="420.7285">Basurero</text><line style="stroke:#181818;stroke-width:0.5;" x1="581.5" x2="893.5" y1="431" y2="431"/><rect fill="none" height="6" style="stroke:#C82930;stroke-width:1.0;" width="6" x="588.5" y="442.3047"/><text fill="#000000" font-family="sans-serif" font-size="14" lengthAdjust="spacing" textLength="80" x="600.5" y="449.5332">_filas: int = 1</text><rect fill="none" height="6" style="stroke:#C82930;stroke-width:1.0;" width="6" x="588.5" y="459.9141"/><text fill="#000000" font-family="sans-serif" font-size="14" lengthAdjust="spacing" textLength="115" x="600.5" y="467.1426">_columnas: int = 1</text><rect fill="none" height="6" style="stroke:#C82930;stroke-width:1.0;" width="6" x="588.5" y="477.5234"/><text fill="#000000" font-family="sans-serif" font-size="14" lengthAdjust="spacing" textLength="151" x="600.5" y="484.752">icono_tacho: Texture2D</text><line style="stroke:#181818;stroke-width:0.5;" x1="581.5" x2="893.5" y1="491.8281" y2="491.8281"/><ellipse cx="591.5" cy="506.1328" fill="#84BE84" rx="3" ry="3" style="stroke:#038048;stroke-width:1.0;"/><text fill="#000000" font-family="sans-serif" font-size="14" lengthAdjust="spacing" textLength="288" x="600.5" y="510.3613">agregar(item: Item, fila: int, columna: int): bool</text><ellipse cx="591.5" cy="523.7422" fill="#84BE84" rx="3" ry="3" style="stroke:#038048;stroke-width:1.0;"/><text fill="#000000" font-family="sans-serif" font-size="14" lengthAdjust="spacing" textLength="205" x="600.5" y="527.9707">quitar(fila: int, columna: int): Item</text><polygon fill="#FFFF44" points="591.5,536.3516,595.5,540.3516,591.5,544.3516,587.5,540.3516" style="stroke:#B38D22;stroke-width:1.0;"/><text fill="#000000" font-family="sans-serif" font-size="14" lengthAdjust="spacing" textLength="191" x="600.5" y="545.5801">_crear_slot(index: int): Control</text><polygon fill="#FFFF44" points="591.5,553.9609,595.5,557.9609,591.5,561.9609,587.5,557.9609" style="stroke:#B38D22;stroke-width:1.0;"/><text fill="#000000" font-family="sans-serif" font-size="14" lengthAdjust="spacing" textLength="198" x="600.5" y="563.1895">_actualizar_slot(index: int): void</text></g><!--class Contenedor_Armas--><g id="elem_Contenedor_Armas"><rect codeLine="44" fill="#F1F1F1" height="153.6563" id="Contenedor_Armas" rx="2.5" ry="2.5" style="stroke:#181818;stroke-width:0.5;" width="321" x="930" y="407.5"/><ellipse cx="1024.75" cy="423.5" fill="#ADD1B2" rx="11" ry="11" style="stroke:#181818;stroke-width:1.0;"/><path d="M1027.5156,419.375 Q1027.6719,419.1563 1027.8594,419.0469 Q1028.0469,418.9375 1028.2656,418.9375 Q1028.6406,418.9375 1028.875,419.2031 Q1029.1094,419.4531 1029.1094,420.0625 L1029.1094,421.5156 Q1029.1094,422.125 1028.875,422.3906 Q1028.6406,422.6563 1028.2656,422.6563 Q1027.9219,422.6563 1027.7188,422.4531 Q1027.5156,422.2656 1027.4063,421.75 Q1027.3594,421.3906 1027.1719,421.2031 Q1026.8438,420.8281 1026.2344,420.6094 Q1025.625,420.3906 1025,420.3906 Q1024.2344,420.3906 1023.5938,420.7188 Q1022.9688,421.0469 1022.4688,421.7969 Q1021.9844,422.5469 1021.9844,423.5781 L1021.9844,424.6719 Q1021.9844,425.9063 1022.875,426.7344 Q1023.7656,427.5469 1025.3594,427.5469 Q1026.2969,427.5469 1026.9531,427.2969 Q1027.3438,427.1406 1027.7656,426.7031 Q1028.0313,426.4375 1028.1719,426.3594 Q1028.3281,426.2813 1028.5313,426.2813 Q1028.8594,426.2813 1029.1094,426.5469 Q1029.375,426.7969 1029.375,427.1406 Q1029.375,427.4844 1029.0313,427.8906 Q1028.5313,428.4688 1027.7344,428.7969 Q1026.6563,429.25 1025.3594,429.25 Q1023.8438,429.25 1022.6406,428.625 Q1021.6563,428.125 1020.9688,427.0625 Q1020.2813,425.9844 1020.2813,424.7031 L1020.2813,423.5469 Q1020.2813,422.2188 1020.8906,421.0781 Q1021.5156,419.9219 1022.6094,419.3125 Q1023.7031,418.6875 1024.9375,418.6875 Q1025.6719,418.6875 1026.3125,418.8594 Q1026.9688,419.0156 1027.5156,419.375 Z " fill="#000000"/><text fill="#000000" font-family="sans-serif" font-size="14" lengthAdjust="spacing" textLength="123" x="1045.25" y="429.2285">Contenedor_Armas</text><line style="stroke:#181818;stroke-width:0.5;" x1="931" x2="1250" y1="439.5" y2="439.5"/><rect fill="none" height="6" style="stroke:#C82930;stroke-width:1.0;" width="6" x="938" y="450.8047"/><text fill="#000000" font-family="sans-serif" font-size="14" lengthAdjust="spacing" textLength="80" x="950" y="458.0332">_filas: int = 1</text><rect fill="none" height="6" style="stroke:#C82930;stroke-width:1.0;" width="6" x="938" y="468.4141"/><text fill="#000000" font-family="sans-serif" font-size="14" lengthAdjust="spacing" textLength="115" x="950" y="475.6426">_columnas: int = 2</text><rect fill="none" height="6" style="stroke:#C82930;stroke-width:1.0;" width="6" x="938" y="486.0234"/><text fill="#000000" font-family="sans-serif" font-size="14" lengthAdjust="spacing" textLength="135" x="950" y="493.252">personaje: Personaje</text><rect fill="none" height="6" style="stroke:#C82930;stroke-width:1.0;" width="6" x="938" y="503.6328"/><text fill="#000000" font-family="sans-serif" font-size="14" lengthAdjust="spacing" textLength="220" x="950" y="510.8613">items -&gt; personaje.arma_equipada</text><line style="stroke:#181818;stroke-width:0.5;" x1="931" x2="1250" y1="517.9375" y2="517.9375"/><ellipse cx="941" cy="532.2422" fill="#84BE84" rx="3" ry="3" style="stroke:#038048;stroke-width:1.0;"/><text fill="#000000" font-family="sans-serif" font-size="14" lengthAdjust="spacing" textLength="295" x="950" y="536.4707">agregar(item: Arma, fila: int, columna: int): bool</text><ellipse cx="941" cy="549.8516" fill="#84BE84" rx="3" ry="3" style="stroke:#038048;stroke-width:1.0;"/><text fill="#000000" font-family="sans-serif" font-size="14" lengthAdjust="spacing" textLength="212" x="950" y="554.0801">quitar(fila: int, columna: int): Arma</text></g><!--class Contenedor_Armadura--><g id="elem_Contenedor_Armadura"><rect codeLine="53" fill="#F1F1F1" height="153.6563" id="Contenedor_Armadura" rx="2.5" ry="2.5" style="stroke:#181818;stroke-width:0.5;" width="350" x="1286.5" y="407.5"/><ellipse cx="1384.75" cy="423.5" fill="#ADD1B2" rx="11" ry="11" style="stroke:#181818;stroke-width:1.0;"/><path d="M1387.5156,419.375 Q1387.6719,419.1563 1387.8594,419.0469 Q1388.0469,418.9375 1388.2656,418.9375 Q1388.6406,418.9375 1388.875,419.2031 Q1389.1094,419.4531 1389.1094,420.0625 L1389.1094,421.5156 Q1389.1094,422.125 1388.875,422.3906 Q1388.6406,422.6563 1388.2656,422.6563 Q1387.9219,422.6563 1387.7188,422.4531 Q1387.5156,422.2656 1387.4063,421.75 Q1387.3594,421.3906 1387.1719,421.2031 Q1386.8438,420.8281 1386.2344,420.6094 Q1385.625,420.3906 1385,420.3906 Q1384.2344,420.3906 1383.5938,420.7188 Q1382.9688,421.0469 1382.4688,421.7969 Q1381.9844,422.5469 1381.9844,423.5781 L1381.9844,424.6719 Q1381.9844,425.9063 1382.875,426.7344 Q1383.7656,427.5469 1385.3594,427.5469 Q1386.2969,427.5469 1386.9531,427.2969 Q1387.3438,427.1406 1387.7656,426.7031 Q1388.0313,426.4375 1388.1719,426.3594 Q1388.3281,426.2813 1388.5313,426.2813 Q1388.8594,426.2813 1389.1094,426.5469 Q1389.375,426.7969 1389.375,427.1406 Q1389.375,427.4844 1389.0313,427.8906 Q1388.5313,428.4688 1387.7344,428.7969 Q1386.6563,429.25 1385.3594,429.25 Q1383.8438,429.25 1382.6406,428.625 Q1381.6563,428.125 1380.9688,427.0625 Q1380.2813,425.9844 1380.2813,424.7031 L1380.2813,423.5469 Q1380.2813,422.2188 1380.8906,421.0781 Q1381.5156,419.9219 1382.6094,419.3125 Q1383.7031,418.6875 1384.9375,418.6875 Q1385.6719,418.6875 1386.3125,418.8594 Q1386.9688,419.0156 1387.5156,419.375 Z " fill="#000000"/><text fill="#000000" font-family="sans-serif" font-size="14" lengthAdjust="spacing" textLength="145" x="1405.25" y="429.2285">Contenedor_Armadura</text><line style="stroke:#181818;stroke-width:0.5;" x1="1287.5" x2="1635.5" y1="439.5" y2="439.5"/><rect fill="none" height="6" style="stroke:#C82930;stroke-width:1.0;" width="6" x="1294.5" y="450.8047"/><text fill="#000000" font-family="sans-serif" font-size="14" lengthAdjust="spacing" textLength="80" x="1306.5" y="458.0332">_filas: int = 1</text><rect fill="none" height="6" style="stroke:#C82930;stroke-width:1.0;" width="6" x="1294.5" y="468.4141"/><text fill="#000000" font-family="sans-serif" font-size="14" lengthAdjust="spacing" textLength="115" x="1306.5" y="475.6426">_columnas: int = 3</text><rect fill="none" height="6" style="stroke:#C82930;stroke-width:1.0;" width="6" x="1294.5" y="486.0234"/><text fill="#000000" font-family="sans-serif" font-size="14" lengthAdjust="spacing" textLength="135" x="1306.5" y="493.252">personaje: Personaje</text><rect fill="none" height="6" style="stroke:#C82930;stroke-width:1.0;" width="6" x="1294.5" y="503.6328"/><text fill="#000000" font-family="sans-serif" font-size="14" lengthAdjust="spacing" textLength="249" x="1306.5" y="510.8613">items -&gt; personaje.armadura_equipada</text><line style="stroke:#181818;stroke-width:0.5;" x1="1287.5" x2="1635.5" y1="517.9375" y2="517.9375"/><ellipse cx="1297.5" cy="532.2422" fill="#84BE84" rx="3" ry="3" style="stroke:#038048;stroke-width:1.0;"/><text fill="#000000" font-family="sans-serif" font-size="14" lengthAdjust="spacing" textLength="324" x="1306.5" y="536.4707">agregar(item: Armadura, fila: int, columna: int): bool</text><ellipse cx="1297.5" cy="549.8516" fill="#84BE84" rx="3" ry="3" style="stroke:#038048;stroke-width:1.0;"/><text fill="#000000" font-family="sans-serif" font-size="14" lengthAdjust="spacing" textLength="241" x="1306.5" y="554.0801">quitar(fila: int, columna: int): Armadura</text></g><!--class GridContainer--><g id="elem_GridContainer"><rect fill="#F1F1F1" height="48" id="GridContainer" rx="2.5" ry="2.5" style="stroke:#181818;stroke-width:0.5;" width="121" x="543" y="7"/><ellipse cx="558" cy="23" fill="#ADD1B2" rx="11" ry="11" style="stroke:#181818;stroke-width:1.0;"/><path d="M560.7656,18.875 Q560.9219,18.6563 561.1094,18.5469 Q561.2969,18.4375 561.5156,18.4375 Q561.8906,18.4375 562.125,18.7031 Q562.3594,18.9531 562.3594,19.5625 L562.3594,21.0156 Q562.3594,21.625 562.125,21.8906 Q561.8906,22.1563 561.5156,22.1563 Q561.1719,22.1563 560.9688,21.9531 Q560.7656,21.7656 560.6563,21.25 Q560.6094,20.8906 560.4219,20.7031 Q560.0938,20.3281 559.4844,20.1094 Q558.875,19.8906 558.25,19.8906 Q557.4844,19.8906 556.8438,20.2188 Q556.2188,20.5469 555.7188,21.2969 Q555.2344,22.0469 555.2344,23.0781 L555.2344,24.1719 Q555.2344,25.4063 556.125,26.2344 Q557.0156,27.0469 558.6094,27.0469 Q559.5469,27.0469 560.2031,26.7969 Q560.5938,26.6406 561.0156,26.2031 Q561.2813,25.9375 561.4219,25.8594 Q561.5781,25.7813 561.7813,25.7813 Q562.1094,25.7813 562.3594,26.0469 Q562.625,26.2969 562.625,26.6406 Q562.625,26.9844 562.2813,27.3906 Q561.7813,27.9688 560.9844,28.2969 Q559.9063,28.75 558.6094,28.75 Q557.0938,28.75 555.8906,28.125 Q554.9063,27.625 554.2188,26.5625 Q553.5313,25.4844 553.5313,24.2031 L553.5313,23.0469 Q553.5313,21.7188 554.1406,20.5781 Q554.7656,19.4219 555.8594,18.8125 Q556.9531,18.1875 558.1875,18.1875 Q558.9219,18.1875 559.5625,18.3594 Q560.2188,18.5156 560.7656,18.875 Z " fill="#000000"/><text fill="#000000" font-family="sans-serif" font-size="14" lengthAdjust="spacing" textLength="89" x="572" y="28.7285">GridContainer</text><line style="stroke:#181818;stroke-width:0.5;" x1="544" x2="663" y1="39" y2="39"/><line style="stroke:#181818;stroke-width:0.5;" x1="544" x2="663" y1="47" y2="47"/></g><!--reverse link GridContainer to Contenedor--><g id="link_GridContainer_Contenedor"><path codeLine="62" d="M603.5,73.02 C603.5,88.47 603.5,92.1 603.5,114.79 " fill="none" id="GridContainer-backto-Contenedor" style="stroke:#181818;stroke-width:1.0;"/><polygon fill="none" points="603.5,55.02,597.5,73.02,609.5,73.02,603.5,55.02" style="stroke:#181818;stroke-width:1.0;"/></g><!--reverse link Contenedor to Inventario--><g id="link_Contenedor_Inventario"><path codeLine="63" d="M429.3284,278.296 C342.5384,306.966 252.17,343.61 165.5,399 C146.58,411.09 128.24,427.66 113.25,442.92 " fill="none" id="Contenedor-backto-Inventario" style="stroke:#181818;stroke-width:1.0;"/><polygon fill="none" points="446.42,272.65,427.4464,272.5988,431.2104,283.9932,446.42,272.65" style="stroke:#181818;stroke-width:1.0;"/></g><!--reverse link Contenedor to Forja--><g id="link_Contenedor_Forja"><path codeLine="64" d="M441.049,350.1214 C415.009,369.9114 402.56,379.53 377.5,399 C366.63,407.45 355.19,416.44 344.01,425.3 " fill="none" id="Contenedor-backto-Forja" style="stroke:#181818;stroke-width:1.0;"/><polygon fill="none" points="455.38,339.23,437.4185,345.3444,444.6794,354.8984,455.38,339.23" style="stroke:#181818;stroke-width:1.0;"/></g><!--reverse link Contenedor to Contenedor_Cofre--><g id="link_Contenedor_Contenedor_Cofre"><path codeLine="65" d="M537.24,355.287 C521.84,384.877 514.13,399.69 500.86,425.17 " fill="none" id="Contenedor-backto-Contenedor_Cofre" style="stroke:#181818;stroke-width:1.0;"/><polygon fill="none" points="545.55,339.32,531.9177,352.517,542.5624,358.057,545.55,339.32" style="stroke:#181818;stroke-width:1.0;"/></g><!--reverse link Contenedor to Basurero--><g id="link_Contenedor_Basurero"><path codeLine="66" d="M670.239,355.2614 C680.679,375.1714 683.04,379.67 693.01,398.68 " fill="none" id="Contenedor-backto-Basurero" style="stroke:#181818;stroke-width:1.0;"/><polygon fill="none" points="661.88,339.32,664.9252,358.0477,675.5528,352.475,661.88,339.32" style="stroke:#181818;stroke-width:1.0;"/></g><!--reverse link Contenedor to Contenedor_Armas--><g id="link_Contenedor_Contenedor_Armas"><path codeLine="67" d="M776.5487,318.7842 C835.8887,349.9242 887.17,376.82 945.37,407.36 " fill="none" id="Contenedor-backto-Contenedor_Armas" style="stroke:#181818;stroke-width:1.0;"/><polygon fill="none" points="760.61,310.42,773.7606,324.0971,779.3367,313.4713,760.61,310.42" style="stroke:#181818;stroke-width:1.0;"/></g><!--reverse link Contenedor to Contenedor_Armadura--><g id="link_Contenedor_Contenedor_Armadura"><path codeLine="68" d="M778.3609,264.8369 C914.4509,295.0969 1098.06,340.2 1268.5,399 C1276.19,401.65 1284.01,404.49 1291.86,407.44 " fill="none" id="Contenedor-backto-Contenedor_Armadura" style="stroke:#181818;stroke-width:1.0;"/><polygon fill="none" points="760.79,260.93,777.0586,270.6939,779.6632,258.98,760.79,260.93" style="stroke:#181818;stroke-width:1.0;"/></g><!--SRC=[lLJBJiCm4BpdAonn2O9KeeXB1KXG1EeD8Mu8HQwpAQuIkwoTgkBnKNm3FuQz8KqWALLHuMHxlRFZ6QyjCcuC6sfbGK6YaJq7Z4KiJgNR632fRBaMEYjorGn92xbRZjnmT-yYUyo0ZItF-VkR3bDAt6U2njq1cskPK1QV84muXXvVmlUPPwi09L456skT4UonaDQXLcVwIYN162M6JKe1YBmPsd6243Z69jCsb2g1HLN6Mu74wPAui0NFv5Dd9jLw3G915exK79GxeTHj2za9E-gmaSBB0fSQfxmJUz2DFQGmWW3hWpSq-RmAwU_JdIPE2oErAiMJGqk- -ixZeKuHDg4krGWFyuwveMu95fsMEprQreJdt1G8g3SXAiDIQALTQua7FM2tiB2kJl_YFxhf3ngbuViPvjniOaUVmZD0u-vqwho_hgPV_LzczBYZYC79dV64TpZcZx0TntobbIgJ0d_HsviAzIphnFgSxGdsrRpeAvI9byob0cJ7Br7KS21eVA-qLVyLhItw1LhHxs-rbL2zhP-Gr6th4aZG1m00]--></g></svg>